<svg xmlns="http://www.w3.org/2000/svg" width="360" height="66" viewBox="0 0 360 66" role="img" aria-labelledby="title desc">
<title id="title">Along the way</title><desc id="desc">Along the way</desc>
<style>:root{--text:#182d23;--muted:#526b5d;--accent:#347a5b}
@media(prefers-color-scheme:dark){:root{--text:#e6ede8;--muted:#92a69a;--accent:#9bd8bc}}</style>
<g><g data-text="05 / MILESTONES" data-family="mono" data-size="10.0" data-weight="500.0" data-spacing="1.2" data-x="180.0" data-y="13.0" data-anchor="middle" fill="var(--muted)"><path d="M129.6 13.1Q128.91 13.1 128.4 12.83Q127.9 12.56 127.62 12.08Q127.34 11.59 127.34 10.94V7.76Q127.34 7.1 127.62 6.62Q127.89 6.14 128.4 5.87Q128.91 5.6 129.6 5.6Q130.3 5.6 130.8 5.87Q131.31 6.14 131.58 6.62Q131.86 7.1 131.86 7.76V10.94Q131.86 11.59 131.58 12.08Q131.3 12.56 130.8 12.83Q130.29 13.1 129.6 13.1ZM129.6 12.17Q130.16 12.17 130.5 11.83Q130.83 11.49 130.83 10.94V7.76Q130.83 7.21 130.5 6.87Q130.16 6.53 129.6 6.53Q129.04 6.53 128.7 6.87Q128.37 7.21 128.37 7.76V10.94Q128.37 11.49 128.71 11.83Q129.04 12.17 129.6 12.17ZM129.6 9.97Q129.32 9.97 129.14 9.79Q128.97 9.61 128.97 9.32Q128.97 9.04 129.14 8.86Q129.32 8.69 129.6 8.69Q129.88 8.69 130.06 8.86Q130.23 9.04 130.23 9.32Q130.23 9.61 130.06 9.79Q129.88 9.97 129.6 9.97ZM136.78 13.1Q135.83 13.1 135.24 12.62Q134.65 12.13 134.58 11.31H135.65Q135.7 11.71 135.99 11.93Q136.28 12.15 136.79 12.15Q137.36 12.15 137.65 11.84Q137.95 11.54 137.95 10.99V10.28Q137.95 9.72 137.66 9.42Q137.37 9.11 136.8 9.11Q136.44 9.11 136.18 9.28Q135.92 9.44 135.8 9.73H134.73L134.78 5.7H138.76V6.68H135.81L135.79 8.95H136.07L135.78 9.21Q135.78 8.74 136.15 8.47Q136.52 8.2 137.14 8.2Q138.03 8.2 138.53 8.75Q139.02 9.29 139.02 10.28V10.99Q139.02 11.96 138.43 12.53Q137.84 13.1 136.78 13.1ZM148.88 14.1 152.4 4.7H153.52L150.0 14.1ZM163.26 13.0V5.7H164.59L165.32 8.04Q165.43 8.37 165.51 8.68Q165.59 8.98 165.62 9.13Q165.66 8.98 165.73 8.68Q165.81 8.37 165.91 8.04L166.61 5.7H167.94V13.0H166.92V10.54Q166.92 10.07 166.94 9.5Q166.97 8.92 167.02 8.34Q167.07 7.75 167.12 7.21Q167.17 6.68 167.21 6.28L166.13 9.83H165.09L163.99 6.28Q164.04 6.67 164.09 7.18Q164.14 7.7 164.18 8.28Q164.22 8.86 164.25 9.45Q164.28 10.03 164.28 10.54V13.0ZM170.78 13.0V12.04H172.25V6.66H170.78V5.7H174.82V6.66H173.35V12.04H174.82V13.0ZM178.09 13.0V5.7H179.17V12.01H182.36V13.0ZM185.14 13.0V5.7H189.43V6.66H186.2V8.73H189.08V9.68H186.2V12.04H189.43V13.0ZM194.43 13.1Q193.69 13.1 193.16 12.85Q192.63 12.61 192.34 12.15Q192.05 11.7 192.05 11.07H193.12Q193.12 11.57 193.47 11.85Q193.82 12.14 194.44 12.14Q195.02 12.14 195.35 11.86Q195.68 11.58 195.68 11.09Q195.68 10.68 195.45 10.38Q195.23 10.08 194.81 9.97L193.89 9.7Q193.09 9.47 192.65 8.92Q192.22 8.36 192.22 7.59Q192.22 6.99 192.49 6.54Q192.76 6.09 193.26 5.84Q193.76 5.59 194.44 5.59Q195.44 5.59 196.05 6.13Q196.65 6.67 196.66 7.58H195.58Q195.58 7.1 195.28 6.82Q194.97 6.55 194.42 6.55Q193.89 6.55 193.59 6.8Q193.29 7.06 193.29 7.52Q193.29 7.93 193.52 8.23Q193.74 8.53 194.16 8.65L195.09 8.93Q195.89 9.15 196.32 9.71Q196.75 10.27 196.75 11.05Q196.75 11.66 196.46 12.13Q196.17 12.59 195.65 12.84Q195.13 13.1 194.43 13.1ZM201.06 13.0V6.69H199.11V5.69H204.09V6.69H202.14V13.0ZM208.8 13.1Q208.12 13.1 207.62 12.84Q207.13 12.59 206.86 12.1Q206.6 11.62 206.6 10.97V7.73Q206.6 7.07 206.86 6.59Q207.13 6.11 207.62 5.86Q208.12 5.6 208.8 5.6Q209.48 5.6 209.98 5.86Q210.47 6.11 210.74 6.59Q211.0 7.07 211.0 7.72V10.97Q211.0 11.62 210.74 12.1Q210.47 12.59 209.98 12.84Q209.48 13.1 208.8 13.1ZM208.8 12.14Q209.35 12.14 209.64 11.84Q209.92 11.53 209.92 10.97V7.73Q209.92 7.16 209.64 6.86Q209.35 6.56 208.8 6.56Q208.26 6.56 207.97 6.86Q207.68 7.16 207.68 7.73V10.97Q207.68 11.53 207.97 11.84Q208.26 12.14 208.8 12.14ZM213.81 13.0V5.7H215.17L217.3 11.77Q217.28 11.48 217.25 11.08Q217.22 10.68 217.2 10.25Q217.19 9.82 217.19 9.47V5.7H218.19V13.0H216.83L214.71 6.93Q214.73 7.19 214.76 7.58Q214.78 7.97 214.8 8.39Q214.81 8.81 214.81 9.17V13.0ZM221.14 13.0V5.7H225.43V6.66H222.2V8.73H225.08V9.68H222.2V12.04H225.43V13.0ZM230.43 13.1Q229.69 13.1 229.16 12.85Q228.63 12.61 228.34 12.15Q228.05 11.7 228.05 11.07H229.12Q229.12 11.57 229.47 11.85Q229.82 12.14 230.44 12.14Q231.02 12.14 231.35 11.86Q231.68 11.58 231.68 11.09Q231.68 10.68 231.45 10.38Q231.23 10.08 230.81 9.97L229.89 9.7Q229.09 9.47 228.65 8.92Q228.22 8.36 228.22 7.59Q228.22 6.99 228.49 6.54Q228.76 6.09 229.26 5.84Q229.76 5.59 230.44 5.59Q231.44 5.59 232.05 6.13Q232.65 6.67 232.66 7.58H231.58Q231.58 7.1 231.28 6.82Q230.97 6.55 230.42 6.55Q229.89 6.55 229.59 6.8Q229.29 7.06 229.29 7.52Q229.29 7.93 229.52 8.23Q229.74 8.53 230.16 8.65L231.09 8.93Q231.89 9.15 232.32 9.71Q232.75 10.27 232.75 11.05Q232.75 11.66 232.46 12.13Q232.17 12.59 231.65 12.84Q231.13 13.1 230.43 13.1Z" /></g></g><g><g data-text="Along the way" data-family="sans" data-size="24.0" data-weight="600.0" data-spacing="-0.65" data-x="180.0" data-y="43.0" data-anchor="middle" fill="var(--text)"><path d="M104.01 43.0 109.62 25.72H113.23L118.85 43.0H116.25L111.07 27.23H111.73L106.61 43.0ZM106.92 39.1V36.75H115.94V39.1ZM120.6 43.0V25.36H123.11V43.0ZM131.68 43.36Q129.74 43.36 128.32 42.48Q126.89 41.61 126.12 40.06Q125.34 38.52 125.34 36.51Q125.34 34.48 126.13 32.94Q126.92 31.4 128.35 30.54Q129.78 29.68 131.68 29.68Q133.63 29.68 135.06 30.55Q136.49 31.43 137.27 32.97Q138.04 34.51 138.04 36.51Q138.04 38.54 137.26 40.08Q136.48 41.62 135.05 42.49Q133.62 43.36 131.68 43.36ZM131.68 40.99Q133.55 40.99 134.46 39.74Q135.38 38.49 135.38 36.51Q135.38 34.48 134.45 33.26Q133.53 32.05 131.68 32.05Q130.42 32.05 129.61 32.62Q128.8 33.18 128.4 34.19Q128.0 35.19 128.0 36.51Q128.0 38.55 128.94 39.77Q129.87 40.99 131.68 40.99ZM149.13 43.0V36.63Q149.13 35.87 149.0 35.07Q148.88 34.28 148.53 33.59Q148.17 32.9 147.53 32.48Q146.89 32.06 145.86 32.06Q145.18 32.06 144.58 32.29Q143.99 32.52 143.53 33.01Q143.08 33.5 142.82 34.3Q142.56 35.1 142.56 36.26L141.0 35.67Q141.0 33.91 141.66 32.56Q142.32 31.21 143.56 30.45Q144.8 29.69 146.55 29.69Q147.89 29.69 148.8 30.12Q149.72 30.56 150.29 31.26Q150.86 31.96 151.16 32.79Q151.46 33.61 151.57 34.41Q151.67 35.2 151.67 35.8V43.0ZM140.02 43.0V30.04H142.27V33.78H142.56V43.0ZM159.49 49.12Q158.44 49.12 157.46 48.8Q156.48 48.47 155.68 47.84Q154.88 47.21 154.35 46.29L156.66 45.11Q157.09 45.94 157.87 46.33Q158.65 46.71 159.5 46.71Q160.57 46.71 161.33 46.33Q162.09 45.95 162.48 45.19Q162.87 44.44 162.86 43.32V39.7H163.16V30.04H165.38V43.35Q165.38 43.87 165.34 44.34Q165.3 44.8 165.21 45.26Q164.94 46.58 164.16 47.43Q163.38 48.28 162.19 48.7Q161.0 49.12 159.49 49.12ZM159.29 43.36Q157.48 43.36 156.17 42.46Q154.86 41.56 154.14 40.01Q153.42 38.46 153.42 36.51Q153.42 34.56 154.14 33.01Q154.86 31.47 156.19 30.57Q157.52 29.68 159.34 29.68Q161.17 29.68 162.43 30.57Q163.68 31.47 164.32 33.01Q164.97 34.56 164.97 36.51Q164.97 38.45 164.32 40.0Q163.68 41.55 162.41 42.46Q161.15 43.36 159.29 43.36ZM159.64 41.09Q160.88 41.09 161.65 40.5Q162.43 39.92 162.8 38.89Q163.16 37.85 163.16 36.51Q163.16 35.16 162.79 34.13Q162.43 33.1 161.67 32.53Q160.9 31.95 159.72 31.95Q158.48 31.95 157.67 32.56Q156.86 33.17 156.48 34.21Q156.09 35.24 156.09 36.51Q156.09 37.8 156.48 38.83Q156.86 39.87 157.65 40.48Q158.44 41.09 159.64 41.09ZM179.65 43.0Q178.43 43.24 177.26 43.2Q176.08 43.16 175.16 42.75Q174.23 42.33 173.76 41.42Q173.34 40.62 173.31 39.79Q173.28 38.96 173.28 37.9V26.44H175.8V37.78Q175.8 38.56 175.81 39.14Q175.83 39.71 176.06 40.1Q176.49 40.85 177.44 40.95Q178.38 41.06 179.65 40.87ZM170.8 32.06V30.04H179.65V32.06ZM190.82 43.0V36.63Q190.82 35.87 190.69 35.07Q190.57 34.28 190.21 33.59Q189.86 32.9 189.22 32.48Q188.58 32.06 187.55 32.06Q186.87 32.06 186.27 32.29Q185.67 32.52 185.22 33.01Q184.77 33.5 184.51 34.3Q184.25 35.1 184.25 36.26L182.69 35.67Q182.69 33.91 183.35 32.56Q184.01 31.21 185.25 30.45Q186.49 29.69 188.23 29.69Q189.58 29.69 190.49 30.12Q191.41 30.56 191.98 31.26Q192.55 31.96 192.85 32.79Q193.15 33.61 193.25 34.41Q193.36 35.2 193.36 35.8V43.0ZM181.71 43.0V25.72H183.95V35.04H184.25V43.0ZM201.58 43.36Q199.64 43.36 198.19 42.51Q196.74 41.66 195.92 40.15Q195.11 38.63 195.11 36.63Q195.11 34.51 195.91 32.95Q196.71 31.39 198.13 30.53Q199.56 29.68 201.46 29.68Q203.44 29.68 204.83 30.6Q206.22 31.52 206.91 33.21Q207.6 34.9 207.46 37.22H204.95V36.31Q204.93 34.06 204.09 32.98Q203.26 31.9 201.55 31.9Q199.67 31.9 198.72 33.09Q197.78 34.28 197.78 36.52Q197.78 38.65 198.72 39.82Q199.67 40.99 201.46 40.99Q202.63 40.99 203.49 40.46Q204.35 39.93 204.83 38.93L207.29 39.71Q206.54 41.45 205.0 42.4Q203.46 43.36 201.58 43.36ZM196.96 37.22V35.27H206.21V37.22ZM216.4 43.0 212.44 30.02 214.92 30.04 217.64 38.94 220.37 30.04H222.53L225.27 38.94L227.99 30.04H230.46L226.5 43.0H224.48L221.45 33.62L218.42 43.0ZM235.63 43.36Q234.19 43.36 233.22 42.83Q232.24 42.3 231.75 41.41Q231.25 40.53 231.25 39.47Q231.25 38.49 231.6 37.75Q231.95 37.0 232.63 36.48Q233.31 35.95 234.31 35.63Q235.17 35.38 236.26 35.19Q237.36 34.99 238.56 34.83Q239.77 34.66 240.95 34.49L240.05 35.0Q240.07 33.47 239.4 32.73Q238.74 32.0 237.12 32.0Q236.1 32.0 235.25 32.47Q234.4 32.95 234.06 34.04L231.72 33.32Q232.19 31.65 233.54 30.66Q234.89 29.68 237.14 29.68Q238.88 29.68 240.17 30.28Q241.46 30.87 242.06 32.15Q242.37 32.79 242.44 33.5Q242.51 34.21 242.51 35.02V43.0H240.3V40.04L240.73 40.42Q239.93 41.9 238.68 42.63Q237.44 43.36 235.63 43.36ZM236.07 41.31Q237.14 41.31 237.91 40.93Q238.68 40.55 239.15 39.96Q239.61 39.37 239.76 38.74Q239.96 38.17 239.99 37.44Q240.02 36.72 240.02 36.3L240.83 36.59Q239.65 36.77 238.68 36.91Q237.71 37.06 236.92 37.2Q236.14 37.34 235.52 37.53Q235.01 37.7 234.6 37.96Q234.2 38.21 233.96 38.57Q233.73 38.94 233.73 39.45Q233.73 39.95 233.98 40.38Q234.23 40.8 234.75 41.06Q235.27 41.31 236.07 41.31ZM246.74 48.76 249.24 41.93 249.28 43.94 243.62 30.04H246.25L250.47 40.78H249.7L253.74 30.04H256.27L249.13 48.76Z" /></g></g><path d="M166 60h28" stroke="var(--accent)" stroke-opacity=".65" /></svg>
