<svg xmlns="http://www.w3.org/2000/svg" width="800" height="258" viewBox="0 0 800 258" role="img" aria-labelledby="title desc"><title id="title">My toolkit</title><desc id="desc">Languages: Java, C, C++, Python, SQL, JavaScript; Frameworks: Spring Boot, React, Next.js, FastAPI; Tools &amp; data: Docker, PostgreSQL, MySQL, Git, Linux, Postman</desc><rect x=".5" y=".5" width="799" height="257" rx="10" fill="#111814" stroke="#28352f" stroke-opacity="1" /><g><g data-text="LANGUAGES" data-family="mono" data-size="14.0" data-weight="500.0" data-spacing="0.15" data-x="24.0" data-y="28.0" data-anchor="start" fill="#a7b2bc"><path d="M25.53 28.0V17.78H27.04V26.61H31.51V28.0ZM33.15 28.0 35.76 17.78H37.74L40.35 28.0H38.82L38.2 25.41H35.31L34.69 28.0ZM35.59 24.16H37.91L37.21 21.21Q37.03 20.43 36.91 19.85Q36.79 19.27 36.75 19.05Q36.71 19.27 36.6 19.84Q36.48 20.42 36.29 21.2ZM42.23 28.0V17.78H44.14L47.12 26.28Q47.09 25.88 47.05 25.32Q47.01 24.75 46.98 24.15Q46.96 23.55 46.96 23.06V17.78H48.37V28.0H46.46L43.49 19.5Q43.53 19.87 43.56 20.41Q43.59 20.96 43.62 21.54Q43.64 22.13 43.64 22.64V28.0ZM53.91 28.14Q52.95 28.14 52.25 27.78Q51.54 27.42 51.15 26.75Q50.76 26.07 50.76 25.16V20.62Q50.76 19.69 51.15 19.03Q51.54 18.36 52.25 18.0Q52.95 17.64 53.91 17.64Q54.86 17.64 55.56 18.01Q56.26 18.37 56.65 19.04Q57.03 19.7 57.03 20.62H55.52Q55.52 19.83 55.09 19.4Q54.67 18.98 53.91 18.98Q53.14 18.98 52.71 19.4Q52.28 19.82 52.28 20.61V25.16Q52.28 25.95 52.71 26.38Q53.14 26.81 53.91 26.81Q54.67 26.81 55.09 26.38Q55.52 25.94 55.52 25.16V24.01H53.61V22.67H57.03V25.16Q57.03 26.06 56.65 26.74Q56.26 27.41 55.56 27.77Q54.86 28.14 53.91 28.14ZM62.4 28.14Q60.93 28.14 60.13 27.33Q59.33 26.53 59.33 25.14V17.78H60.85V25.14Q60.85 25.92 61.23 26.36Q61.62 26.81 62.4 26.81Q63.16 26.81 63.56 26.36Q63.95 25.92 63.95 25.14V17.78H65.47V25.14Q65.47 26.53 64.67 27.34Q63.88 28.14 62.4 28.14ZM67.35 28.0 69.96 17.78H71.94L74.55 28.0H73.02L72.4 25.41H69.51L68.89 28.0ZM69.79 24.16H72.11L71.41 21.21Q71.23 20.43 71.11 19.85Q70.99 19.27 70.95 19.05Q70.91 19.27 70.8 19.84Q70.68 20.42 70.49 21.2ZM79.56 28.14Q78.6 28.14 77.9 27.78Q77.19 27.42 76.8 26.75Q76.41 26.07 76.41 25.16V20.62Q76.41 19.69 76.8 19.03Q77.19 18.36 77.9 18.0Q78.6 17.64 79.56 17.64Q80.51 17.64 81.21 18.01Q81.91 18.37 82.3 19.04Q82.68 19.7 82.68 20.62H81.17Q81.17 19.83 80.74 19.4Q80.32 18.98 79.56 18.98Q78.79 18.98 78.36 19.4Q77.93 19.82 77.93 20.61V25.16Q77.93 25.95 78.36 26.38Q78.79 26.81 79.56 26.81Q80.32 26.81 80.74 26.38Q81.17 25.94 81.17 25.16V24.01H79.26V22.67H82.68V25.16Q82.68 26.06 82.3 26.74Q81.91 27.41 81.21 27.77Q80.51 28.14 79.56 28.14ZM85.17 28.0V17.78H91.17V19.12H86.66V22.02H90.68V23.36H86.66V26.66H91.17V28.0ZM96.64 28.14Q95.61 28.14 94.87 27.8Q94.12 27.45 93.72 26.81Q93.31 26.17 93.3 25.3H94.81Q94.81 25.99 95.3 26.4Q95.79 26.8 96.65 26.8Q97.47 26.8 97.93 26.41Q98.39 26.02 98.39 25.32Q98.39 24.76 98.07 24.34Q97.76 23.92 97.17 23.76L95.89 23.38Q94.77 23.06 94.15 22.28Q93.54 21.5 93.54 20.43Q93.54 19.58 93.92 18.95Q94.31 18.33 95.01 17.98Q95.7 17.63 96.65 17.63Q98.06 17.63 98.91 18.39Q99.75 19.14 99.76 20.41H98.25Q98.25 19.74 97.83 19.35Q97.4 18.97 96.63 18.97Q95.88 18.97 95.47 19.33Q95.05 19.68 95.05 20.32Q95.05 20.9 95.37 21.32Q95.68 21.74 96.26 21.91L97.57 22.3Q98.69 22.61 99.29 23.39Q99.9 24.17 99.9 25.27Q99.9 26.13 99.49 26.78Q99.08 27.42 98.35 27.78Q97.62 28.14 96.64 28.14Z" /></g></g><svg x="24.0" y="46" width="18" height="18" viewBox="0 0 128 128" fill="#a7b2bc"><path d="M47.617 98.12c-19.192 5.362 11.677 16.439 36.115 5.969-4.003-1.556-6.874-3.351-6.874-3.351-10.897 2.06-15.952 2.222-25.844 1.092-8.164-.935-3.397-3.71-3.397-3.71zm33.189-10.46c-14.444 2.779-22.787 2.69-33.354 1.6-8.171-.845-2.822-4.805-2.822-4.805-21.137 7.016 11.767 14.977 41.309 6.336-3.14-1.106-5.133-3.131-5.133-3.131zm11.319-60.575c.001 0-42.731 10.669-22.323 34.187 6.024 6.935-1.58 13.17-1.58 13.17s15.289-7.891 8.269-17.777c-6.559-9.215-11.587-13.793 15.634-29.58zm9.998 81.144s3.529 2.91-3.888 5.159c-14.102 4.272-58.706 5.56-71.095.171-4.45-1.938 3.899-4.625 6.526-5.192 2.739-.593 4.303-.485 4.303-.485-4.952-3.487-32.013 6.85-13.742 9.815 49.821 8.076 90.817-3.637 77.896-9.468zM85 77.896c2.395-1.634 5.703-3.053 5.703-3.053s-9.424 1.685-18.813 2.474c-11.494.964-23.823 1.154-30.012.326-14.652-1.959 8.033-7.348 8.033-7.348s-8.812-.596-19.644 4.644C17.455 81.134 61.958 83.958 85 77.896zm5.609 15.145c-.108.29-.468.616-.468.616 31.273-8.221 19.775-28.979 4.822-23.725-1.312.464-2 1.543-2 1.543s.829-.334 2.678-.72c7.559-1.575 18.389 10.119-5.032 22.286zM64.181 70.069c-4.614-10.429-20.26-19.553.007-35.559C89.459 14.563 76.492 1.587 76.492 1.587c5.23 20.608-18.451 26.833-26.999 39.667-5.821 8.745 2.857 18.142 14.688 28.815zm27.274 51.748c-19.187 3.612-42.854 3.191-56.887.874 0 0 2.874 2.38 17.646 3.331 22.476 1.437 57-.8 57.816-11.436.001 0-1.57 4.032-18.575 7.231z" /></svg><g><g data-text="Java" data-family="sans" data-size="16.0" data-weight="450.0" data-spacing="0.0" data-x="49.0" data-y="60.0" data-anchor="start" fill="#e6edf3"><path d="M52.14 60.23Q50.96 60.23 50.13 59.58Q49.3 58.93 49.0 57.85L50.29 57.54Q50.43 58.15 50.94 58.57Q51.45 58.99 52.12 58.99Q52.55 58.99 53.0 58.78Q53.45 58.57 53.69 58.09Q53.86 57.76 53.89 57.37Q53.92 56.97 53.92 56.42V48.48H55.23V56.42Q55.23 56.91 55.22 57.3Q55.22 57.69 55.14 58.05Q55.06 58.4 54.85 58.76Q54.43 59.51 53.71 59.87Q53.0 60.23 52.14 60.23ZM60.1 60.24Q59.13 60.24 58.47 59.89Q57.82 59.53 57.49 58.95Q57.16 58.36 57.16 57.67Q57.16 56.98 57.43 56.48Q57.7 55.98 58.18 55.66Q58.67 55.33 59.32 55.15Q59.95 54.99 60.73 54.86Q61.51 54.74 62.29 54.64Q63.06 54.54 63.69 54.45L63.22 54.72Q63.25 53.51 62.75 52.92Q62.25 52.34 61.01 52.34Q60.17 52.34 59.57 52.72Q58.97 53.1 58.73 53.93L57.48 53.55Q57.78 52.41 58.68 51.76Q59.58 51.12 61.03 51.12Q62.2 51.12 63.04 51.55Q63.88 51.98 64.23 52.83Q64.41 53.21 64.45 53.68Q64.5 54.15 64.5 54.65V60.0H63.35V57.88L63.65 58.04Q63.18 59.12 62.28 59.68Q61.38 60.24 60.1 60.24ZM60.28 59.13Q61.07 59.13 61.66 58.85Q62.25 58.57 62.61 58.08Q62.97 57.6 63.08 57.0Q63.19 56.59 63.2 56.1Q63.21 55.61 63.21 55.35L63.68 55.57Q63.03 55.66 62.35 55.75Q61.66 55.83 61.02 55.93Q60.38 56.03 59.87 56.17Q59.51 56.28 59.19 56.46Q58.86 56.65 58.66 56.94Q58.45 57.23 58.45 57.67Q58.45 58.03 58.64 58.37Q58.82 58.71 59.22 58.92Q59.62 59.13 60.28 59.13ZM68.92 60.0 65.78 51.36H67.1L69.59 58.32L72.06 51.36H73.39L70.25 60.0ZM77.3 60.24Q76.32 60.24 75.67 59.89Q75.01 59.53 74.68 58.95Q74.35 58.36 74.35 57.67Q74.35 56.98 74.62 56.48Q74.89 55.98 75.38 55.66Q75.86 55.33 76.51 55.15Q77.15 54.99 77.93 54.86Q78.7 54.74 79.48 54.64Q80.25 54.54 80.88 54.45L80.42 54.72Q80.44 53.51 79.94 52.92Q79.44 52.34 78.2 52.34Q77.37 52.34 76.77 52.72Q76.16 53.1 75.92 53.93L74.67 53.55Q74.98 52.41 75.88 51.76Q76.77 51.12 78.22 51.12Q79.4 51.12 80.23 51.55Q81.07 51.98 81.43 52.83Q81.6 53.21 81.65 53.68Q81.7 54.15 81.7 54.65V60.0H80.54V57.88L80.84 58.04Q80.37 59.12 79.47 59.68Q78.57 60.24 77.3 60.24ZM77.47 59.13Q78.27 59.13 78.86 58.85Q79.45 58.57 79.81 58.08Q80.17 57.6 80.27 57.0Q80.38 56.59 80.39 56.1Q80.4 55.61 80.4 55.35L80.88 55.57Q80.23 55.66 79.54 55.75Q78.85 55.83 78.21 55.93Q77.58 56.03 77.07 56.17Q76.7 56.28 76.38 56.46Q76.06 56.65 75.85 56.94Q75.65 57.23 75.65 57.67Q75.65 58.03 75.83 58.37Q76.01 58.71 76.41 58.92Q76.81 59.13 77.47 59.13Z" /></g></g><svg x="149.33333333333331" y="46" width="18" height="18" viewBox="0 0 24 24" fill="#a7b2bc"><path d="M16.5921 9.1962s-.354-3.298-3.627-3.39c-3.2741-.09-4.9552 2.474-4.9552 6.14 0 3.6651 1.858 6.5972 5.0451 6.5972 3.184 0 3.5381-3.665 3.5381-3.665l6.1041.365s.36 3.31-2.196 5.836c-2.552 2.5241-5.6901 2.9371-7.8762 2.9201-2.19-.017-5.2261.034-8.1602-2.97-2.938-3.0101-3.436-5.9302-3.436-8.8002 0-2.8701.556-6.6702 4.047-9.5502C7.444.72 9.849 0 12.254 0c10.0422 0 10.7172 9.2602 10.7172 9.2602z" /></svg><g><g data-text="C" data-family="sans" data-size="16.0" data-weight="450.0" data-spacing="0.0" data-x="174.33333333333331" data-y="60.0" data-anchor="start" fill="#e6edf3"><path d="M180.15 60.24Q178.43 60.24 177.24 59.48Q176.05 58.72 175.43 57.37Q174.81 56.01 174.81 54.24Q174.81 52.47 175.43 51.11Q176.05 49.76 177.24 49.0Q178.43 48.24 180.15 48.24Q182.16 48.24 183.44 49.26Q184.72 50.29 185.2 52.01L183.88 52.36Q183.52 51.03 182.59 50.26Q181.66 49.49 180.15 49.49Q178.83 49.49 177.96 50.09Q177.08 50.69 176.64 51.76Q176.2 52.83 176.19 54.24Q176.18 55.65 176.62 56.72Q177.06 57.79 177.95 58.39Q178.83 58.99 180.15 58.99Q181.66 58.99 182.59 58.22Q183.52 57.44 183.88 56.12L185.2 56.47Q184.72 58.19 183.44 59.22Q182.16 60.24 180.15 60.24Z" /></g></g><svg x="274.66666666666663" y="46" width="18" height="18" viewBox="0 0 24 24" fill="#a7b2bc"><path d="M22.394 6c-.167-.29-.398-.543-.652-.69L12.926.22c-.509-.294-1.34-.294-1.848 0L2.26 5.31c-.508.293-.923 1.013-.923 1.6v10.18c0 .294.104.62.271.91.167.29.398.543.652.69l8.816 5.09c.508.293 1.34.293 1.848 0l8.816-5.09c.254-.147.485-.4.652-.69.167-.29.27-.616.27-.91V6.91c.003-.294-.1-.62-.268-.91zM12 19.11c-3.92 0-7.109-3.19-7.109-7.11 0-3.92 3.19-7.11 7.11-7.11a7.133 7.133 0 016.156 3.553l-3.076 1.78a3.567 3.567 0 00-3.08-1.78A3.56 3.56 0 008.444 12 3.56 3.56 0 0012 15.555a3.57 3.57 0 003.08-1.778l3.078 1.78A7.135 7.135 0 0112 19.11zm7.11-6.715h-.79v.79h-.79v-.79h-.79v-.79h.79v-.79h.79v.79h.79zm2.962 0h-.79v.79h-.79v-.79h-.79v-.79h.79v-.79h.79v.79h.79z" /></svg><g><g data-text="C++" data-family="sans" data-size="16.0" data-weight="450.0" data-spacing="0.0" data-x="299.66666666666663" data-y="60.0" data-anchor="start" fill="#e6edf3"><path d="M305.49 60.24Q303.76 60.24 302.57 59.48Q301.38 58.72 300.76 57.37Q300.15 56.01 300.15 54.24Q300.15 52.47 300.76 51.11Q301.38 49.76 302.57 49.0Q303.76 48.24 305.49 48.24Q307.49 48.24 308.77 49.26Q310.05 50.29 310.53 52.01L309.21 52.36Q308.85 51.03 307.92 50.26Q306.99 49.49 305.49 49.49Q304.17 49.49 303.29 50.09Q302.41 50.69 301.97 51.76Q301.53 52.83 301.52 54.24Q301.51 55.65 301.95 56.72Q302.4 57.79 303.28 58.39Q304.17 58.99 305.49 58.99Q306.99 58.99 307.92 58.22Q308.85 57.44 309.21 56.12L310.53 56.47Q310.05 58.19 308.77 59.22Q307.49 60.24 305.49 60.24ZM315.24 57.89V54.78H312.13V53.69H315.24V50.59H316.33V53.69H319.43V54.78H316.33V57.89ZM324.45 57.89V54.78H321.35V53.69H324.45V50.59H325.54V53.69H328.64V54.78H325.54V57.89Z" /></g></g><svg x="400.0" y="46" width="18" height="18" viewBox="0 0 24 24" fill="#a7b2bc"><path d="M14.25.18l.9.2.73.26.59.3.45.32.34.34.25.34.16.33.1.3.04.26.02.2-.01.13V8.5l-.05.63-.13.55-.21.46-.26.38-.3.31-.33.25-.35.19-.35.14-.33.1-.3.07-.26.04-.21.02H8.77l-.69.05-.59.14-.5.22-.41.27-.33.32-.27.35-.2.36-.15.37-.1.35-.07.32-.04.27-.02.21v3.06H3.17l-.21-.03-.28-.07-.32-.12-.35-.18-.36-.26-.36-.36-.35-.46-.32-.59-.28-.73-.21-.88-.14-1.05-.05-1.23.06-1.22.16-1.04.24-.87.32-.71.36-.57.4-.44.42-.33.42-.24.4-.16.36-.1.32-.05.24-.01h.16l.06.01h8.16v-.83H6.18l-.01-2.75-.02-.37.05-.34.11-.31.17-.28.25-.26.31-.23.38-.2.44-.18.51-.15.58-.12.64-.1.71-.06.77-.04.84-.02 1.27.05zm-6.3 1.98l-.23.33-.08.41.08.41.23.34.33.22.41.09.41-.09.33-.22.23-.34.08-.41-.08-.41-.23-.33-.33-.22-.41-.09-.41.09zm13.09 3.95l.28.06.32.12.35.18.36.27.36.35.35.47.32.59.28.73.21.88.14 1.04.05 1.23-.06 1.23-.16 1.04-.24.86-.32.71-.36.57-.4.45-.42.33-.42.24-.4.16-.36.09-.32.05-.24.02-.16-.01h-8.22v.82h5.84l.01 2.76.02.36-.05.34-.11.31-.17.29-.25.25-.31.24-.38.2-.44.17-.51.15-.58.13-.64.09-.71.07-.77.04-.84.01-1.27-.04-1.07-.14-.9-.2-.73-.25-.59-.3-.45-.33-.34-.34-.25-.34-.16-.33-.1-.3-.04-.25-.02-.2.01-.13v-5.34l.05-.64.13-.54.21-.46.26-.38.3-.32.33-.24.35-.2.35-.14.33-.1.3-.06.26-.04.21-.02.13-.01h5.84l.69-.05.59-.14.5-.21.41-.28.33-.32.27-.35.2-.36.15-.36.1-.35.07-.32.04-.28.02-.21V6.07h2.09l.14.01zm-6.47 14.25l-.23.33-.08.41.08.41.23.33.33.23.41.08.41-.08.33-.23.23-.33.08-.41-.08-.41-.23-.33-.33-.23-.41-.08-.41.08z" /></svg><g><g data-text="Python" data-family="sans" data-size="16.0" data-weight="450.0" data-spacing="0.0" data-x="425.0" data-y="60.0" data-anchor="start" fill="#e6edf3"><path d="M426.12 60.0V48.48H430.62Q430.79 48.48 431.01 48.49Q431.23 48.5 431.45 48.54Q432.36 48.69 433.0 49.18Q433.63 49.67 433.95 50.42Q434.28 51.18 434.28 52.08Q434.28 52.99 433.95 53.74Q433.63 54.49 432.99 54.99Q432.36 55.48 431.45 55.62Q431.23 55.65 431.01 55.67Q430.78 55.69 430.62 55.69H427.42V60.0ZM427.42 54.45H430.58Q430.73 54.45 430.92 54.43Q431.12 54.41 431.3 54.38Q431.87 54.25 432.23 53.9Q432.6 53.55 432.77 53.07Q432.94 52.59 432.94 52.08Q432.94 51.57 432.77 51.1Q432.6 50.62 432.23 50.27Q431.87 49.91 431.3 49.79Q431.12 49.75 430.92 49.73Q430.73 49.72 430.58 49.72H427.42ZM437.09 63.84 438.77 59.3 438.79 60.65 435.01 51.36H436.38L439.41 58.98H438.9L441.72 51.36H443.05L438.37 63.84ZM449.16 60.0Q448.41 60.15 447.68 60.12Q446.96 60.1 446.39 59.82Q445.82 59.55 445.52 58.97Q445.28 58.47 445.26 57.96Q445.24 57.45 445.24 56.8V48.96H446.54V56.75Q446.54 57.29 446.55 57.66Q446.56 58.02 446.71 58.3Q447.0 58.83 447.63 58.92Q448.25 59.01 449.16 58.87ZM443.44 52.45V51.36H449.16V52.45ZM457.09 60.0V55.63Q457.09 54.97 456.97 54.38Q456.85 53.79 456.56 53.34Q456.28 52.89 455.81 52.63Q455.35 52.38 454.67 52.38Q454.09 52.38 453.63 52.58Q453.17 52.77 452.86 53.16Q452.54 53.54 452.37 54.11Q452.2 54.68 452.2 55.42L451.32 55.18Q451.32 53.89 451.78 52.99Q452.23 52.09 453.05 51.61Q453.87 51.14 454.95 51.14Q455.76 51.14 456.35 51.39Q456.93 51.64 457.33 52.07Q457.73 52.49 457.96 53.02Q458.2 53.55 458.3 54.13Q458.4 54.7 458.4 55.24V60.0ZM450.89 60.0V48.48H452.06V54.91H452.2V60.0ZM464.13 60.24Q462.84 60.24 461.92 59.66Q460.99 59.07 460.5 58.04Q460.0 57.01 460.0 55.67Q460.0 54.31 460.51 53.29Q461.01 52.26 461.94 51.69Q462.86 51.12 464.13 51.12Q465.42 51.12 466.35 51.7Q467.27 52.28 467.77 53.31Q468.26 54.33 468.26 55.67Q468.26 57.03 467.76 58.06Q467.27 59.08 466.34 59.66Q465.41 60.24 464.13 60.24ZM464.13 59.0Q465.52 59.0 466.2 58.07Q466.88 57.15 466.88 55.67Q466.88 54.16 466.19 53.26Q465.51 52.36 464.13 52.36Q463.19 52.36 462.59 52.78Q461.98 53.2 461.68 53.95Q461.38 54.69 461.38 55.67Q461.38 57.18 462.08 58.09Q462.78 59.0 464.13 59.0ZM476.22 60.0V55.63Q476.22 54.97 476.09 54.38Q475.97 53.79 475.69 53.34Q475.4 52.89 474.94 52.63Q474.47 52.38 473.79 52.38Q473.21 52.38 472.76 52.58Q472.3 52.77 471.98 53.16Q471.66 53.54 471.5 54.11Q471.33 54.68 471.33 55.42L470.44 55.18Q470.44 53.89 470.9 52.99Q471.36 52.09 472.18 51.61Q472.99 51.14 474.08 51.14Q474.88 51.14 475.47 51.39Q476.06 51.64 476.46 52.07Q476.85 52.49 477.09 53.02Q477.33 53.55 477.43 54.13Q477.53 54.7 477.53 55.24V60.0ZM470.01 60.0V51.36H471.19V53.58H471.33V60.0Z" /></g></g><svg x="525.3333333333333" y="46" width="18" height="18" viewBox="0 0 24 24" fill="#a7b2bc"><g fill="none" stroke="#c4d3c9" stroke-width="1.8"><ellipse cx="12" cy="5" rx="8" ry="3" /><path d="M4 5v14c0 1.7 3.6 3 8 3s8-1.3 8-3V5M4 12c0 1.7 3.6 3 8 3s8-1.3 8-3" /></g></svg><g><g data-text="SQL" data-family="sans" data-size="16.0" data-weight="450.0" data-spacing="0.0" data-x="550.3333333333333" data-y="60.0" data-anchor="start" fill="#e6edf3"><path d="M555.5 60.24Q554.28 60.24 553.31 59.83Q552.34 59.42 551.71 58.66Q551.07 57.9 550.88 56.86L552.22 56.65Q552.5 57.75 553.41 58.38Q554.31 59.0 555.56 59.0Q556.37 59.0 557.02 58.74Q557.67 58.49 558.04 58.01Q558.42 57.54 558.42 56.89Q558.42 56.47 558.27 56.17Q558.13 55.88 557.88 55.67Q557.64 55.47 557.34 55.34Q557.04 55.2 556.73 55.11L553.81 54.24Q553.3 54.09 552.85 53.86Q552.4 53.64 552.06 53.3Q551.72 52.97 551.52 52.51Q551.33 52.05 551.33 51.44Q551.33 50.45 551.85 49.73Q552.37 49.01 553.27 48.63Q554.17 48.24 555.31 48.25Q556.47 48.25 557.38 48.66Q558.29 49.07 558.89 49.82Q559.49 50.57 559.69 51.61L558.32 51.85Q558.2 51.13 557.78 50.6Q557.35 50.07 556.71 49.78Q556.07 49.49 555.3 49.49Q554.56 49.48 553.97 49.73Q553.39 49.97 553.04 50.4Q552.7 50.84 552.7 51.39Q552.7 51.95 553.01 52.28Q553.33 52.62 553.79 52.82Q554.25 53.01 554.69 53.13L556.91 53.78Q557.27 53.88 557.76 54.06Q558.24 54.25 558.7 54.58Q559.16 54.91 559.46 55.45Q559.76 55.99 559.76 56.82Q559.76 57.64 559.43 58.28Q559.11 58.92 558.53 59.35Q557.94 59.79 557.17 60.01Q556.4 60.24 555.5 60.24ZM570.47 60.23 567.36 57.14 568.23 56.27 571.32 59.36ZM566.13 60.24Q564.4 60.24 563.21 59.48Q562.02 58.72 561.4 57.37Q560.78 56.01 560.78 54.24Q560.78 52.47 561.4 51.11Q562.02 49.76 563.21 49.0Q564.4 48.24 566.13 48.24Q567.85 48.24 569.04 49.0Q570.23 49.76 570.85 51.11Q571.47 52.47 571.47 54.24Q571.47 56.01 570.85 57.37Q570.23 58.72 569.04 59.48Q567.85 60.24 566.13 60.24ZM566.13 58.99Q567.45 59.0 568.33 58.4Q569.2 57.8 569.65 56.72Q570.09 55.65 570.09 54.24Q570.09 52.83 569.65 51.76Q569.2 50.69 568.33 50.09Q567.45 49.49 566.13 49.49Q564.81 49.48 563.93 50.08Q563.06 50.68 562.61 51.75Q562.17 52.83 562.16 54.24Q562.15 55.65 562.6 56.72Q563.04 57.78 563.92 58.39Q564.81 58.99 566.13 58.99ZM573.23 60.0V48.48H574.53V58.76H579.93V60.0Z" /></g></g><svg x="650.6666666666666" y="46" width="18" height="18" viewBox="0 0 24 24" fill="#a7b2bc"><path d="M0 0h24v24H0V0zm22.034 18.276c-.175-1.095-.888-2.015-3.003-2.873-.736-.345-1.554-.585-1.797-1.14-.091-.33-.105-.51-.046-.705.15-.646.915-.84 1.515-.66.39.12.75.42.976.9 1.034-.676 1.034-.676 1.755-1.125-.27-.42-.404-.601-.586-.78-.63-.705-1.469-1.065-2.834-1.034l-.705.089c-.676.165-1.32.525-1.71 1.005-1.14 1.291-.811 3.541.569 4.471 1.365 1.02 3.361 1.244 3.616 2.205.24 1.17-.87 1.545-1.966 1.41-.811-.18-1.26-.586-1.755-1.336l-1.83 1.051c.21.48.45.689.81 1.109 1.74 1.756 6.09 1.666 6.871-1.004.029-.09.24-.705.074-1.65l.046.067zm-8.983-7.245h-2.248c0 1.938-.009 3.864-.009 5.805 0 1.232.063 2.363-.138 2.711-.33.689-1.18.601-1.566.48-.396-.196-.597-.466-.83-.855-.063-.105-.11-.196-.127-.196l-1.825 1.125c.305.63.75 1.172 1.324 1.517.855.51 2.004.675 3.207.405.783-.226 1.458-.691 1.811-1.411.51-.93.402-2.07.397-3.346.012-2.054 0-4.109 0-6.179l.004-.056z" /></svg><g><g data-text="JavaScript" data-family="sans" data-size="16.0" data-weight="450.0" data-spacing="0.0" data-x="675.6666666666666" data-y="60.0" data-anchor="start" fill="#e6edf3"><path d="M678.81 60.23Q677.63 60.23 676.8 59.58Q675.96 58.93 675.67 57.85L676.96 57.54Q677.1 58.15 677.61 58.57Q678.12 58.99 678.79 58.99Q679.22 58.99 679.67 58.78Q680.12 58.57 680.36 58.09Q680.53 57.76 680.56 57.37Q680.58 56.97 680.58 56.42V48.48H681.89V56.42Q681.89 56.91 681.89 57.3Q681.88 57.69 681.81 58.05Q681.73 58.4 681.52 58.76Q681.09 59.51 680.38 59.87Q679.67 60.23 678.81 60.23ZM686.77 60.24Q685.79 60.24 685.14 59.89Q684.48 59.53 684.15 58.95Q683.82 58.36 683.82 57.67Q683.82 56.98 684.09 56.48Q684.36 55.98 684.85 55.66Q685.33 55.33 685.98 55.15Q686.62 54.99 687.4 54.86Q688.18 54.74 688.95 54.64Q689.73 54.54 690.36 54.45L689.89 54.72Q689.91 53.51 689.41 52.92Q688.91 52.34 687.67 52.34Q686.84 52.34 686.24 52.72Q685.64 53.1 685.4 53.93L684.15 53.55Q684.45 52.41 685.35 51.76Q686.25 51.12 687.69 51.12Q688.87 51.12 689.71 51.55Q690.54 51.98 690.9 52.83Q691.07 53.21 691.12 53.68Q691.17 54.15 691.17 54.65V60.0H690.01V57.88L690.31 58.04Q689.85 59.12 688.95 59.68Q688.04 60.24 686.77 60.24ZM686.94 59.13Q687.74 59.13 688.33 58.85Q688.92 58.57 689.28 58.08Q689.64 57.6 689.75 57.0Q689.85 56.59 689.87 56.1Q689.88 55.61 689.88 55.35L690.35 55.57Q689.7 55.66 689.01 55.75Q688.33 55.83 687.69 55.93Q687.05 56.03 686.54 56.17Q686.18 56.28 685.85 56.46Q685.53 56.65 685.33 56.94Q685.12 57.23 685.12 57.67Q685.12 58.03 685.3 58.37Q685.49 58.71 685.89 58.92Q686.29 59.13 686.94 59.13ZM695.59 60.0 692.45 51.36H693.77L696.25 58.32L698.73 51.36H700.06L696.92 60.0ZM703.96 60.24Q702.99 60.24 702.33 59.89Q701.68 59.53 701.35 58.95Q701.02 58.36 701.02 57.67Q701.02 56.98 701.29 56.48Q701.56 55.98 702.04 55.66Q702.53 55.33 703.18 55.15Q703.81 54.99 704.59 54.86Q705.37 54.74 706.15 54.64Q706.92 54.54 707.55 54.45L707.08 54.72Q707.11 53.51 706.61 52.92Q706.11 52.34 704.87 52.34Q704.03 52.34 703.43 52.72Q702.83 53.1 702.59 53.93L701.34 53.55Q701.64 52.41 702.54 51.76Q703.44 51.12 704.89 51.12Q706.06 51.12 706.9 51.55Q707.74 51.98 708.09 52.83Q708.27 53.21 708.31 53.68Q708.36 54.15 708.36 54.65V60.0H707.21V57.88L707.51 58.04Q707.04 59.12 706.14 59.68Q705.24 60.24 703.96 60.24ZM704.14 59.13Q704.93 59.13 705.52 58.85Q706.11 58.57 706.47 58.08Q706.83 57.6 706.94 57.0Q707.05 56.59 707.06 56.1Q707.07 55.61 707.07 55.35L707.54 55.57Q706.89 55.66 706.21 55.75Q705.52 55.83 704.88 55.93Q704.24 56.03 703.73 56.17Q703.37 56.28 703.05 56.46Q702.72 56.65 702.52 56.94Q702.31 57.23 702.31 57.67Q702.31 58.03 702.5 58.37Q702.68 58.71 703.08 58.92Q703.48 59.13 704.14 59.13ZM714.49 60.24Q713.27 60.24 712.3 59.83Q711.33 59.42 710.7 58.66Q710.06 57.9 709.87 56.86L711.21 56.65Q711.49 57.75 712.4 58.38Q713.3 59.0 714.55 59.0Q715.36 59.0 716.01 58.74Q716.66 58.49 717.03 58.01Q717.41 57.54 717.41 56.89Q717.41 56.47 717.26 56.17Q717.12 55.88 716.87 55.67Q716.63 55.47 716.33 55.34Q716.02 55.2 715.72 55.11L712.79 54.24Q712.29 54.09 711.84 53.86Q711.39 53.64 711.05 53.3Q710.71 52.97 710.51 52.51Q710.32 52.05 710.32 51.44Q710.32 50.45 710.84 49.73Q711.36 49.01 712.26 48.63Q713.16 48.24 714.3 48.25Q715.46 48.25 716.37 48.66Q717.28 49.07 717.88 49.82Q718.48 50.57 718.68 51.61L717.31 51.85Q717.19 51.13 716.76 50.6Q716.34 50.07 715.7 49.78Q715.06 49.49 714.29 49.49Q713.55 49.48 712.96 49.73Q712.38 49.97 712.03 50.4Q711.69 50.84 711.69 51.39Q711.69 51.95 712.0 52.28Q712.32 52.62 712.78 52.82Q713.24 53.01 713.67 53.13L715.9 53.78Q716.26 53.88 716.75 54.06Q717.23 54.25 717.69 54.58Q718.15 54.91 718.45 55.45Q718.75 55.99 718.75 56.82Q718.75 57.64 718.42 58.28Q718.1 58.92 717.52 59.35Q716.93 59.79 716.16 60.01Q715.39 60.24 714.49 60.24ZM724.03 60.24Q722.71 60.24 721.81 59.65Q720.9 59.07 720.42 58.04Q719.95 57.01 719.93 55.68Q719.95 54.33 720.43 53.3Q720.92 52.27 721.83 51.7Q722.74 51.12 724.04 51.12Q725.38 51.12 726.36 51.78Q727.34 52.43 727.68 53.57L726.4 53.97Q726.11 53.2 725.48 52.78Q724.84 52.36 724.03 52.36Q723.1 52.36 722.51 52.78Q721.91 53.21 721.61 53.96Q721.32 54.71 721.31 55.68Q721.33 57.18 722.01 58.09Q722.69 59.0 724.03 59.0Q724.89 59.0 725.48 58.6Q726.07 58.21 726.37 57.45L727.68 57.81Q727.22 58.99 726.28 59.62Q725.34 60.24 724.03 60.24ZM729.33 60.0V51.36H730.49V53.44L730.29 53.17Q730.44 52.78 730.67 52.45Q730.91 52.12 731.2 51.91Q731.53 51.63 731.97 51.48Q732.41 51.33 732.85 51.3Q733.3 51.27 733.68 51.36V52.58Q733.22 52.46 732.67 52.52Q732.12 52.58 731.66 52.94Q731.24 53.26 731.02 53.7Q730.8 54.15 730.72 54.65Q730.64 55.16 730.64 55.68V60.0ZM735.36 49.78V48.38H736.66V49.78ZM735.36 60.0V51.36H736.66V60.0ZM742.99 60.24Q741.78 60.24 740.95 59.64Q740.13 59.03 739.7 58.0Q739.27 56.96 739.27 55.67Q739.27 54.37 739.7 53.34Q740.13 52.31 740.96 51.71Q741.8 51.12 743.01 51.12Q744.21 51.12 745.06 51.72Q745.92 52.32 746.38 53.35Q746.84 54.38 746.84 55.67Q746.84 56.97 746.38 58.0Q745.92 59.04 745.06 59.64Q744.2 60.24 742.99 60.24ZM739.06 63.84V51.36H740.22V57.79H740.36V63.84ZM742.84 59.04Q743.72 59.04 744.3 58.6Q744.88 58.15 745.17 57.39Q745.46 56.62 745.46 55.67Q745.46 54.73 745.17 53.97Q744.88 53.21 744.3 52.76Q743.71 52.32 742.81 52.32Q741.93 52.32 741.36 52.74Q740.79 53.17 740.5 53.93Q740.22 54.69 740.22 55.67Q740.22 56.65 740.5 57.41Q740.78 58.17 741.36 58.61Q741.94 59.04 742.84 59.04ZM753.36 60.0Q752.61 60.15 751.88 60.12Q751.16 60.1 750.59 59.82Q750.02 59.55 749.72 58.97Q749.48 58.47 749.46 57.96Q749.44 57.45 749.44 56.8V48.96H750.74V56.75Q750.74 57.29 750.75 57.66Q750.76 58.02 750.91 58.3Q751.2 58.83 751.83 58.92Q752.45 59.01 753.36 58.87ZM747.64 52.45V51.36H753.36V52.45Z" /></g></g><path d="M24 86h752" stroke="#28352f" /><g><g data-text="FRAMEWORKS" data-family="mono" data-size="14.0" data-weight="500.0" data-spacing="0.15" data-x="24.0" data-y="114.0" data-anchor="start" fill="#9bd8bc"><path d="M25.23 114.0V103.77H31.41V105.16H26.71V108.22H31.05V109.62H26.74V114.0ZM33.72 114.0V103.78H36.93Q37.89 103.78 38.61 104.15Q39.33 104.53 39.73 105.2Q40.12 105.87 40.12 106.77Q40.12 107.79 39.6 108.55Q39.08 109.3 38.18 109.6L40.26 114.0H38.54L36.67 109.8H35.23V114.0ZM35.23 108.46H36.93Q37.69 108.46 38.13 108.01Q38.58 107.56 38.58 106.8Q38.58 106.02 38.13 105.57Q37.69 105.12 36.93 105.12H35.23ZM41.7 114.0 44.31 103.78H46.29L48.9 114.0H47.37L46.75 111.41H43.86L43.24 114.0ZM44.14 110.16H46.46L45.76 107.21Q45.58 106.43 45.46 105.85Q45.34 105.27 45.3 105.05Q45.26 105.27 45.15 105.84Q45.03 106.42 44.84 107.2ZM50.57 114.0V103.78H52.44L53.46 107.06Q53.62 107.52 53.73 107.95Q53.84 108.37 53.88 108.58Q53.94 108.37 54.04 107.95Q54.14 107.52 54.28 107.05L55.26 103.78H57.13V114.0H55.69V110.56Q55.69 109.9 55.73 109.1Q55.77 108.29 55.84 107.47Q55.9 106.64 55.98 105.9Q56.05 105.15 56.11 104.6L54.6 109.56H53.13L51.6 104.6Q51.67 105.14 51.74 105.86Q51.81 106.58 51.87 107.39Q51.92 108.21 51.97 109.02Q52.01 109.84 52.01 110.56V114.0ZM59.52 114.0V103.78H65.52V105.12H61.01V108.02H65.03V109.36H61.01V112.66H65.52V114.0ZM68.15 114.0 67.04 103.78H68.4L69.09 111.12Q69.11 111.4 69.14 111.73Q69.16 112.07 69.18 112.39Q69.2 112.71 69.2 112.94Q69.23 112.71 69.26 112.39Q69.28 112.07 69.32 111.73Q69.36 111.4 69.39 111.12L70.28 103.78H71.67L72.5 111.12Q72.54 111.4 72.57 111.73Q72.61 112.07 72.65 112.39Q72.69 112.71 72.7 112.94Q72.72 112.71 72.74 112.39Q72.76 112.07 72.78 111.73Q72.81 111.4 72.84 111.12L73.54 103.78H74.86L73.71 114.0H71.95L71.14 106.57Q71.11 106.28 71.08 105.95Q71.04 105.61 71.02 105.3Q70.99 104.99 70.97 104.78Q70.96 104.99 70.92 105.3Q70.89 105.61 70.86 105.95Q70.83 106.28 70.8 106.57L69.91 114.0ZM79.5 114.14Q78.55 114.14 77.85 113.78Q77.16 113.42 76.79 112.75Q76.41 112.07 76.41 111.16V106.62Q76.41 105.7 76.79 105.03Q77.16 104.36 77.85 104.0Q78.55 103.64 79.5 103.64Q80.46 103.64 81.15 104.0Q81.84 104.36 82.21 105.03Q82.59 105.7 82.59 106.61V111.16Q82.59 112.07 82.21 112.75Q81.84 113.42 81.15 113.78Q80.46 114.14 79.5 114.14ZM79.5 112.8Q80.27 112.8 80.67 112.37Q81.07 111.95 81.07 111.16V106.62Q81.07 105.83 80.67 105.4Q80.27 104.98 79.5 104.98Q78.74 104.98 78.33 105.4Q77.93 105.83 77.93 106.62V111.16Q77.93 111.95 78.33 112.37Q78.74 112.8 79.5 112.8ZM85.02 114.0V103.78H88.23Q89.19 103.78 89.91 104.15Q90.63 104.53 91.03 105.2Q91.42 105.87 91.42 106.77Q91.42 107.79 90.9 108.55Q90.38 109.3 89.48 109.6L91.56 114.0H89.84L87.97 109.8H86.53V114.0ZM86.53 108.46H88.23Q88.99 108.46 89.43 108.01Q89.88 107.56 89.88 106.8Q89.88 106.02 89.43 105.57Q88.99 105.12 88.23 105.12H86.53ZM93.57 114.0V103.78H95.09V108.04H96.44L98.53 103.78H100.18L97.78 108.69L100.3 114.0H98.6L96.41 109.39H95.09V114.0ZM105.19 114.14Q104.16 114.14 103.42 113.8Q102.67 113.45 102.27 112.81Q101.86 112.17 101.85 111.3H103.36Q103.36 111.99 103.85 112.4Q104.34 112.8 105.2 112.8Q106.02 112.8 106.48 112.41Q106.94 112.02 106.94 111.32Q106.94 110.76 106.62 110.34Q106.31 109.92 105.72 109.76L104.44 109.38Q103.32 109.06 102.7 108.28Q102.09 107.5 102.09 106.43Q102.09 105.58 102.47 104.95Q102.86 104.33 103.56 103.98Q104.25 103.63 105.2 103.63Q106.61 103.63 107.46 104.39Q108.3 105.14 108.31 106.41H106.8Q106.8 105.74 106.38 105.35Q105.95 104.97 105.18 104.97Q104.43 104.97 104.02 105.33Q103.6 105.68 103.6 106.32Q103.6 106.9 103.92 107.32Q104.23 107.74 104.81 107.91L106.12 108.3Q107.24 108.61 107.84 109.39Q108.45 110.17 108.45 111.27Q108.45 112.13 108.04 112.78Q107.63 113.42 106.9 113.78Q106.17 114.14 105.19 114.14Z" /></g></g><svg x="24.0" y="132" width="18" height="18" viewBox="0 0 24 24" fill="#a7b2bc"><path d="m23.693 10.7058-4.73-8.1844c-.4094-.7106-1.4166-1.2942-2.2402-1.2942H7.2725c-.819 0-1.8308.5836-2.2402 1.2942L.307 10.7058c-.4095.7106-.4095 1.873 0 2.5837l4.7252 8.189c.4094.7107 1.4166 1.2943 2.2402 1.2943h9.455c.819 0 1.826-.5836 2.2402-1.2942l4.7252-8.189c.4095-.7107.4095-1.8732 0-2.5838zM10.9763 5.7547c0-.5365.4377-.9742.9742-.9742s.9742.4377.9742.9742v5.8217c0 .5366-.4377.9742-.9742.9742s-.9742-.4376-.9742-.9742zm.9742 12.4294c-3.6427 0-6.6077-2.965-6.6077-6.6077.0047-2.0896.993-4.0521 2.6685-5.304a.8657.8657 0 0 1 1.2142.1788.8657.8657 0 0 1-.1788 1.2143c-2.1602 1.6048-2.612 4.6592-1.0072 6.8194 1.6049 2.1603 4.6593 2.612 6.8195 1.0072 1.2378-.9177 1.9673-2.372 1.9673-3.9157a4.8972 4.8972 0 0 0-1.9861-3.925c-.386-.2824-.466-.8284-.1836-1.2143.2824-.386.8283-.466 1.2143-.1835 1.6895 1.2471 2.6826 3.2238 2.6873 5.3228 0 3.6474-2.965 6.6077-6.6077 6.6077z" /></svg><g><g data-text="Spring Boot" data-family="sans" data-size="16.0" data-weight="550.0" data-spacing="0.0" data-x="49.0" data-y="146.0" data-anchor="start" fill="#e6edf3"><path d="M54.25 146.24Q53.02 146.24 52.03 145.82Q51.04 145.4 50.4 144.61Q49.76 143.83 49.57 142.75L51.18 142.5Q51.45 143.58 52.31 144.18Q53.17 144.77 54.34 144.77Q55.07 144.77 55.68 144.54Q56.28 144.31 56.65 143.88Q57.01 143.45 57.01 142.84Q57.01 142.5 56.89 142.24Q56.77 141.98 56.56 141.79Q56.35 141.61 56.07 141.47Q55.79 141.34 55.48 141.24L52.54 140.37Q52.08 140.24 51.63 140.03Q51.19 139.81 50.82 139.48Q50.46 139.15 50.24 138.67Q50.02 138.19 50.02 137.52Q50.02 136.47 50.56 135.74Q51.1 135.01 52.02 134.63Q52.94 134.24 54.1 134.25Q55.26 134.26 56.18 134.66Q57.1 135.06 57.71 135.81Q58.32 136.57 58.54 137.62L56.89 137.91Q56.77 137.23 56.37 136.74Q55.97 136.25 55.37 135.99Q54.78 135.72 54.08 135.71Q53.4 135.71 52.86 135.93Q52.31 136.15 51.98 136.54Q51.66 136.93 51.66 137.44Q51.66 137.95 51.95 138.26Q52.24 138.57 52.67 138.75Q53.09 138.93 53.51 139.04L55.67 139.66Q56.06 139.77 56.56 139.95Q57.06 140.14 57.53 140.47Q58.0 140.81 58.31 141.36Q58.62 141.91 58.62 142.75Q58.62 143.6 58.27 144.25Q57.93 144.91 57.33 145.35Q56.72 145.79 55.94 146.01Q55.15 146.24 54.25 146.24ZM64.32 146.24Q63.09 146.24 62.26 145.64Q61.42 145.03 60.99 144.0Q60.56 142.97 60.56 141.67Q60.56 140.37 60.99 139.34Q61.42 138.31 62.25 137.72Q63.09 137.12 64.31 137.12Q65.52 137.12 66.39 137.72Q67.27 138.31 67.74 139.34Q68.21 140.37 68.21 141.67Q68.21 142.97 67.74 144.0Q67.27 145.04 66.4 145.64Q65.53 146.24 64.32 146.24ZM60.3 149.84V137.36H61.68V143.65H61.86V149.84ZM64.12 144.83Q64.94 144.83 65.49 144.41Q66.03 143.99 66.3 143.28Q66.57 142.56 66.57 141.67Q66.57 140.79 66.3 140.08Q66.03 139.37 65.48 138.95Q64.93 138.53 64.07 138.53Q63.25 138.53 62.72 138.93Q62.19 139.33 61.94 140.04Q61.68 140.75 61.68 141.67Q61.68 142.59 61.94 143.31Q62.19 144.02 62.73 144.43Q63.27 144.83 64.12 144.83ZM69.97 146.0V137.36H71.35V139.45L71.15 139.18Q71.3 138.77 71.55 138.43Q71.8 138.09 72.12 137.87Q72.45 137.61 72.87 137.48Q73.28 137.34 73.71 137.31Q74.15 137.28 74.53 137.36V138.81Q74.1 138.7 73.57 138.75Q73.04 138.8 72.6 139.11Q72.19 139.39 71.96 139.79Q71.72 140.19 71.63 140.67Q71.53 141.14 71.53 141.65V146.0ZM76.21 135.89V134.34H77.76V135.89ZM76.21 146.0V137.36H77.76V146.0ZM86.27 146.0V141.71Q86.27 141.15 86.17 140.6Q86.08 140.05 85.82 139.6Q85.57 139.14 85.13 138.87Q84.69 138.6 84.01 138.6Q83.51 138.6 83.09 138.76Q82.68 138.93 82.37 139.28Q82.06 139.63 81.89 140.17Q81.72 140.71 81.72 141.48L80.73 141.14Q80.73 139.92 81.18 139.02Q81.62 138.12 82.45 137.63Q83.27 137.13 84.41 137.13Q85.27 137.13 85.88 137.41Q86.48 137.69 86.86 138.14Q87.25 138.59 87.46 139.13Q87.67 139.68 87.76 140.22Q87.84 140.77 87.84 141.21V146.0ZM80.15 146.0V137.36H81.54V139.76H81.72V146.0ZM93.45 150.08Q92.76 150.08 92.11 149.87Q91.46 149.66 90.92 149.24Q90.38 148.82 90.03 148.19L91.45 147.45Q91.75 148.05 92.3 148.32Q92.86 148.59 93.46 148.59Q94.22 148.59 94.75 148.31Q95.27 148.03 95.53 147.49Q95.79 146.94 95.79 146.13V143.74H95.97V137.36H97.34V146.15Q97.34 146.5 97.32 146.81Q97.3 147.13 97.23 147.45Q97.06 148.35 96.55 148.93Q96.04 149.51 95.25 149.79Q94.47 150.08 93.45 150.08ZM93.33 146.24Q92.12 146.24 91.25 145.64Q90.38 145.04 89.91 144.0Q89.44 142.97 89.44 141.67Q89.44 140.37 89.91 139.34Q90.38 138.31 91.26 137.72Q92.13 137.12 93.34 137.12Q94.56 137.12 95.4 137.72Q96.23 138.31 96.66 139.34Q97.09 140.37 97.09 141.67Q97.09 142.97 96.66 144.0Q96.23 145.03 95.39 145.64Q94.56 146.24 93.33 146.24ZM93.53 144.83Q94.38 144.83 94.92 144.43Q95.46 144.02 95.72 143.31Q95.97 142.59 95.97 141.67Q95.97 140.75 95.71 140.04Q95.46 139.33 94.93 138.93Q94.4 138.53 93.58 138.53Q92.73 138.53 92.17 138.95Q91.62 139.37 91.35 140.08Q91.08 140.79 91.08 141.67Q91.08 142.56 91.35 143.28Q91.62 143.99 92.16 144.41Q92.71 144.83 93.53 144.83ZM102.78 146.0V134.48H107.29Q108.35 134.48 109.09 134.92Q109.83 135.35 110.21 136.05Q110.59 136.75 110.59 137.55Q110.59 138.49 110.12 139.18Q109.64 139.87 108.84 140.13L108.83 139.74Q109.93 140.02 110.54 140.81Q111.14 141.6 111.14 142.67Q111.14 143.68 110.73 144.43Q110.32 145.18 109.55 145.59Q108.78 146.0 107.71 146.0ZM104.35 144.53H107.44Q108.04 144.53 108.52 144.3Q109.0 144.07 109.28 143.65Q109.55 143.24 109.55 142.65Q109.55 142.1 109.31 141.66Q109.06 141.22 108.62 140.96Q108.17 140.69 107.57 140.69H104.35ZM104.35 139.24H107.27Q107.76 139.24 108.15 139.03Q108.54 138.83 108.77 138.45Q109.0 138.07 109.0 137.55Q109.0 136.85 108.53 136.39Q108.05 135.94 107.27 135.94H104.35ZM116.45 146.24Q115.15 146.24 114.21 145.66Q113.27 145.07 112.76 144.04Q112.25 143.01 112.25 141.67Q112.25 140.32 112.77 139.29Q113.29 138.27 114.24 137.69Q115.18 137.12 116.45 137.12Q117.75 137.12 118.69 137.7Q119.63 138.28 120.14 139.31Q120.65 140.34 120.65 141.67Q120.65 143.03 120.14 144.06Q119.62 145.08 118.68 145.66Q117.73 146.24 116.45 146.24ZM116.45 144.77Q117.74 144.77 118.37 143.91Q119.01 143.05 119.01 141.67Q119.01 140.26 118.37 139.43Q117.73 138.59 116.45 138.59Q115.58 138.59 115.01 138.98Q114.45 139.37 114.17 140.07Q113.9 140.76 113.9 141.67Q113.9 143.08 114.54 143.93Q115.19 144.77 116.45 144.77ZM126.13 146.24Q124.83 146.24 123.89 145.66Q122.95 145.07 122.44 144.04Q121.93 143.01 121.93 141.67Q121.93 140.32 122.45 139.29Q122.97 138.27 123.91 137.69Q124.86 137.12 126.13 137.12Q127.42 137.12 128.37 137.7Q129.31 138.28 129.82 139.31Q130.33 140.34 130.33 141.67Q130.33 143.03 129.82 144.06Q129.3 145.08 128.36 145.66Q127.41 146.24 126.13 146.24ZM126.13 144.77Q127.42 144.77 128.05 143.91Q128.69 143.05 128.69 141.67Q128.69 140.26 128.05 139.43Q127.41 138.59 126.13 138.59Q125.25 138.59 124.69 138.98Q124.13 139.37 123.85 140.07Q123.58 140.76 123.58 141.67Q123.58 143.08 124.22 143.93Q124.87 144.77 126.13 144.77ZM136.97 146.0Q136.18 146.16 135.42 146.13Q134.65 146.1 134.05 145.83Q133.45 145.55 133.14 144.95Q132.87 144.43 132.86 143.89Q132.84 143.36 132.84 142.67V134.96H134.39V142.59Q134.39 143.12 134.4 143.5Q134.41 143.88 134.56 144.15Q134.85 144.65 135.48 144.73Q136.11 144.81 136.97 144.68ZM131.13 138.62V137.36H136.97V138.62Z" /></g></g><svg x="212.0" y="132" width="18" height="18" viewBox="0 0 24 24" fill="#a7b2bc"><path d="M14.23 12.004a2.236 2.236 0 0 1-2.235 2.236 2.236 2.236 0 0 1-2.236-2.236 2.236 2.236 0 0 1 2.235-2.236 2.236 2.236 0 0 1 2.236 2.236zm2.648-10.69c-1.346 0-3.107.96-4.888 2.622-1.78-1.653-3.542-2.602-4.887-2.602-.41 0-.783.093-1.106.278-1.375.793-1.683 3.264-.973 6.365C1.98 8.917 0 10.42 0 12.004c0 1.59 1.99 3.097 5.043 4.03-.704 3.113-.39 5.588.988 6.38.32.187.69.275 1.102.275 1.345 0 3.107-.96 4.888-2.624 1.78 1.654 3.542 2.603 4.887 2.603.41 0 .783-.09 1.106-.275 1.374-.792 1.683-3.263.973-6.365C22.02 15.096 24 13.59 24 12.004c0-1.59-1.99-3.097-5.043-4.032.704-3.11.39-5.587-.988-6.38-.318-.184-.688-.277-1.092-.278zm-.005 1.09v.006c.225 0 .406.044.558.127.666.382.955 1.835.73 3.704-.054.46-.142.945-.25 1.44-.96-.236-2.006-.417-3.107-.534-.66-.905-1.345-1.727-2.035-2.447 1.592-1.48 3.087-2.292 4.105-2.295zm-9.77.02c1.012 0 2.514.808 4.11 2.28-.686.72-1.37 1.537-2.02 2.442-1.107.117-2.154.298-3.113.538-.112-.49-.195-.964-.254-1.42-.23-1.868.054-3.32.714-3.707.19-.09.4-.127.563-.132zm4.882 3.05c.455.468.91.992 1.36 1.564-.44-.02-.89-.034-1.345-.034-.46 0-.915.01-1.36.034.44-.572.895-1.096 1.345-1.565zM12 8.1c.74 0 1.477.034 2.202.093.406.582.802 1.203 1.183 1.86.372.64.71 1.29 1.018 1.946-.308.655-.646 1.31-1.013 1.95-.38.66-.773 1.288-1.18 1.87-.728.063-1.466.098-2.21.098-.74 0-1.477-.035-2.202-.093-.406-.582-.802-1.204-1.183-1.86-.372-.64-.71-1.29-1.018-1.946.303-.657.646-1.313 1.013-1.954.38-.66.773-1.286 1.18-1.868.728-.064 1.466-.098 2.21-.098zm-3.635.254c-.24.377-.48.763-.704 1.16-.225.39-.435.782-.635 1.174-.265-.656-.49-1.31-.676-1.947.64-.15 1.315-.283 2.015-.386zm7.26 0c.695.103 1.365.23 2.006.387-.18.632-.405 1.282-.66 1.933-.2-.39-.41-.783-.64-1.174-.225-.392-.465-.774-.705-1.146zm3.063.675c.484.15.944.317 1.375.498 1.732.74 2.852 1.708 2.852 2.476-.005.768-1.125 1.74-2.857 2.475-.42.18-.88.342-1.355.493-.28-.958-.646-1.956-1.1-2.98.45-1.017.81-2.01 1.085-2.964zm-13.395.004c.278.96.645 1.957 1.1 2.98-.45 1.017-.812 2.01-1.086 2.964-.484-.15-.944-.318-1.37-.5-1.732-.737-2.852-1.706-2.852-2.474 0-.768 1.12-1.742 2.852-2.476.42-.18.88-.342 1.356-.494zm11.678 4.28c.265.657.49 1.312.676 1.948-.64.157-1.316.29-2.016.39.24-.375.48-.762.705-1.158.225-.39.435-.788.636-1.18zm-9.945.02c.2.392.41.783.64 1.175.23.39.465.772.705 1.143-.695-.102-1.365-.23-2.006-.386.18-.63.406-1.282.66-1.933zM17.92 16.32c.112.493.2.968.254 1.423.23 1.868-.054 3.32-.714 3.708-.147.09-.338.128-.563.128-1.012 0-2.514-.807-4.11-2.28.686-.72 1.37-1.536 2.02-2.44 1.107-.118 2.154-.3 3.113-.54zm-11.83.01c.96.234 2.006.415 3.107.532.66.905 1.345 1.727 2.035 2.446-1.595 1.483-3.092 2.295-4.11 2.295-.22-.005-.406-.05-.553-.132-.666-.38-.955-1.834-.73-3.703.054-.46.142-.944.25-1.438zm4.56.64c.44.02.89.034 1.345.034.46 0 .915-.01 1.36-.034-.44.572-.895 1.095-1.345 1.565-.455-.47-.91-.993-1.36-1.565z" /></svg><g><g data-text="React" data-family="sans" data-size="16.0" data-weight="550.0" data-spacing="0.0" data-x="237.0" data-y="146.0" data-anchor="start" fill="#e6edf3"><path d="M238.12 146.0V134.48H242.72Q242.89 134.48 243.13 134.49Q243.37 134.5 243.59 134.54Q244.54 134.69 245.18 135.19Q245.82 135.69 246.14 136.46Q246.46 137.22 246.46 138.14Q246.46 139.5 245.76 140.49Q245.06 141.47 243.68 141.72L243.07 141.8H239.67V146.0ZM244.92 146.0 242.64 141.31 244.19 140.88 246.69 146.0ZM239.67 140.34H242.67Q242.82 140.34 243.02 140.32Q243.21 140.31 243.39 140.26Q243.92 140.14 244.25 139.81Q244.58 139.48 244.73 139.03Q244.88 138.59 244.88 138.14Q244.88 137.69 244.73 137.25Q244.58 136.81 244.25 136.47Q243.92 136.14 243.39 136.02Q243.21 135.97 243.02 135.96Q242.82 135.95 242.67 135.95H239.67ZM252.24 146.24Q250.95 146.24 249.99 145.68Q249.03 145.11 248.5 144.1Q247.97 143.09 247.97 141.75Q247.97 140.33 248.49 139.29Q249.02 138.25 249.96 137.69Q250.9 137.12 252.16 137.12Q253.47 137.12 254.39 137.73Q255.32 138.33 255.78 139.45Q256.24 140.57 256.16 142.11H254.6V141.55Q254.58 140.01 253.99 139.25Q253.4 138.5 252.22 138.5Q250.93 138.5 250.27 139.32Q249.61 140.14 249.61 141.68Q249.61 143.15 250.27 143.96Q250.93 144.77 252.16 144.77Q252.98 144.77 253.58 144.4Q254.19 144.03 254.53 143.33L256.03 143.82Q255.52 144.97 254.51 145.61Q253.49 146.24 252.24 146.24ZM249.1 142.11V140.89H255.37V142.11ZM260.39 146.24Q259.43 146.24 258.77 145.89Q258.12 145.53 257.79 144.94Q257.46 144.36 257.46 143.66Q257.46 142.99 257.71 142.49Q257.95 141.99 258.42 141.65Q258.88 141.31 259.54 141.11Q260.14 140.94 260.88 140.81Q261.63 140.69 262.42 140.58Q263.21 140.48 263.95 140.37L263.39 140.69Q263.41 139.6 262.95 139.08Q262.49 138.56 261.35 138.56Q260.62 138.56 260.04 138.89Q259.46 139.23 259.23 139.99L257.78 139.55Q258.09 138.42 258.99 137.77Q259.89 137.12 261.37 137.12Q262.54 137.12 263.39 137.53Q264.24 137.94 264.62 138.79Q264.82 139.2 264.87 139.67Q264.92 140.14 264.92 140.67V146.0H263.55V143.98L263.84 144.2Q263.33 145.22 262.47 145.73Q261.62 146.24 260.39 146.24ZM260.65 144.96Q261.39 144.96 261.92 144.7Q262.46 144.43 262.79 144.01Q263.12 143.59 263.22 143.11Q263.34 142.72 263.36 142.23Q263.38 141.74 263.38 141.47L263.9 141.68Q263.15 141.79 262.49 141.88Q261.83 141.97 261.27 142.06Q260.71 142.16 260.27 142.29Q259.92 142.41 259.63 142.58Q259.34 142.75 259.17 143.01Q259.0 143.27 259.0 143.64Q259.0 143.99 259.17 144.29Q259.34 144.59 259.71 144.78Q260.07 144.96 260.65 144.96ZM270.66 146.24Q269.34 146.24 268.42 145.65Q267.5 145.06 267.01 144.03Q266.53 143.0 266.52 141.68Q266.53 140.34 267.02 139.31Q267.52 138.28 268.45 137.7Q269.38 137.12 270.68 137.12Q272.07 137.12 273.07 137.81Q274.07 138.5 274.4 139.69L272.86 140.14Q272.6 139.4 272.01 138.99Q271.42 138.59 270.66 138.59Q269.81 138.59 269.26 138.98Q268.7 139.38 268.43 140.08Q268.17 140.78 268.16 141.68Q268.17 143.07 268.8 143.92Q269.43 144.77 270.66 144.77Q271.49 144.77 272.02 144.4Q272.55 144.02 272.83 143.3L274.4 143.69Q273.96 144.93 273.0 145.58Q272.03 146.24 270.66 146.24ZM280.91 146.0Q280.12 146.16 279.36 146.13Q278.59 146.1 277.99 145.83Q277.39 145.55 277.08 144.95Q276.81 144.43 276.8 143.89Q276.78 143.36 276.78 142.67V134.96H278.33V142.59Q278.33 143.12 278.34 143.5Q278.35 143.88 278.5 144.15Q278.79 144.65 279.42 144.73Q280.05 144.81 280.91 144.68ZM275.07 138.62V137.36H280.91V138.62Z" /></g></g><svg x="400.0" y="132" width="18" height="18" viewBox="0 0 24 24" fill="#a7b2bc"><path d="M18.665 21.978C16.758 23.255 14.465 24 12 24 5.377 24 0 18.623 0 12S5.377 0 12 0s12 5.377 12 12c0 3.583-1.574 6.801-4.067 9.001L9.219 7.2H7.2v9.596h1.615V9.251l9.85 12.727Zm-3.332-8.533 1.6 2.061V7.2h-1.6v6.245Z" /></svg><g><g data-text="Next.js" data-family="sans" data-size="16.0" data-weight="550.0" data-spacing="0.0" data-x="425.0" data-y="146.0" data-anchor="start" fill="#e6edf3"><path d="M426.12 146.0V134.48H427.69L433.53 143.26V134.48H435.1V146.0H433.53L427.69 137.21V146.0ZM441.13 146.24Q439.84 146.24 438.88 145.68Q437.92 145.11 437.39 144.1Q436.86 143.09 436.86 141.75Q436.86 140.33 437.38 139.29Q437.91 138.25 438.85 137.69Q439.79 137.12 441.05 137.12Q442.36 137.12 443.28 137.73Q444.21 138.33 444.67 139.45Q445.13 140.57 445.05 142.11H443.49V141.55Q443.47 140.01 442.88 139.25Q442.29 138.5 441.11 138.5Q439.82 138.5 439.16 139.32Q438.5 140.14 438.5 141.68Q438.5 143.15 439.16 143.96Q439.82 144.77 441.05 144.77Q441.87 144.77 442.47 144.4Q443.08 144.03 443.42 143.33L444.92 143.82Q444.42 144.97 443.4 145.61Q442.38 146.24 441.13 146.24ZM437.99 142.11V140.89H444.26V142.11ZM445.87 146.0 449.14 141.63 445.94 137.36H447.78L450.04 140.43L452.28 137.36H454.12L450.92 141.63L454.2 146.0H452.35L450.04 142.84L447.72 146.0ZM460.36 146.0Q459.57 146.16 458.81 146.13Q458.04 146.1 457.44 145.83Q456.84 145.55 456.53 144.95Q456.26 144.43 456.24 143.89Q456.23 143.36 456.23 142.67V134.96H457.77V142.59Q457.77 143.12 457.79 143.5Q457.8 143.88 457.95 144.15Q458.24 144.65 458.87 144.73Q459.5 144.81 460.36 144.68ZM454.52 138.62V137.36H460.36V138.62ZM462.42 146.0V144.33H464.09V146.0ZM465.32 149.84V148.37H465.77Q466.42 148.37 466.74 148.05Q467.06 147.74 467.06 147.07V137.36H468.61V147.65Q468.61 148.71 468.04 149.28Q467.48 149.84 466.4 149.84ZM467.06 135.89V134.34H468.61V135.89ZM474.2 146.23Q472.63 146.23 471.64 145.55Q470.66 144.86 470.43 143.62L472.02 143.37Q472.19 144.06 472.79 144.46Q473.4 144.86 474.3 144.86Q475.13 144.86 475.61 144.52Q476.08 144.18 476.08 143.58Q476.08 143.23 475.92 143.02Q475.76 142.8 475.25 142.61Q474.74 142.42 473.7 142.14Q472.57 141.84 471.92 141.51Q471.26 141.18 470.99 140.75Q470.71 140.31 470.71 139.68Q470.71 138.91 471.13 138.33Q471.54 137.75 472.29 137.44Q473.04 137.12 474.05 137.12Q475.04 137.12 475.81 137.43Q476.59 137.75 477.07 138.32Q477.54 138.89 477.64 139.65L476.05 139.94Q475.96 139.28 475.43 138.9Q474.9 138.52 474.06 138.49Q473.26 138.46 472.76 138.77Q472.26 139.08 472.26 139.6Q472.26 139.9 472.45 140.11Q472.64 140.32 473.16 140.52Q473.69 140.71 474.71 140.97Q475.82 141.25 476.47 141.59Q477.12 141.93 477.4 142.39Q477.68 142.86 477.68 143.53Q477.68 144.79 476.75 145.51Q475.83 146.23 474.2 146.23Z" /></g></g><svg x="588.0" y="132" width="18" height="18" viewBox="0 0 24 24" fill="#a7b2bc"><path d="M12 .0387C5.3729.0384.0003 5.3931 0 11.9988c-.001 6.6066 5.372 11.9628 12 11.9625 6.628.0003 12.001-5.3559 12-11.9625-.0003-6.6057-5.3729-11.9604-12-11.96m-.829 5.4153h7.55l-7.5805 5.3284h5.1828L5.279 18.5436q2.9466-6.5444 5.892-13.0896" /></svg><g><g data-text="FastAPI" data-family="sans" data-size="16.0" data-weight="550.0" data-spacing="0.0" data-x="613.0" data-y="146.0" data-anchor="start" fill="#e6edf3"><path d="M614.12 146.0V134.48H620.89V136.03H615.67V139.47H619.93V141.01H615.67V146.0ZM624.78 146.24Q623.82 146.24 623.17 145.89Q622.51 145.53 622.18 144.94Q621.85 144.36 621.85 143.66Q621.85 142.99 622.1 142.49Q622.34 141.99 622.81 141.65Q623.27 141.31 623.93 141.11Q624.53 140.94 625.27 140.81Q626.02 140.69 626.81 140.58Q627.61 140.48 628.34 140.37L627.79 140.69Q627.8 139.6 627.34 139.08Q626.88 138.56 625.75 138.56Q625.01 138.56 624.43 138.89Q623.86 139.23 623.63 139.99L622.17 139.55Q622.48 138.42 623.38 137.77Q624.28 137.12 625.76 137.12Q626.93 137.12 627.78 137.53Q628.63 137.94 629.02 138.79Q629.21 139.2 629.26 139.67Q629.31 140.14 629.31 140.67V146.0H627.94V143.98L628.23 144.2Q627.72 145.22 626.86 145.73Q626.01 146.24 624.78 146.24ZM625.04 144.96Q625.78 144.96 626.32 144.7Q626.85 144.43 627.18 144.01Q627.51 143.59 627.61 143.11Q627.74 142.72 627.75 142.23Q627.77 141.74 627.77 141.47L628.29 141.68Q627.55 141.79 626.88 141.88Q626.22 141.97 625.66 142.06Q625.1 142.16 624.66 142.29Q624.31 142.41 624.02 142.58Q623.73 142.75 623.56 143.01Q623.39 143.27 623.39 143.64Q623.39 143.99 623.56 144.29Q623.73 144.59 624.1 144.78Q624.46 144.96 625.04 144.96ZM634.67 146.23Q633.11 146.23 632.12 145.55Q631.13 144.86 630.91 143.62L632.49 143.37Q632.66 144.06 633.27 144.46Q633.87 144.86 634.77 144.86Q635.61 144.86 636.08 144.52Q636.56 144.18 636.56 143.58Q636.56 143.23 636.39 143.02Q636.23 142.8 635.72 142.61Q635.21 142.42 634.18 142.14Q633.05 141.84 632.39 141.51Q631.74 141.18 631.46 140.75Q631.18 140.31 631.18 139.68Q631.18 138.91 631.6 138.33Q632.02 137.75 632.77 137.44Q633.52 137.12 634.52 137.12Q635.51 137.12 636.29 137.43Q637.06 137.75 637.54 138.32Q638.02 138.89 638.11 139.65L636.53 139.94Q636.43 139.28 635.9 138.9Q635.37 138.52 634.53 138.49Q633.73 138.46 633.23 138.77Q632.74 139.08 632.74 139.6Q632.74 139.9 632.92 140.11Q633.11 140.32 633.64 140.52Q634.17 140.71 635.18 140.97Q636.29 141.25 636.94 141.59Q637.59 141.93 637.87 142.39Q638.15 142.86 638.15 143.53Q638.15 144.79 637.23 145.51Q636.3 146.23 634.67 146.23ZM644.8 146.0Q644.01 146.16 643.25 146.13Q642.48 146.1 641.88 145.83Q641.28 145.55 640.97 144.95Q640.7 144.43 640.68 143.89Q640.67 143.36 640.67 142.67V134.96H642.21V142.59Q642.21 143.12 642.23 143.5Q642.24 143.88 642.39 144.15Q642.68 144.65 643.31 144.73Q643.94 144.81 644.8 144.68ZM638.96 138.62V137.36H644.8V138.62ZM645.79 146.0 649.59 134.48H651.79L655.59 146.0H653.98L650.45 135.4H650.89L647.4 146.0ZM647.69 143.35V141.9H653.69V143.35ZM657.03 146.0V134.48H661.63Q661.8 134.48 662.04 134.49Q662.28 134.5 662.5 134.54Q663.44 134.69 664.08 135.19Q664.72 135.69 665.05 136.46Q665.37 137.22 665.37 138.14Q665.37 139.07 665.04 139.83Q664.72 140.59 664.08 141.09Q663.44 141.59 662.5 141.74Q662.28 141.77 662.03 141.79Q661.79 141.8 661.63 141.8H658.57V146.0ZM658.57 140.34H661.57Q661.73 140.34 661.92 140.32Q662.12 140.31 662.3 140.26Q662.83 140.14 663.16 139.81Q663.49 139.48 663.64 139.03Q663.79 138.59 663.79 138.14Q663.79 137.69 663.64 137.25Q663.49 136.81 663.16 136.47Q662.83 136.14 662.3 136.02Q662.12 135.97 661.92 135.96Q661.73 135.95 661.57 135.95H658.57ZM667.13 146.0V134.48H668.67V146.0Z" /></g></g><path d="M24 172h752" stroke="#28352f" /><g><g data-text="TOOLS &amp; DATA" data-family="mono" data-size="14.0" data-weight="500.0" data-spacing="0.15" data-x="24.0" data-y="200.0" data-anchor="start" fill="#a7b2bc"><path d="M27.44 200.0V191.16H24.71V189.77H31.69V191.16H28.96V200.0ZM36.75 200.14Q35.8 200.14 35.1 199.78Q34.41 199.42 34.04 198.75Q33.66 198.07 33.66 197.16V192.62Q33.66 191.7 34.04 191.03Q34.41 190.36 35.1 190.0Q35.8 189.64 36.75 189.64Q37.71 189.64 38.4 190.0Q39.09 190.36 39.46 191.03Q39.84 191.7 39.84 192.61V197.16Q39.84 198.07 39.46 198.75Q39.09 199.42 38.4 199.78Q37.71 200.14 36.75 200.14ZM36.75 198.8Q37.52 198.8 37.92 198.37Q38.32 197.95 38.32 197.16V192.62Q38.32 191.83 37.92 191.4Q37.52 190.98 36.75 190.98Q35.99 190.98 35.58 191.4Q35.18 191.83 35.18 192.62V197.16Q35.18 197.95 35.58 198.37Q35.99 198.8 36.75 198.8ZM45.3 200.14Q44.35 200.14 43.65 199.78Q42.96 199.42 42.59 198.75Q42.21 198.07 42.21 197.16V192.62Q42.21 191.7 42.59 191.03Q42.96 190.36 43.65 190.0Q44.35 189.64 45.3 189.64Q46.26 189.64 46.95 190.0Q47.64 190.36 48.01 191.03Q48.39 191.7 48.39 192.61V197.16Q48.39 198.07 48.01 198.75Q47.64 199.42 46.95 199.78Q46.26 200.14 45.3 200.14ZM45.3 198.8Q46.07 198.8 46.47 198.37Q46.87 197.95 46.87 197.16V192.62Q46.87 191.83 46.47 191.4Q46.07 190.98 45.3 190.98Q44.54 190.98 44.13 191.4Q43.73 191.83 43.73 192.62V197.16Q43.73 197.95 44.13 198.37Q44.54 198.8 45.3 198.8ZM51.18 200.0V189.78H52.69V198.61H57.16V200.0ZM62.44 200.14Q61.41 200.14 60.67 199.8Q59.92 199.45 59.52 198.81Q59.11 198.17 59.1 197.3H60.61Q60.61 197.99 61.1 198.4Q61.59 198.8 62.45 198.8Q63.27 198.8 63.73 198.41Q64.19 198.02 64.19 197.32Q64.19 196.76 63.87 196.34Q63.56 195.92 62.97 195.76L61.69 195.38Q60.57 195.06 59.95 194.28Q59.34 193.5 59.34 192.43Q59.34 191.58 59.72 190.95Q60.11 190.33 60.81 189.98Q61.5 189.63 62.45 189.63Q63.86 189.63 64.71 190.39Q65.55 191.14 65.56 192.41H64.05Q64.05 191.74 63.63 191.35Q63.2 190.97 62.43 190.97Q61.68 190.97 61.27 191.33Q60.85 191.68 60.85 192.32Q60.85 192.9 61.17 193.32Q61.48 193.74 62.06 193.91L63.37 194.3Q64.49 194.61 65.09 195.39Q65.7 196.17 65.7 197.27Q65.7 198.13 65.29 198.78Q64.88 199.42 64.15 199.78Q63.42 200.14 62.44 200.14ZM78.54 200.14Q77.33 200.14 76.66 199.48Q75.98 198.82 75.98 197.66V196.14Q75.98 195.3 76.41 194.75Q76.84 194.19 77.63 194.01L77.49 194.14Q77.06 193.54 76.84 193.0Q76.63 192.47 76.63 191.93Q76.63 191.24 76.96 190.73Q77.28 190.21 77.87 189.93Q78.45 189.64 79.23 189.64Q80.06 189.64 80.67 189.95Q81.28 190.25 81.61 190.8Q81.95 191.35 81.95 192.11H80.5Q80.5 191.74 80.34 191.47Q80.19 191.2 79.91 191.05Q79.63 190.91 79.23 190.91Q78.88 190.91 78.61 191.04Q78.34 191.18 78.2 191.43Q78.06 191.67 78.06 192.02Q78.06 192.36 78.22 192.77Q78.38 193.17 78.66 193.56L80.83 196.58L81.71 194.96H83.22L81.68 197.77L83.28 200.0H81.71L80.94 198.93Q79.94 200.14 78.54 200.14ZM78.65 198.85Q79.09 198.85 79.48 198.59Q79.88 198.32 80.16 197.85L78.17 195.08Q77.81 195.18 77.63 195.45Q77.45 195.71 77.45 196.14V197.66Q77.45 198.23 77.77 198.54Q78.08 198.85 78.65 198.85ZM93.57 200.0V189.78H96.41Q97.43 189.78 98.17 190.17Q98.91 190.55 99.32 191.25Q99.74 191.95 99.74 192.91V196.86Q99.74 197.81 99.32 198.52Q98.91 199.22 98.17 199.61Q97.43 200.0 96.41 200.0ZM95.08 198.63H96.41Q97.25 198.63 97.74 198.16Q98.22 197.68 98.22 196.86V192.91Q98.22 192.1 97.74 191.62Q97.25 191.15 96.41 191.15H95.08ZM101.55 200.0 104.16 189.78H106.14L108.75 200.0H107.22L106.6 197.41H103.71L103.09 200.0ZM103.99 196.16H106.31L105.61 193.21Q105.43 192.43 105.31 191.85Q105.19 191.27 105.15 191.05Q105.11 191.27 105.0 191.84Q104.88 192.42 104.69 193.2ZM112.94 200.0V191.16H110.21V189.77H117.19V191.16H114.46V200.0ZM118.65 200.0 121.26 189.78H123.24L125.85 200.0H124.32L123.7 197.41H120.81L120.19 200.0ZM121.09 196.16H123.41L122.71 193.21Q122.53 192.43 122.41 191.85Q122.29 191.27 122.25 191.05Q122.21 191.27 122.1 191.84Q121.98 192.42 121.79 193.2Z" /></g></g><svg x="24.0" y="218" width="18" height="18" viewBox="0 0 24 24" fill="#a7b2bc"><path d="M13.983 11.078h2.119a.186.186 0 00.186-.185V9.006a.186.186 0 00-.186-.186h-2.119a.185.185 0 00-.185.185v1.888c0 .102.083.185.185.185m-2.954-5.43h2.118a.186.186 0 00.186-.186V3.574a.186.186 0 00-.186-.185h-2.118a.185.185 0 00-.185.185v1.888c0 .102.082.185.185.185m0 2.716h2.118a.187.187 0 00.186-.186V6.29a.186.186 0 00-.186-.185h-2.118a.185.185 0 00-.185.185v1.887c0 .102.082.185.185.186m-2.93 0h2.12a.186.186 0 00.184-.186V6.29a.185.185 0 00-.185-.185H8.1a.185.185 0 00-.185.185v1.887c0 .102.083.185.185.186m-2.964 0h2.119a.186.186 0 00.185-.186V6.29a.185.185 0 00-.185-.185H5.136a.186.186 0 00-.186.185v1.887c0 .102.084.185.186.186m5.893 2.715h2.118a.186.186 0 00.186-.185V9.006a.186.186 0 00-.186-.186h-2.118a.185.185 0 00-.185.185v1.888c0 .102.082.185.185.185m-2.93 0h2.12a.185.185 0 00.184-.185V9.006a.185.185 0 00-.184-.186h-2.12a.185.185 0 00-.184.185v1.888c0 .102.083.185.185.185m-2.964 0h2.119a.185.185 0 00.185-.185V9.006a.185.185 0 00-.184-.186h-2.12a.186.186 0 00-.186.186v1.887c0 .102.084.185.186.185m-2.92 0h2.12a.185.185 0 00.184-.185V9.006a.185.185 0 00-.184-.186h-2.12a.185.185 0 00-.184.185v1.888c0 .102.082.185.185.185M23.763 9.89c-.065-.051-.672-.51-1.954-.51-.338.001-.676.03-1.01.087-.248-1.7-1.653-2.53-1.716-2.566l-.344-.199-.226.327c-.284.438-.49.922-.612 1.43-.23.97-.09 1.882.403 2.661-.595.332-1.55.413-1.744.42H.751a.751.751 0 00-.75.748 11.376 11.376 0 00.692 4.062c.545 1.428 1.355 2.48 2.41 3.124 1.18.723 3.1 1.137 5.275 1.137.983.003 1.963-.086 2.93-.266a12.248 12.248 0 003.823-1.389c.98-.567 1.86-1.288 2.61-2.136 1.252-1.418 1.998-2.997 2.553-4.4h.221c1.372 0 2.215-.549 2.68-1.009.309-.293.55-.65.707-1.046l.098-.288Z" /></svg><g><g data-text="Docker" data-family="sans" data-size="16.0" data-weight="450.0" data-spacing="0.0" data-x="49.0" data-y="232.0" data-anchor="start" fill="#e6edf3"><path d="M50.12 232.0V220.48H53.64Q53.82 220.48 54.26 220.49Q54.71 220.5 55.11 220.55Q56.43 220.73 57.33 221.53Q58.22 222.32 58.66 223.55Q59.11 224.77 59.11 226.24Q59.11 227.71 58.66 228.94Q58.22 230.16 57.33 230.96Q56.43 231.75 55.11 231.93Q54.71 231.98 54.26 231.99Q53.81 232.0 53.64 232.0ZM51.46 230.75H53.64Q53.96 230.75 54.34 230.74Q54.72 230.72 54.99 230.67Q55.97 230.49 56.57 229.86Q57.17 229.23 57.45 228.29Q57.73 227.35 57.73 226.24Q57.73 225.11 57.45 224.17Q57.17 223.23 56.56 222.61Q55.96 221.99 54.99 221.81Q54.72 221.76 54.33 221.74Q53.94 221.73 53.64 221.73H51.46ZM64.58 232.24Q63.29 232.24 62.37 231.66Q61.45 231.07 60.95 230.04Q60.46 229.01 60.46 227.67Q60.46 226.31 60.96 225.29Q61.47 224.26 62.39 223.69Q63.32 223.12 64.58 223.12Q65.88 223.12 66.8 223.7Q67.73 224.28 68.22 225.31Q68.72 226.33 68.72 227.67Q68.72 229.03 68.22 230.06Q67.72 231.08 66.79 231.66Q65.87 232.24 64.58 232.24ZM64.58 231.0Q65.97 231.0 66.65 230.07Q67.34 229.15 67.34 227.67Q67.34 226.16 66.65 225.26Q65.96 224.36 64.58 224.36Q63.65 224.36 63.04 224.78Q62.43 225.2 62.14 225.95Q61.84 226.69 61.84 227.67Q61.84 229.18 62.54 230.09Q63.23 231.0 64.58 231.0ZM74.09 232.24Q72.78 232.24 71.87 231.65Q70.96 231.07 70.48 230.04Q70.01 229.01 70.0 227.68Q70.01 226.33 70.5 225.3Q70.98 224.27 71.89 223.7Q72.8 223.12 74.1 223.12Q75.44 223.12 76.42 223.78Q77.4 224.43 77.75 225.57L76.47 225.97Q76.18 225.2 75.54 224.78Q74.91 224.36 74.09 224.36Q73.17 224.36 72.57 224.78Q71.97 225.21 71.68 225.96Q71.39 226.71 71.38 227.68Q71.39 229.18 72.07 230.09Q72.75 231.0 74.09 231.0Q74.95 231.0 75.54 230.6Q76.13 230.21 76.44 229.45L77.75 229.81Q77.28 230.99 76.34 231.62Q75.4 232.24 74.09 232.24ZM79.39 232.0 79.39 220.48H80.71V227.52L84.45 223.36H86.15L82.22 227.68L86.64 232.0H84.79L80.71 227.84V232.0ZM91.14 232.24Q89.87 232.24 88.94 231.68Q88.0 231.12 87.48 230.1Q86.96 229.09 86.96 227.73Q86.96 226.31 87.47 225.28Q87.98 224.24 88.91 223.68Q89.83 223.12 91.09 223.12Q92.38 223.12 93.29 223.71Q94.2 224.31 94.66 225.41Q95.12 226.51 95.07 228.05H93.75V227.58Q93.72 225.94 93.06 225.12Q92.41 224.3 91.13 224.3Q89.77 224.3 89.05 225.18Q88.34 226.05 88.34 227.68Q88.34 229.26 89.05 230.13Q89.77 231.0 91.09 231.0Q91.98 231.0 92.64 230.59Q93.3 230.18 93.68 229.41L94.91 229.86Q94.4 230.99 93.4 231.62Q92.4 232.24 91.14 232.24ZM87.89 228.05V226.98H94.39V228.05ZM96.84 232.0V223.36H98.01V225.44L97.8 225.17Q97.95 224.78 98.19 224.45Q98.42 224.12 98.71 223.91Q99.05 223.63 99.48 223.48Q99.92 223.33 100.37 223.3Q100.81 223.27 101.2 223.36V224.58Q100.73 224.46 100.19 224.52Q99.64 224.58 99.17 224.94Q98.75 225.26 98.53 225.7Q98.31 226.15 98.23 226.65Q98.15 227.16 98.15 227.68V232.0Z" /></g></g><svg x="149.33333333333331" y="218" width="18" height="18" viewBox="0 0 24 24" fill="#a7b2bc"><path d="M23.5594 14.7228a.5269.5269 0 0 0-.0563-.1191c-.139-.2632-.4768-.3418-1.0074-.2321-1.6533.3411-2.2935.1312-2.5256-.0191 1.342-2.0482 2.445-4.522 3.0411-6.8297.2714-1.0507.7982-3.5237.1222-4.7316a1.5641 1.5641 0 0 0-.1509-.235C21.6931.9086 19.8007.0248 17.5099.0005c-1.4947-.0158-2.7705.3461-3.1161.4794a9.449 9.449 0 0 0-.5159-.0816 8.044 8.044 0 0 0-1.3114-.1278c-1.1822-.0184-2.2038.2642-3.0498.8406-.8573-.3211-4.7888-1.645-7.2219.0788C.9359 2.1526.3086 3.8733.4302 6.3043c.0409.818.5069 3.334 1.2423 5.7436.4598 1.5065.9387 2.7019 1.4334 3.582.553.9942 1.1259 1.5933 1.7143 1.7895.4474.1491 1.1327.1441 1.8581-.7279.8012-.9635 1.5903-1.8258 1.9446-2.2069.4351.2355.9064.3625 1.39.3772a.0569.0569 0 0 0 .0004.0041 11.0312 11.0312 0 0 0-.2472.3054c-.3389.4302-.4094.5197-1.5002.7443-.3102.064-1.1344.2339-1.1464.8115-.0025.1224.0329.2309.0919.3268.2269.4231.9216.6097 1.015.6331 1.3345.3335 2.5044.092 3.3714-.6787-.017 2.231.0775 4.4174.3454 5.0874.2212.5529.7618 1.9045 2.4692 1.9043.2505 0 .5263-.0291.8296-.0941 1.7819-.3821 2.5557-1.1696 2.855-2.9059.1503-.8707.4016-2.8753.5388-4.1012.0169-.0703.0357-.1207.057-.1362.0007-.0005.0697-.0471.4272.0307a.3673.3673 0 0 0 .0443.0068l.2539.0223.0149.001c.8468.0384 1.9114-.1426 2.5312-.4308.6438-.2988 1.8057-1.0323 1.5951-1.6698zM2.371 11.8765c-.7435-2.4358-1.1779-4.8851-1.2123-5.5719-.1086-2.1714.4171-3.6829 1.5623-4.4927 1.8367-1.2986 4.8398-.5408 6.108-.13-.0032.0032-.0066.0061-.0098.0094-2.0238 2.044-1.9758 5.536-1.9708 5.7495-.0002.0823.0066.1989.0162.3593.0348.5873.0996 1.6804-.0735 2.9184-.1609 1.1504.1937 2.2764.9728 3.0892.0806.0841.1648.1631.2518.2374-.3468.3714-1.1004 1.1926-1.9025 2.1576-.5677.6825-.9597.5517-1.0886.5087-.3919-.1307-.813-.5871-1.2381-1.3223-.4796-.839-.9635-2.0317-1.4155-3.5126zm6.0072 5.0871c-.1711-.0428-.3271-.1132-.4322-.1772.0889-.0394.2374-.0902.4833-.1409 1.2833-.2641 1.4815-.4506 1.9143-1.0002.0992-.126.2116-.2687.3673-.4426a.3549.3549 0 0 0 .0737-.1298c.1708-.1513.2724-.1099.4369-.0417.156.0646.3078.26.3695.4752.0291.1016.0619.2945-.0452.4444-.9043 1.2658-2.2216 1.2494-3.1676 1.0128zm2.094-3.988-.0525.141c-.133.3566-.2567.6881-.3334 1.003-.6674-.0021-1.3168-.2872-1.8105-.8024-.6279-.6551-.9131-1.5664-.7825-2.5004.1828-1.3079.1153-2.4468.079-3.0586-.005-.0857-.0095-.1607-.0122-.2199.2957-.2621 1.6659-.9962 2.6429-.7724.4459.1022.7176.4057.8305.928.5846 2.7038.0774 3.8307-.3302 4.7363-.084.1866-.1633.3629-.2311.5454zm7.3637 4.5725c-.0169.1768-.0358.376-.0618.5959l-.146.4383a.3547.3547 0 0 0-.0182.1077c-.0059.4747-.054.6489-.115.8693-.0634.2292-.1353.4891-.1794 1.0575-.11 1.4143-.8782 2.2267-2.4172 2.5565-1.5155.3251-1.7843-.4968-2.0212-1.2217a6.5824 6.5824 0 0 0-.0769-.2266c-.2154-.5858-.1911-1.4119-.1574-2.5551.0165-.5612-.0249-1.9013-.3302-2.6462.0044-.2932.0106-.5909.019-.8918a.3529.3529 0 0 0-.0153-.1126 1.4927 1.4927 0 0 0-.0439-.208c-.1226-.4283-.4213-.7866-.7797-.9351-.1424-.059-.4038-.1672-.7178-.0869.067-.276.1831-.5875.309-.9249l.0529-.142c.0595-.16.134-.3257.213-.5012.4265-.9476 1.0106-2.2453.3766-5.1772-.2374-1.0981-1.0304-1.6343-2.2324-1.5098-.7207.0746-1.3799.3654-1.7088.5321a5.6716 5.6716 0 0 0-.1958.1041c.0918-1.1064.4386-3.1741 1.7357-4.4823a4.0306 4.0306 0 0 1 .3033-.276.3532.3532 0 0 0 .1447-.0644c.7524-.5706 1.6945-.8506 2.802-.8325.4091.0067.8017.0339 1.1742.081 1.939.3544 3.2439 1.4468 4.0359 2.3827.8143.9623 1.2552 1.9315 1.4312 2.4543-1.3232-.1346-2.2234.1268-2.6797.779-.9926 1.4189.543 4.1729 1.2811 5.4964.1353.2426.2522.4522.2889.5413.2403.5825.5515.9713.7787 1.2552.0696.087.1372.1714.1885.245-.4008.1155-1.1208.3825-1.0552 1.717-.0123.1563-.0423.4469-.0834.8148-.0461.2077-.0702.4603-.0994.7662zm.8905-1.6211c-.0405-.8316.2691-.9185.5967-1.0105a2.8566 2.8566 0 0 0 .135-.0406 1.202 1.202 0 0 0 .1342.103c.5703.3765 1.5823.4213 3.0068.1344-.2016.1769-.5189.3994-.9533.6011-.4098.1903-1.0957.333-1.7473.3636-.7197.0336-1.0859-.0807-1.1721-.151zm.5695-9.2712c-.0059.3508-.0542.6692-.1054 1.0017-.055.3576-.112.7274-.1264 1.1762-.0142.4368.0404.8909.0932 1.3301.1066.887.216 1.8003-.2075 2.7014a3.5272 3.5272 0 0 1-.1876-.3856c-.0527-.1276-.1669-.3326-.3251-.6162-.6156-1.1041-2.0574-3.6896-1.3193-4.7446.3795-.5427 1.3408-.5661 2.1781-.463zm.2284 7.0137a12.3762 12.3762 0 0 0-.0853-.1074l-.0355-.0444c.7262-1.1995.5842-2.3862.4578-3.4385-.0519-.4318-.1009-.8396-.0885-1.2226.0129-.4061.0666-.7543.1185-1.0911.0639-.415.1288-.8443.1109-1.3505.0134-.0531.0188-.1158.0118-.1902-.0457-.4855-.5999-1.938-1.7294-3.253-.6076-.7073-1.4896-1.4972-2.6889-2.0395.5251-.1066 1.2328-.2035 2.0244-.1859 2.0515.0456 3.6746.8135 4.8242 2.2824a.908.908 0 0 1 .0667.1002c.7231 1.3556-.2762 6.2751-2.9867 10.5405zm-8.8166-6.1162c-.025.1794-.3089.4225-.6211.4225a.5821.5821 0 0 1-.0809-.0056c-.1873-.026-.3765-.144-.5059-.3156-.0458-.0605-.1203-.178-.1055-.2844.0055-.0401.0261-.0985.0925-.1488.1182-.0894.3518-.1226.6096-.0867.3163.0441.6426.1938.6113.4186zm7.9305-.4114c.0111.0792-.049.201-.1531.3102-.0683.0717-.212.1961-.4079.2232a.5456.5456 0 0 1-.075.0052c-.2935 0-.5414-.2344-.5607-.3717-.024-.1765.2641-.3106.5611-.352.297-.0414.6111.0088.6356.1851z" /></svg><g><g data-text="PostgreSQL" data-family="sans" data-size="16.0" data-weight="450.0" data-spacing="0.0" data-x="174.33333333333331" data-y="232.0" data-anchor="start" fill="#e6edf3"><path d="M175.45 232.0V220.48H179.95Q180.12 220.48 180.34 220.49Q180.56 220.5 180.78 220.54Q181.7 220.69 182.33 221.18Q182.96 221.67 183.29 222.42Q183.61 223.18 183.61 224.08Q183.61 224.99 183.28 225.74Q182.96 226.49 182.33 226.99Q181.69 227.48 180.78 227.62Q180.56 227.65 180.34 227.67Q180.12 227.69 179.95 227.69H176.75V232.0ZM176.75 226.45H179.91Q180.06 226.45 180.26 226.43Q180.45 226.41 180.63 226.38Q181.2 226.25 181.56 225.9Q181.93 225.55 182.1 225.07Q182.28 224.59 182.28 224.08Q182.28 223.57 182.1 223.1Q181.93 222.62 181.56 222.27Q181.2 221.91 180.63 221.79Q180.45 221.75 180.26 221.73Q180.06 221.72 179.91 221.72H176.75ZM188.85 232.24Q187.56 232.24 186.64 231.66Q185.72 231.07 185.22 230.04Q184.73 229.01 184.73 227.67Q184.73 226.31 185.23 225.29Q185.74 224.26 186.66 223.69Q187.59 223.12 188.85 223.12Q190.15 223.12 191.07 223.7Q192.0 224.28 192.49 225.31Q192.99 226.33 192.99 227.67Q192.99 229.03 192.49 230.06Q191.99 231.08 191.06 231.66Q190.14 232.24 188.85 232.24ZM188.85 231.0Q190.24 231.0 190.92 230.07Q191.61 229.15 191.61 227.67Q191.61 226.16 190.92 225.26Q190.23 224.36 188.85 224.36Q187.92 224.36 187.31 224.78Q186.7 225.2 186.41 225.95Q186.11 226.69 186.11 227.67Q186.11 229.18 186.81 230.09Q187.5 231.0 188.85 231.0ZM197.99 232.23Q196.46 232.23 195.47 231.57Q194.49 230.9 194.27 229.71L195.59 229.49Q195.78 230.21 196.44 230.64Q197.1 231.06 198.07 231.06Q199.0 231.06 199.54 230.67Q200.07 230.28 200.07 229.61Q200.07 229.22 199.9 228.98Q199.73 228.74 199.19 228.54Q198.65 228.33 197.57 228.04Q196.42 227.73 195.75 227.41Q195.09 227.08 194.81 226.65Q194.54 226.23 194.54 225.62Q194.54 224.87 194.95 224.31Q195.37 223.74 196.11 223.43Q196.85 223.12 197.84 223.12Q198.81 223.12 199.59 223.43Q200.36 223.75 200.83 224.32Q201.31 224.89 201.4 225.64L200.07 225.88Q199.96 225.16 199.36 224.73Q198.76 224.31 197.83 224.29Q196.95 224.27 196.4 224.62Q195.85 224.96 195.85 225.55Q195.85 225.88 196.05 226.12Q196.25 226.35 196.79 226.56Q197.33 226.76 198.35 227.02Q199.51 227.32 200.18 227.65Q200.85 227.99 201.14 228.45Q201.42 228.91 201.42 229.58Q201.42 230.82 200.51 231.52Q199.59 232.23 197.99 232.23ZM207.95 232.0Q207.2 232.15 206.48 232.12Q205.75 232.1 205.18 231.82Q204.61 231.55 204.32 230.97Q204.07 230.47 204.05 229.96Q204.03 229.45 204.03 228.8V220.96H205.33V228.75Q205.33 229.29 205.34 229.66Q205.35 230.02 205.5 230.3Q205.79 230.83 206.42 230.92Q207.05 231.01 207.95 230.87ZM202.23 224.45V223.36H207.95V224.45ZM213.15 236.08Q212.48 236.08 211.83 235.88Q211.19 235.68 210.65 235.26Q210.1 234.84 209.74 234.18L210.92 233.54Q211.26 234.22 211.88 234.52Q212.5 234.82 213.16 234.82Q214.04 234.82 214.6 234.5Q215.16 234.17 215.42 233.54Q215.68 232.9 215.68 231.95V229.62H215.83V223.36H216.98V231.97Q216.98 232.33 216.96 232.66Q216.94 232.99 216.88 233.32Q216.72 234.26 216.24 234.87Q215.75 235.48 214.97 235.78Q214.2 236.08 213.15 236.08ZM213.06 232.24Q211.85 232.24 210.99 231.64Q210.13 231.04 209.67 230.0Q209.21 228.97 209.21 227.67Q209.21 226.38 209.67 225.35Q210.13 224.32 210.98 223.72Q211.84 223.12 213.03 223.12Q214.25 223.12 215.08 223.71Q215.92 224.31 216.34 225.34Q216.77 226.37 216.77 227.67Q216.77 228.96 216.35 230.0Q215.92 231.03 215.09 231.64Q214.27 232.24 213.06 232.24ZM213.21 231.04Q214.1 231.04 214.68 230.61Q215.27 230.17 215.55 229.41Q215.83 228.65 215.83 227.67Q215.83 226.69 215.54 225.93Q215.26 225.17 214.69 224.74Q214.11 224.32 213.24 224.32Q212.34 224.32 211.75 224.76Q211.16 225.21 210.87 225.97Q210.59 226.73 210.59 227.67Q210.59 228.62 210.88 229.39Q211.17 230.15 211.75 230.6Q212.33 231.04 213.21 231.04ZM219.22 232.0V223.36H220.39V225.44L220.18 225.17Q220.33 224.78 220.57 224.45Q220.81 224.12 221.09 223.91Q221.43 223.63 221.86 223.48Q222.3 223.33 222.75 223.3Q223.19 223.27 223.58 223.36V224.58Q223.11 224.46 222.57 224.52Q222.02 224.58 221.55 224.94Q221.13 225.26 220.91 225.7Q220.69 226.15 220.61 226.65Q220.53 227.16 220.53 227.68V232.0ZM228.8 232.24Q227.53 232.24 226.59 231.68Q225.65 231.12 225.14 230.1Q224.62 229.09 224.62 227.73Q224.62 226.31 225.13 225.28Q225.64 224.24 226.56 223.68Q227.49 223.12 228.74 223.12Q230.03 223.12 230.94 223.71Q231.85 224.31 232.32 225.41Q232.78 226.51 232.72 228.05H231.41V227.58Q231.38 225.94 230.72 225.12Q230.06 224.3 228.78 224.3Q227.42 224.3 226.71 225.18Q226.0 226.05 226.0 227.68Q226.0 229.26 226.71 230.13Q227.42 231.0 228.74 231.0Q229.63 231.0 230.3 230.59Q230.96 230.18 231.34 229.41L232.57 229.86Q232.06 230.99 231.06 231.62Q230.05 232.24 228.8 232.24ZM225.55 228.05V226.98H232.04V228.05ZM238.54 232.24Q237.33 232.24 236.36 231.83Q235.38 231.42 234.75 230.66Q234.12 229.9 233.93 228.86L235.26 228.65Q235.55 229.75 236.45 230.38Q237.36 231.0 238.6 231.0Q239.41 231.0 240.06 230.74Q240.71 230.49 241.09 230.01Q241.47 229.54 241.47 228.89Q241.47 228.47 241.32 228.17Q241.17 227.88 240.93 227.68Q240.68 227.47 240.38 227.34Q240.08 227.2 239.78 227.11L236.85 226.24Q236.35 226.09 235.9 225.86Q235.45 225.64 235.11 225.3Q234.77 224.97 234.57 224.51Q234.37 224.05 234.37 223.44Q234.37 222.45 234.89 221.73Q235.42 221.01 236.32 220.63Q237.22 220.24 238.36 220.25Q239.51 220.25 240.43 220.66Q241.34 221.07 241.94 221.82Q242.53 222.57 242.73 223.61L241.36 223.85Q241.24 223.13 240.82 222.6Q240.4 222.07 239.76 221.78Q239.11 221.49 238.35 221.49Q237.61 221.48 237.02 221.73Q236.43 221.97 236.09 222.4Q235.75 222.84 235.75 223.39Q235.75 223.95 236.06 224.28Q236.37 224.62 236.83 224.82Q237.29 225.01 237.73 225.13L239.95 225.78Q240.32 225.88 240.8 226.06Q241.29 226.25 241.74 226.58Q242.2 226.91 242.5 227.45Q242.8 227.99 242.8 228.82Q242.8 229.64 242.48 230.28Q242.15 230.92 241.57 231.35Q240.99 231.79 240.22 232.01Q239.44 232.24 238.54 232.24ZM253.51 232.23 250.41 229.14 251.27 228.27 254.37 231.36ZM249.17 232.24Q247.45 232.24 246.26 231.48Q245.06 230.72 244.45 229.37Q243.83 228.01 243.83 226.24Q243.83 224.47 244.45 223.11Q245.06 221.76 246.26 221.0Q247.45 220.24 249.17 220.24Q250.89 220.24 252.09 221.0Q253.28 221.76 253.89 223.11Q254.51 224.47 254.51 226.24Q254.51 228.01 253.89 229.37Q253.28 230.72 252.09 231.48Q250.89 232.24 249.17 232.24ZM249.17 230.99Q250.49 231.0 251.37 230.4Q252.25 229.8 252.69 228.72Q253.13 227.65 253.13 226.24Q253.13 224.83 252.69 223.76Q252.25 222.69 251.37 222.09Q250.49 221.49 249.17 221.49Q247.85 221.48 246.98 222.08Q246.1 222.68 245.66 223.75Q245.22 224.83 245.21 226.24Q245.2 227.65 245.64 228.72Q246.08 229.78 246.97 230.39Q247.85 230.99 249.17 230.99ZM256.27 232.0V220.48H257.57V230.76H262.98V232.0Z" /></g></g><svg x="274.66666666666663" y="218" width="18" height="18" viewBox="0 0 24 24" fill="#a7b2bc"><path d="M16.405 5.501c-.115 0-.193.014-.274.033v.013h.014c.054.104.146.18.214.273.054.107.1.214.154.32l.014-.015c.094-.066.14-.172.14-.333-.04-.047-.046-.094-.08-.14-.04-.067-.126-.1-.18-.153zM5.77 18.695h-.927a50.854 50.854 0 00-.27-4.41h-.008l-1.41 4.41H2.45l-1.4-4.41h-.01a72.892 72.892 0 00-.195 4.41H0c.055-1.966.192-3.81.41-5.53h1.15l1.335 4.064h.008l1.347-4.064h1.095c.242 2.015.384 3.86.428 5.53zm4.017-4.08c-.378 2.045-.876 3.533-1.492 4.46-.482.716-1.01 1.073-1.583 1.073-.153 0-.34-.046-.566-.138v-.494c.11.017.24.026.386.026.268 0 .483-.075.647-.222.197-.18.295-.382.295-.605 0-.155-.077-.47-.23-.944L6.23 14.615h.91l.727 2.36c.164.536.233.91.205 1.123.4-1.064.678-2.227.835-3.483zm12.325 4.08h-2.63v-5.53h.885v4.85h1.745zm-3.32.135l-1.016-.5c.09-.076.177-.158.255-.25.433-.506.648-1.258.648-2.253 0-1.83-.718-2.746-2.155-2.746-.704 0-1.254.232-1.65.697-.43.508-.646 1.256-.646 2.245 0 .972.19 1.686.574 2.14.35.41.877.615 1.583.615.264 0 .506-.033.725-.098l1.325.772.36-.622zM15.5 17.588c-.225-.36-.337-.94-.337-1.736 0-1.393.424-2.09 1.27-2.09.443 0 .77.167.977.5.224.362.336.936.336 1.723 0 1.404-.424 2.108-1.27 2.108-.445 0-.77-.167-.978-.5zm-1.658-.425c0 .47-.172.856-.516 1.156-.344.3-.803.45-1.384.45-.543 0-1.064-.172-1.573-.515l.237-.476c.438.22.833.328 1.19.328.332 0 .593-.073.783-.22a.754.754 0 00.3-.615c0-.33-.23-.61-.648-.845-.388-.213-1.163-.657-1.163-.657-.422-.307-.632-.636-.632-1.177 0-.45.157-.81.47-1.085.315-.278.72-.415 1.22-.415.512 0 .98.136 1.4.41l-.213.476a2.726 2.726 0 00-1.064-.23c-.283 0-.502.068-.654.206a.685.685 0 00-.248.524c0 .328.234.61.666.85.393.215 1.187.67 1.187.67.433.305.648.63.648 1.168zm9.382-5.852c-.535-.014-.95.04-1.297.188-.1.04-.26.04-.274.167.055.053.063.14.11.214.08.134.218.313.346.407.14.11.28.216.427.31.26.16.555.255.81.416.145.094.293.213.44.313.073.05.12.14.214.172v-.02c-.046-.06-.06-.147-.105-.214-.067-.067-.134-.127-.2-.193a3.223 3.223 0 00-.695-.675c-.214-.146-.682-.35-.77-.595l-.013-.014c.146-.013.32-.066.46-.106.227-.06.435-.047.67-.106.106-.027.213-.06.32-.094v-.06c-.12-.12-.21-.283-.334-.395a8.867 8.867 0 00-1.104-.823c-.21-.134-.476-.22-.697-.334-.08-.04-.214-.06-.26-.127-.12-.146-.19-.34-.275-.514a17.69 17.69 0 01-.547-1.163c-.12-.262-.193-.523-.34-.763-.69-1.137-1.437-1.826-2.586-2.5-.247-.14-.543-.2-.856-.274-.167-.008-.334-.02-.5-.027-.11-.047-.216-.174-.31-.235-.38-.24-1.364-.76-1.644-.072-.18.434.267.862.422 1.082.115.153.26.328.34.5.047.116.06.235.107.356.106.294.207.622.347.897.073.14.153.287.247.413.054.073.146.107.167.227-.094.136-.1.334-.154.5-.24.757-.146 1.693.194 2.25.107.166.362.534.703.393.3-.12.234-.5.32-.835.02-.08.007-.133.048-.187v.015c.094.188.188.367.274.555.206.328.566.668.867.895.16.12.287.328.487.402v-.02h-.015c-.043-.058-.1-.086-.154-.133a3.445 3.445 0 01-.35-.4 8.76 8.76 0 01-.747-1.218c-.11-.21-.202-.436-.29-.643-.04-.08-.04-.2-.107-.24-.1.146-.247.273-.32.453-.127.288-.14.642-.188 1.01-.027.007-.014 0-.027.014-.214-.052-.287-.274-.367-.46-.2-.475-.233-1.238-.06-1.785.047-.14.247-.582.167-.716-.042-.127-.174-.2-.247-.303a2.478 2.478 0 01-.24-.427c-.16-.374-.24-.788-.414-1.162-.08-.173-.22-.354-.334-.513-.127-.18-.267-.307-.368-.52-.033-.073-.08-.194-.027-.274.014-.054.042-.075.094-.09.088-.072.335.022.422.062.247.1.455.194.662.334.094.066.195.193.315.226h.14c.214.047.455.014.655.073.355.114.675.28.962.46a5.953 5.953 0 012.085 2.286c.08.154.115.295.188.455.14.33.313.663.455.982.14.315.275.636.476.897.1.14.502.213.682.286.133.06.34.115.46.188.23.14.454.3.67.454.11.076.443.243.463.378z" /></svg><g><g data-text="MySQL" data-family="sans" data-size="16.0" data-weight="450.0" data-spacing="0.0" data-x="299.66666666666663" data-y="232.0" data-anchor="start" fill="#e6edf3"><path d="M300.79 232.0V220.48H301.97L306.42 229.91L310.83 220.48H312.04V231.99H310.8V223.36L306.79 232.0H306.03L302.03 223.36V232.0ZM315.49 235.84 317.17 231.3 317.19 232.65 313.41 223.36H314.78L317.81 230.98H317.3L320.12 223.36H321.45L316.77 235.84ZM326.84 232.24Q325.63 232.24 324.66 231.83Q323.68 231.42 323.05 230.66Q322.42 229.9 322.23 228.86L323.56 228.65Q323.85 229.75 324.75 230.38Q325.66 231.0 326.9 231.0Q327.71 231.0 328.36 230.74Q329.01 230.49 329.39 230.01Q329.77 229.54 329.77 228.89Q329.77 228.47 329.62 228.17Q329.47 227.88 329.23 227.68Q328.98 227.47 328.68 227.34Q328.38 227.2 328.08 227.11L325.15 226.24Q324.65 226.09 324.2 225.86Q323.75 225.64 323.41 225.3Q323.07 224.97 322.87 224.51Q322.67 224.05 322.67 223.44Q322.67 222.45 323.19 221.73Q323.72 221.01 324.62 220.63Q325.52 220.24 326.66 220.25Q327.81 220.25 328.73 220.66Q329.64 221.07 330.24 221.82Q330.83 222.57 331.03 223.61L329.66 223.85Q329.54 223.13 329.12 222.6Q328.7 222.07 328.06 221.78Q327.41 221.49 326.65 221.49Q325.91 221.48 325.32 221.73Q324.73 221.97 324.39 222.4Q324.05 222.84 324.05 223.39Q324.05 223.95 324.36 224.28Q324.67 224.62 325.13 224.82Q325.59 225.01 326.03 225.13L328.25 225.78Q328.62 225.88 329.1 226.06Q329.59 226.25 330.04 226.58Q330.5 226.91 330.8 227.45Q331.1 227.99 331.1 228.82Q331.1 229.64 330.78 230.28Q330.45 230.92 329.87 231.35Q329.29 231.79 328.52 232.01Q327.74 232.24 326.84 232.24ZM341.81 232.23 338.71 229.14 339.57 228.27 342.67 231.36ZM337.47 232.24Q335.75 232.24 334.56 231.48Q333.36 230.72 332.75 229.37Q332.13 228.01 332.13 226.24Q332.13 224.47 332.75 223.11Q333.36 221.76 334.56 221.0Q335.75 220.24 337.47 220.24Q339.19 220.24 340.39 221.0Q341.58 221.76 342.19 223.11Q342.81 224.47 342.81 226.24Q342.81 228.01 342.19 229.37Q341.58 230.72 340.39 231.48Q339.19 232.24 337.47 232.24ZM337.47 230.99Q338.79 231.0 339.67 230.4Q340.55 229.8 340.99 228.72Q341.43 227.65 341.43 226.24Q341.43 224.83 340.99 223.76Q340.55 222.69 339.67 222.09Q338.79 221.49 337.47 221.49Q336.15 221.48 335.28 222.08Q334.4 222.68 333.96 223.75Q333.52 224.83 333.51 226.24Q333.5 227.65 333.94 228.72Q334.38 229.78 335.27 230.39Q336.15 230.99 337.47 230.99ZM344.57 232.0V220.48H345.87V230.76H351.28V232.0Z" /></g></g><svg x="400.0" y="218" width="18" height="18" viewBox="0 0 24 24" fill="#a7b2bc"><path d="M13.09 23.549a1.54 1.54 0 0 1-2.18 0L.451 13.089a1.54 1.54 0 0 1 0-2.179l7.191-7.19 2.733 2.733a1.85 1.85 0 0 0 .964 2.326v6.66a1.849 1.849 0 1 0 1.54 0V8.957l2.508 2.508a1.85 1.85 0 1 0 1.09-1.09l-2.634-2.634a1.85 1.85 0 0 0-2.378-2.377L8.73 2.63 10.91.451a1.54 1.54 0 0 1 2.179 0l10.459 10.46a1.54 1.54 0 0 1 0 2.179z" /></svg><g><g data-text="Git" data-family="sans" data-size="16.0" data-weight="450.0" data-spacing="0.0" data-x="425.0" data-y="232.0" data-anchor="start" fill="#e6edf3"><path d="M430.76 232.24Q429.56 232.24 428.58 231.82Q427.61 231.4 426.91 230.62Q426.22 229.84 425.85 228.73Q425.48 227.62 425.48 226.24Q425.48 224.42 426.12 223.07Q426.76 221.73 427.95 220.99Q429.13 220.25 430.76 220.25Q432.65 220.25 433.82 221.13Q434.99 222.01 435.44 223.51L434.13 223.8Q433.76 222.75 432.92 222.13Q432.07 221.5 430.82 221.49Q429.5 221.49 428.63 222.09Q427.75 222.68 427.31 223.76Q426.87 224.83 426.86 226.24Q426.85 227.65 427.29 228.72Q427.73 229.78 428.62 230.39Q429.5 230.99 430.82 230.99Q431.99 231.0 432.78 230.54Q433.56 230.09 433.98 229.23Q434.4 228.38 434.47 227.19H431.92V226.1H435.84Q435.86 226.27 435.87 226.49Q435.87 226.7 435.87 226.78Q435.87 228.35 435.3 229.58Q434.72 230.82 433.59 231.53Q432.45 232.24 430.76 232.24ZM437.63 221.78V220.38H438.93V221.78ZM437.63 232.0V223.36H438.93V232.0ZM446.09 232.0Q445.34 232.15 444.62 232.12Q443.89 232.1 443.32 231.82Q442.75 231.55 442.46 230.97Q442.21 230.47 442.19 229.96Q442.17 229.45 442.17 228.8V220.96H443.47V228.75Q443.47 229.29 443.48 229.66Q443.49 230.02 443.64 230.3Q443.93 230.83 444.56 230.92Q445.19 231.01 446.09 230.87ZM440.37 224.45V223.36H446.09V224.45Z" /></g></g><svg x="525.3333333333333" y="218" width="18" height="18" viewBox="0 0 24 24" fill="#a7b2bc"><path d="M12.504 0c-.155 0-.315.008-.48.021-4.226.333-3.105 4.807-3.17 6.298-.076 1.092-.3 1.953-1.05 3.02-.885 1.051-2.127 2.75-2.716 4.521-.278.832-.41 1.684-.287 2.489a.424.424 0 00-.11.135c-.26.268-.45.6-.663.839-.199.199-.485.267-.797.4-.313.136-.658.269-.864.68-.09.189-.136.394-.132.602 0 .199.027.4.055.536.058.399.116.728.04.97-.249.68-.28 1.145-.106 1.484.174.334.535.47.94.601.81.2 1.91.135 2.774.6.926.466 1.866.67 2.616.47.526-.116.97-.464 1.208-.946.587-.003 1.23-.269 2.26-.334.699-.058 1.574.267 2.577.2.025.134.063.198.114.333l.003.003c.391.778 1.113 1.132 1.884 1.071.771-.06 1.592-.536 2.257-1.306.631-.765 1.683-1.084 2.378-1.503.348-.199.629-.469.649-.853.023-.4-.2-.811-.714-1.376v-.097l-.003-.003c-.17-.2-.25-.535-.338-.926-.085-.401-.182-.786-.492-1.046h-.003c-.059-.054-.123-.067-.188-.135a.357.357 0 00-.19-.064c.431-1.278.264-2.55-.173-3.694-.533-1.41-1.465-2.638-2.175-3.483-.796-1.005-1.576-1.957-1.56-3.368.026-2.152.236-6.133-3.544-6.139zm.529 3.405h.013c.213 0 .396.062.584.198.19.135.33.332.438.533.105.259.158.459.166.724 0-.02.006-.04.006-.06v.105a.086.086 0 01-.004-.021l-.004-.024a1.807 1.807 0 01-.15.706.953.953 0 01-.213.335.71.71 0 00-.088-.042c-.104-.045-.198-.064-.284-.133a1.312 1.312 0 00-.22-.066c.05-.06.146-.133.183-.198.053-.128.082-.264.088-.402v-.02a1.21 1.21 0 00-.061-.4c-.045-.134-.101-.2-.183-.333-.084-.066-.167-.132-.267-.132h-.016c-.093 0-.176.03-.262.132a.8.8 0 00-.205.334 1.18 1.18 0 00-.09.4v.019c.002.089.008.179.02.267-.193-.067-.438-.135-.607-.202a1.635 1.635 0 01-.018-.2v-.02a1.772 1.772 0 01.15-.768c.082-.22.232-.406.43-.533a.985.985 0 01.594-.2zm-2.962.059h.036c.142 0 .27.048.399.135.146.129.264.288.344.465.09.199.14.4.153.667v.004c.007.134.006.2-.002.266v.08c-.03.007-.056.018-.083.024-.152.055-.274.135-.393.2.012-.09.013-.18.003-.267v-.015c-.012-.133-.04-.2-.082-.333a.613.613 0 00-.166-.267.248.248 0 00-.183-.064h-.021c-.071.006-.13.04-.186.132a.552.552 0 00-.12.27.944.944 0 00-.023.33v.015c.012.135.037.2.08.334.046.134.098.2.166.268.01.009.02.018.034.024-.07.057-.117.07-.176.136a.304.304 0 01-.131.068 2.62 2.62 0 01-.275-.402 1.772 1.772 0 01-.155-.667 1.759 1.759 0 01.08-.668 1.43 1.43 0 01.283-.535c.128-.133.26-.2.418-.2zm1.37 1.706c.332 0 .733.065 1.216.399.293.2.523.269 1.052.468h.003c.255.136.405.266.478.399v-.131a.571.571 0 01.016.47c-.123.31-.516.643-1.063.842v.002c-.268.135-.501.333-.775.465-.276.135-.588.292-1.012.267a1.139 1.139 0 01-.448-.067 3.566 3.566 0 01-.322-.198c-.195-.135-.363-.332-.612-.465v-.005h-.005c-.4-.246-.616-.512-.686-.71-.07-.268-.005-.47.193-.6.224-.135.38-.271.483-.336.104-.074.143-.102.176-.131h.002v-.003c.169-.202.436-.47.839-.601.139-.036.294-.065.466-.065zm2.8 2.142c.358 1.417 1.196 3.475 1.735 4.473.286.534.855 1.659 1.102 3.024.156-.005.33.018.513.064.646-1.671-.546-3.467-1.089-3.966-.22-.2-.232-.335-.123-.335.59.534 1.365 1.572 1.646 2.757.13.535.16 1.104.021 1.67.067.028.135.06.205.067 1.032.534 1.413.938 1.23 1.537v-.043c-.06-.003-.12 0-.18 0h-.016c.151-.467-.182-.825-1.065-1.224-.915-.4-1.646-.336-1.77.465-.008.043-.013.066-.018.135-.068.023-.139.053-.209.064-.43.268-.662.669-.793 1.187-.13.533-.17 1.156-.205 1.869v.003c-.02.334-.17.838-.319 1.35-1.5 1.072-3.58 1.538-5.348.334a2.645 2.645 0 00-.402-.533 1.45 1.45 0 00-.275-.333c.182 0 .338-.03.465-.067a.615.615 0 00.314-.334c.108-.267 0-.697-.345-1.163-.345-.467-.931-.995-1.788-1.521-.63-.4-.986-.87-1.15-1.396-.165-.534-.143-1.085-.015-1.645.245-1.07.873-2.11 1.274-2.763.107-.065.037.135-.408.974-.396.751-1.14 2.497-.122 3.854a8.123 8.123 0 01.647-2.876c.564-1.278 1.743-3.504 1.836-5.268.048.036.217.135.289.202.218.133.38.333.59.465.21.201.477.335.876.335.039.003.075.006.11.006.412 0 .73-.134.997-.268.29-.134.52-.334.74-.4h.005c.467-.135.835-.402 1.044-.7zm2.185 8.958c.037.6.343 1.245.882 1.377.588.134 1.434-.333 1.791-.765l.211-.01c.315-.007.577.01.847.268l.003.003c.208.199.305.53.391.876.085.4.154.78.409 1.066.486.527.645.906.636 1.14l.003-.007v.018l-.003-.012c-.015.262-.185.396-.498.595-.63.401-1.746.712-2.457 1.57-.618.737-1.37 1.14-2.036 1.191-.664.053-1.237-.2-1.574-.898l-.005-.003c-.21-.4-.12-1.025.056-1.69.176-.668.428-1.344.463-1.897.037-.714.076-1.335.195-1.814.12-.465.308-.797.641-.984l.045-.022zm-10.814.049h.01c.053 0 .105.005.157.014.376.055.706.333 1.023.752l.91 1.664.003.003c.243.533.754 1.064 1.189 1.637.434.598.77 1.131.729 1.57v.006c-.057.744-.48 1.148-1.125 1.294-.645.135-1.52.002-2.395-.464-.968-.536-2.118-.469-2.857-.602-.369-.066-.61-.2-.723-.4-.11-.2-.113-.602.123-1.23v-.004l.002-.003c.117-.334.03-.752-.027-1.118-.055-.401-.083-.71.043-.94.16-.334.396-.4.69-.533.294-.135.64-.202.915-.47h.002v-.002c.256-.268.445-.601.668-.838.19-.201.38-.336.663-.336zm7.159-9.074c-.435.201-.945.535-1.488.535-.542 0-.97-.267-1.28-.466-.154-.134-.28-.268-.373-.335-.164-.134-.144-.333-.074-.333.109.016.129.134.199.2.096.066.215.2.36.333.292.2.68.467 1.167.467.485 0 1.053-.267 1.398-.466.195-.135.445-.334.648-.467.156-.136.149-.267.279-.267.128.016.034.134-.147.332a8.097 8.097 0 01-.69.468zm-1.082-1.583V5.64c-.006-.02.013-.042.029-.05.074-.043.18-.027.26.004.063 0 .16.067.15.135-.006.049-.085.066-.135.066-.055 0-.092-.043-.141-.068-.052-.018-.146-.008-.163-.065zm-.551 0c-.02.058-.113.049-.166.066-.047.025-.086.068-.14.068-.05 0-.13-.02-.136-.068-.01-.066.088-.133.15-.133.08-.031.184-.047.259-.005.019.009.036.03.03.05v.02h.003z" /></svg><g><g data-text="Linux" data-family="sans" data-size="16.0" data-weight="450.0" data-spacing="0.0" data-x="550.3333333333333" data-y="232.0" data-anchor="start" fill="#e6edf3"><path d="M551.61 232.0V220.48H552.91V230.76H558.32V232.0ZM559.84 221.78V220.38H561.14V221.78ZM559.84 232.0V223.36H561.14V232.0ZM569.73 232.0V227.63Q569.73 226.97 569.61 226.38Q569.49 225.79 569.2 225.34Q568.92 224.89 568.46 224.63Q567.99 224.38 567.31 224.38Q566.73 224.38 566.27 224.57Q565.82 224.77 565.5 225.16Q565.18 225.54 565.01 226.11Q564.84 226.68 564.84 227.42L563.96 227.18Q563.96 225.89 564.42 224.99Q564.88 224.09 565.69 223.61Q566.51 223.14 567.6 223.14Q568.4 223.14 568.99 223.39Q569.57 223.64 569.97 224.07Q570.37 224.49 570.61 225.02Q570.84 225.55 570.94 226.13Q571.05 226.7 571.05 227.24V232.0ZM563.53 232.0V223.36H564.7V225.58H564.84V232.0ZM576.42 232.22Q575.61 232.22 575.02 231.97Q574.44 231.72 574.04 231.29Q573.64 230.87 573.41 230.34Q573.17 229.81 573.07 229.23Q572.97 228.66 572.97 228.12V223.36H574.28V227.73Q574.28 228.39 574.4 228.98Q574.52 229.57 574.81 230.02Q575.09 230.47 575.56 230.73Q576.02 230.98 576.7 230.98Q577.28 230.98 577.74 230.78Q578.2 230.59 578.52 230.2Q578.83 229.82 579.0 229.25Q579.17 228.68 579.17 227.94L580.05 228.18Q580.05 229.47 579.6 230.37Q579.14 231.27 578.32 231.75Q577.5 232.22 576.42 232.22ZM579.31 232.0V229.78H579.17V223.36H580.47V232.0ZM581.75 232.0 585.09 227.63 581.83 223.36H583.38L585.85 226.63L588.31 223.36H589.86L586.59 227.63L589.94 232.0H588.38L585.85 228.63L583.32 232.0Z" /></g></g><svg x="650.6666666666666" y="218" width="18" height="18" viewBox="0 0 24 24" fill="#a7b2bc"><path d="M13.527.099C6.955-.744.942 3.9.099 10.473c-.843 6.572 3.8 12.584 10.373 13.428 6.573.843 12.587-3.801 13.428-10.374C24.744 6.955 20.101.943 13.527.099zm2.471 7.485a.855.855 0 0 0-.593.25l-4.453 4.453-.307-.307-.643-.643c4.389-4.376 5.18-4.418 5.996-3.753zm-4.863 4.861l4.44-4.44a.62.62 0 1 1 .847.903l-4.699 4.125-.588-.588zm.33.694l-1.1.238a.06.06 0 0 1-.067-.032.06.06 0 0 1 .01-.073l.645-.645.512.512zm-2.803-.459l1.172-1.172.879.878-1.979.426a.074.074 0 0 1-.085-.039.072.072 0 0 1 .013-.093zm-3.646 6.058a.076.076 0 0 1-.069-.083.077.077 0 0 1 .022-.046h.002l.946-.946 1.222 1.222-2.123-.147zm2.425-1.256a.228.228 0 0 0-.117.256l.203.865a.125.125 0 0 1-.211.117h-.003l-.934-.934-.294-.295 3.762-3.758 1.82-.393.874.874c-1.255 1.102-2.971 2.201-5.1 3.268zm5.279-3.428h-.002l-.839-.839 4.699-4.125a.952.952 0 0 0 .119-.127c-.148 1.345-2.029 3.245-3.977 5.091zm3.657-6.46l-.003-.002a1.822 1.822 0 0 1 2.459-2.684l-1.61 1.613a.119.119 0 0 0 0 .169l1.247 1.247a1.817 1.817 0 0 1-2.093-.343zm2.578 0a1.714 1.714 0 0 1-.271.218h-.001l-1.207-1.207 1.533-1.533c.661.72.637 1.832-.054 2.522zM18.855 6.05a.143.143 0 0 0-.053.157.416.416 0 0 1-.053.45.14.14 0 0 0 .023.197.141.141 0 0 0 .084.03.14.14 0 0 0 .106-.05.691.691 0 0 0 .087-.751.138.138 0 0 0-.194-.033z" /></svg><g><g data-text="Postman" data-family="sans" data-size="16.0" data-weight="450.0" data-spacing="0.0" data-x="675.6666666666666" data-y="232.0" data-anchor="start" fill="#e6edf3"><path d="M676.79 232.0V220.48H681.29Q681.45 220.48 681.68 220.49Q681.9 220.5 682.12 220.54Q683.03 220.69 683.66 221.18Q684.3 221.67 684.62 222.42Q684.94 223.18 684.94 224.08Q684.94 224.99 684.62 225.74Q684.29 226.49 683.66 226.99Q683.03 227.48 682.12 227.62Q681.9 227.65 681.67 227.67Q681.45 227.69 681.29 227.69H678.09V232.0ZM678.09 226.45H681.25Q681.4 226.45 681.59 226.43Q681.78 226.41 681.96 226.38Q682.53 226.25 682.9 225.9Q683.26 225.55 683.44 225.07Q683.61 224.59 683.61 224.08Q683.61 223.57 683.44 223.1Q683.26 222.62 682.9 222.27Q682.53 221.91 681.96 221.79Q681.78 221.75 681.59 221.73Q681.4 221.72 681.25 221.72H678.09ZM690.19 232.24Q688.9 232.24 687.97 231.66Q687.05 231.07 686.56 230.04Q686.06 229.01 686.06 227.67Q686.06 226.31 686.57 225.29Q687.07 224.26 688.0 223.69Q688.92 223.12 690.19 223.12Q691.48 223.12 692.41 223.7Q693.33 224.28 693.83 225.31Q694.32 226.33 694.32 227.67Q694.32 229.03 693.82 230.06Q693.32 231.08 692.4 231.66Q691.47 232.24 690.19 232.24ZM690.19 231.0Q691.58 231.0 692.26 230.07Q692.94 229.15 692.94 227.67Q692.94 226.16 692.25 225.26Q691.57 224.36 690.19 224.36Q689.25 224.36 688.64 224.78Q688.04 225.2 687.74 225.95Q687.44 226.69 687.44 227.67Q687.44 229.18 688.14 230.09Q688.84 231.0 690.19 231.0ZM699.33 232.23Q697.79 232.23 696.81 231.57Q695.83 230.9 695.6 229.71L696.93 229.49Q697.11 230.21 697.77 230.64Q698.43 231.06 699.4 231.06Q700.33 231.06 700.87 230.67Q701.41 230.28 701.41 229.61Q701.41 229.22 701.23 228.98Q701.06 228.74 700.52 228.54Q699.98 228.33 698.91 228.04Q697.75 227.73 697.09 227.41Q696.42 227.08 696.15 226.65Q695.87 226.23 695.87 225.62Q695.87 224.87 696.28 224.31Q696.7 223.74 697.44 223.43Q698.18 223.12 699.17 223.12Q700.15 223.12 700.92 223.43Q701.69 223.75 702.17 224.32Q702.64 224.89 702.73 225.64L701.4 225.88Q701.29 225.16 700.69 224.73Q700.09 224.31 699.16 224.29Q698.28 224.27 697.73 224.62Q697.18 224.96 697.18 225.55Q697.18 225.88 697.38 226.12Q697.58 226.35 698.12 226.56Q698.66 226.76 699.68 227.02Q700.85 227.32 701.52 227.65Q702.19 227.99 702.47 228.45Q702.75 228.91 702.75 229.58Q702.75 230.82 701.84 231.52Q700.93 232.23 699.33 232.23ZM709.29 232.0Q708.54 232.15 707.81 232.12Q707.08 232.1 706.51 231.82Q705.94 231.55 705.65 230.97Q705.4 230.47 705.38 229.96Q705.36 229.45 705.36 228.8V220.96H706.66V228.75Q706.66 229.29 706.67 229.66Q706.69 230.02 706.84 230.3Q707.13 230.83 707.75 230.92Q708.38 231.01 709.29 230.87ZM703.56 224.45V223.36H709.29V224.45ZM721.34 232.0 721.35 226.4Q721.35 225.41 720.81 224.85Q720.27 224.29 719.43 224.29Q718.95 224.29 718.5 224.52Q718.05 224.74 717.77 225.22Q717.48 225.7 717.48 226.47L716.76 226.22Q716.73 225.29 717.13 224.6Q717.52 223.9 718.2 223.52Q718.89 223.13 719.76 223.13Q721.09 223.13 721.87 223.95Q722.65 224.76 722.65 226.13L722.64 232.0ZM711.01 232.0V223.36H712.18V225.58H712.32V232.0ZM716.18 232.0 716.19 226.47Q716.19 225.46 715.66 224.88Q715.13 224.29 714.26 224.29Q713.39 224.29 712.86 224.89Q712.32 225.49 712.32 226.47L711.59 226.05Q711.59 225.21 711.99 224.55Q712.39 223.89 713.07 223.51Q713.75 223.13 714.62 223.13Q715.47 223.13 716.12 223.49Q716.76 223.85 717.12 224.53Q717.48 225.21 717.48 226.16L717.47 232.0ZM727.19 232.24Q726.22 232.24 725.56 231.89Q724.9 231.53 724.57 230.95Q724.25 230.36 724.25 229.67Q724.25 228.98 724.52 228.48Q724.79 227.98 725.27 227.66Q725.75 227.33 726.4 227.15Q727.04 226.99 727.82 226.86Q728.6 226.74 729.37 226.64Q730.15 226.54 730.78 226.45L730.31 226.72Q730.34 225.51 729.83 224.93Q729.33 224.34 728.1 224.34Q727.26 224.34 726.66 224.72Q726.06 225.1 725.82 225.93L724.57 225.55Q724.87 224.41 725.77 223.76Q726.67 223.12 728.11 223.12Q729.29 223.12 730.13 223.55Q730.96 223.98 731.32 224.83Q731.49 225.21 731.54 225.68Q731.59 226.15 731.59 226.65V232.0H730.43V229.88L730.73 230.04Q730.27 231.12 729.37 231.68Q728.46 232.24 727.19 232.24ZM727.37 231.13Q728.16 231.13 728.75 230.85Q729.34 230.57 729.7 230.08Q730.06 229.6 730.17 229.0Q730.28 228.59 730.29 228.1Q730.3 227.61 730.3 227.35L730.77 227.57Q730.12 227.66 729.43 227.75Q728.75 227.83 728.11 227.93Q727.47 228.03 726.96 228.17Q726.6 228.28 726.27 228.46Q725.95 228.65 725.75 228.94Q725.54 229.23 725.54 229.67Q725.54 230.03 725.73 230.37Q725.91 230.71 726.31 230.92Q726.71 231.13 727.37 231.13ZM739.87 232.0V227.63Q739.87 226.97 739.74 226.38Q739.62 225.79 739.34 225.34Q739.05 224.89 738.59 224.63Q738.12 224.38 737.44 224.38Q736.86 224.38 736.4 224.57Q735.95 224.77 735.63 225.16Q735.31 225.54 735.14 226.11Q734.98 226.68 734.98 227.42L734.09 227.18Q734.09 225.89 734.55 224.99Q735.01 224.09 735.83 223.61Q736.64 223.14 737.73 223.14Q738.53 223.14 739.12 223.39Q739.71 223.64 740.1 224.07Q740.5 224.49 740.74 225.02Q740.97 225.55 741.08 226.13Q741.18 226.7 741.18 227.24V232.0ZM733.66 232.0V223.36H734.83V225.58H734.98V232.0Z" /></g></g></svg>
