<svg xmlns="http://www.w3.org/2000/svg" width="600" height="264" viewBox="0 0 600 264" role="img" aria-labelledby="title desc"><title id="title">My toolkit</title><desc id="desc">Languages: Java, C, C++, Python, SQL, JavaScript; Frameworks: Spring Boot, React, Next.js, FastAPI; Tools &amp; data: Docker, PostgreSQL, MySQL, Git, Linux, Postman</desc><rect x=".5" y=".5" width="599" height="263" rx="10" fill="#111814" stroke="#28352f" stroke-opacity="1" /><g><g data-text="LANGUAGES" data-family="mono" data-size="12.0" data-weight="500.0" data-spacing="0.0" data-x="24.0" data-y="52.0" data-anchor="start" fill="#a7b2bc"><path d="M25.31 52.0V43.24H26.6V50.81H30.44V52.0ZM31.71 52.0 33.95 43.24H35.65L37.89 52.0H36.57L36.05 49.78H33.56L33.03 52.0ZM33.8 48.71H35.79L35.2 46.18Q35.04 45.51 34.93 45.01Q34.83 44.52 34.8 44.33Q34.77 44.52 34.67 45.01Q34.57 45.5 34.41 46.17ZM39.37 52.0V43.24H41.01L43.56 50.52Q43.54 50.18 43.5 49.7Q43.47 49.22 43.44 48.7Q43.42 48.19 43.42 47.76V43.24H44.63V52.0H42.99L40.45 44.72Q40.48 45.03 40.51 45.5Q40.53 45.96 40.56 46.46Q40.58 46.97 40.58 47.4V52.0ZM49.25 52.12Q48.43 52.12 47.83 51.81Q47.22 51.5 46.89 50.92Q46.56 50.35 46.56 49.56V45.68Q46.56 44.88 46.89 44.31Q47.22 43.74 47.83 43.43Q48.43 43.12 49.25 43.12Q50.07 43.12 50.67 43.43Q51.27 43.75 51.6 44.32Q51.92 44.89 51.92 45.68H50.63Q50.63 45.0 50.27 44.63Q49.9 44.27 49.25 44.27Q48.59 44.27 48.22 44.63Q47.85 44.99 47.85 45.67V49.56Q47.85 50.24 48.22 50.61Q48.59 50.98 49.25 50.98Q49.9 50.98 50.27 50.61Q50.63 50.24 50.63 49.56V48.58H49.0V47.44H51.92V49.56Q51.92 50.34 51.6 50.92Q51.27 51.49 50.67 51.81Q50.07 52.12 49.25 52.12ZM56.4 52.12Q55.14 52.12 54.46 51.43Q53.77 50.74 53.77 49.55V43.24H55.07V49.55Q55.07 50.22 55.4 50.6Q55.73 50.98 56.4 50.98Q57.06 50.98 57.39 50.6Q57.73 50.22 57.73 49.55V43.24H59.03V49.55Q59.03 50.74 58.35 51.43Q57.66 52.12 56.4 52.12ZM60.51 52.0 62.75 43.24H64.45L66.69 52.0H65.37L64.85 49.78H62.36L61.83 52.0ZM62.6 48.71H64.59L64.0 46.18Q63.84 45.51 63.73 45.01Q63.63 44.52 63.6 44.33Q63.57 44.52 63.47 45.01Q63.37 45.5 63.21 46.17ZM70.85 52.12Q70.03 52.12 69.43 51.81Q68.82 51.5 68.49 50.92Q68.16 50.35 68.16 49.56V45.68Q68.16 44.88 68.49 44.31Q68.82 43.74 69.43 43.43Q70.03 43.12 70.85 43.12Q71.67 43.12 72.27 43.43Q72.87 43.75 73.2 44.32Q73.52 44.89 73.52 45.68H72.23Q72.23 45.0 71.87 44.63Q71.5 44.27 70.85 44.27Q70.19 44.27 69.82 44.63Q69.45 44.99 69.45 45.67V49.56Q69.45 50.24 69.82 50.61Q70.19 50.98 70.85 50.98Q71.5 50.98 71.87 50.61Q72.23 50.24 72.23 49.56V48.58H70.6V47.44H73.52V49.56Q73.52 50.34 73.2 50.92Q72.87 51.49 72.27 51.81Q71.67 52.12 70.85 52.12ZM75.53 52.0V43.24H80.68V44.39H76.8V46.88H80.26V48.02H76.8V50.85H80.68V52.0ZM85.23 52.12Q84.35 52.12 83.71 51.82Q83.08 51.53 82.73 50.98Q82.38 50.44 82.37 49.68H83.67Q83.67 50.28 84.09 50.63Q84.51 50.97 85.24 50.97Q85.94 50.97 86.34 50.64Q86.73 50.3 86.73 49.7Q86.73 49.22 86.46 48.86Q86.19 48.5 85.69 48.36L84.59 48.04Q83.63 47.77 83.1 47.1Q82.58 46.43 82.58 45.51Q82.58 44.78 82.91 44.25Q83.24 43.71 83.83 43.41Q84.43 43.11 85.24 43.11Q86.45 43.11 87.18 43.76Q87.9 44.41 87.91 45.5H86.61Q86.61 44.92 86.25 44.59Q85.89 44.26 85.23 44.26Q84.59 44.26 84.23 44.57Q83.87 44.87 83.87 45.42Q83.87 45.91 84.14 46.27Q84.41 46.63 84.91 46.78L86.03 47.11Q86.99 47.38 87.51 48.05Q88.03 48.72 88.03 49.66Q88.03 50.4 87.68 50.95Q87.33 51.51 86.7 51.81Q86.07 52.12 85.23 52.12Z" /></g></g><svg x="150" y="24" width="18" height="18" viewBox="0 0 128 128" fill="#a7b2bc"><path d="M47.617 98.12c-19.192 5.362 11.677 16.439 36.115 5.969-4.003-1.556-6.874-3.351-6.874-3.351-10.897 2.06-15.952 2.222-25.844 1.092-8.164-.935-3.397-3.71-3.397-3.71zm33.189-10.46c-14.444 2.779-22.787 2.69-33.354 1.6-8.171-.845-2.822-4.805-2.822-4.805-21.137 7.016 11.767 14.977 41.309 6.336-3.14-1.106-5.133-3.131-5.133-3.131zm11.319-60.575c.001 0-42.731 10.669-22.323 34.187 6.024 6.935-1.58 13.17-1.58 13.17s15.289-7.891 8.269-17.777c-6.559-9.215-11.587-13.793 15.634-29.58zm9.998 81.144s3.529 2.91-3.888 5.159c-14.102 4.272-58.706 5.56-71.095.171-4.45-1.938 3.899-4.625 6.526-5.192 2.739-.593 4.303-.485 4.303-.485-4.952-3.487-32.013 6.85-13.742 9.815 49.821 8.076 90.817-3.637 77.896-9.468zM85 77.896c2.395-1.634 5.703-3.053 5.703-3.053s-9.424 1.685-18.813 2.474c-11.494.964-23.823 1.154-30.012.326-14.652-1.959 8.033-7.348 8.033-7.348s-8.812-.596-19.644 4.644C17.455 81.134 61.958 83.958 85 77.896zm5.609 15.145c-.108.29-.468.616-.468.616 31.273-8.221 19.775-28.979 4.822-23.725-1.312.464-2 1.543-2 1.543s.829-.334 2.678-.72c7.559-1.575 18.389 10.119-5.032 22.286zM64.181 70.069c-4.614-10.429-20.26-19.553.007-35.559C89.459 14.563 76.492 1.587 76.492 1.587c5.23 20.608-18.451 26.833-26.999 39.667-5.821 8.745 2.857 18.142 14.688 28.815zm27.274 51.748c-19.187 3.612-42.854 3.191-56.887.874 0 0 2.874 2.38 17.646 3.331 22.476 1.437 57-.8 57.816-11.436.001 0-1.57 4.032-18.575 7.231z" /></svg><g><g data-text="Java" data-family="sans" data-size="14.5" data-weight="450.0" data-spacing="0.0" data-x="175.0" data-y="38.0" data-anchor="start" fill="#e6edf3"><path d="M177.85 38.21Q176.78 38.21 176.02 37.62Q175.27 37.03 175.0 36.05L176.17 35.77Q176.3 36.32 176.76 36.7Q177.22 37.09 177.83 37.09Q178.22 37.09 178.63 36.9Q179.03 36.71 179.25 36.27Q179.4 35.97 179.43 35.61Q179.46 35.25 179.46 34.76V27.56H180.64V34.76Q180.64 35.2 180.64 35.55Q180.63 35.91 180.56 36.23Q180.49 36.55 180.3 36.88Q179.92 37.56 179.27 37.88Q178.63 38.21 177.85 38.21ZM185.06 38.22Q184.18 38.22 183.58 37.9Q182.99 37.58 182.69 37.05Q182.39 36.52 182.39 35.89Q182.39 35.26 182.64 34.81Q182.88 34.36 183.32 34.06Q183.76 33.77 184.35 33.6Q184.93 33.46 185.63 33.34Q186.34 33.23 187.04 33.14Q187.74 33.05 188.31 32.97L187.89 33.22Q187.91 32.12 187.46 31.59Q187.0 31.06 185.88 31.06Q185.13 31.06 184.58 31.4Q184.04 31.74 183.82 32.5L182.69 32.16Q182.96 31.12 183.77 30.54Q184.59 29.95 185.9 29.95Q186.97 29.95 187.72 30.34Q188.48 30.73 188.81 31.5Q188.96 31.85 189.01 32.27Q189.05 32.7 189.05 33.15V38.0H188.0V36.08L188.27 36.22Q187.85 37.21 187.03 37.71Q186.22 38.22 185.06 38.22ZM185.22 37.22Q185.94 37.22 186.48 36.96Q187.01 36.7 187.34 36.26Q187.66 35.82 187.76 35.28Q187.86 34.91 187.87 34.47Q187.88 34.02 187.88 33.78L188.31 33.99Q187.72 34.07 187.09 34.15Q186.47 34.22 185.89 34.31Q185.31 34.4 184.85 34.53Q184.53 34.63 184.23 34.8Q183.94 34.96 183.75 35.23Q183.57 35.49 183.57 35.89Q183.57 36.22 183.73 36.52Q183.9 36.83 184.26 37.02Q184.63 37.22 185.22 37.22ZM193.05 38.0 190.21 30.17H191.4L193.66 36.48L195.9 30.17H197.1L194.26 38.0ZM200.64 38.22Q199.76 38.22 199.17 37.9Q198.57 37.58 198.27 37.05Q197.97 36.52 197.97 35.89Q197.97 35.26 198.22 34.81Q198.46 34.36 198.9 34.06Q199.34 33.77 199.93 33.6Q200.51 33.46 201.21 33.34Q201.92 33.23 202.62 33.14Q203.32 33.05 203.89 32.97L203.47 33.22Q203.49 32.12 203.04 31.59Q202.59 31.06 201.46 31.06Q200.71 31.06 200.16 31.4Q199.62 31.74 199.4 32.5L198.27 32.16Q198.54 31.12 199.36 30.54Q200.17 29.95 201.48 29.95Q202.55 29.95 203.31 30.34Q204.06 30.73 204.39 31.5Q204.54 31.85 204.59 32.27Q204.63 32.7 204.63 33.15V38.0H203.58V36.08L203.85 36.22Q203.43 37.21 202.62 37.71Q201.8 38.22 200.64 38.22ZM200.8 37.22Q201.52 37.22 202.06 36.96Q202.59 36.7 202.92 36.26Q203.24 35.82 203.34 35.28Q203.44 34.91 203.45 34.47Q203.46 34.02 203.46 33.78L203.89 33.99Q203.3 34.07 202.68 34.15Q202.05 34.22 201.48 34.31Q200.9 34.4 200.44 34.53Q200.11 34.63 199.81 34.8Q199.52 34.96 199.33 35.23Q199.15 35.49 199.15 35.89Q199.15 36.22 199.32 36.52Q199.48 36.83 199.84 37.02Q200.21 37.22 200.8 37.22Z" /></g></g><svg x="293" y="24" width="18" height="18" viewBox="0 0 24 24" fill="#a7b2bc"><path d="M16.5921 9.1962s-.354-3.298-3.627-3.39c-3.2741-.09-4.9552 2.474-4.9552 6.14 0 3.6651 1.858 6.5972 5.0451 6.5972 3.184 0 3.5381-3.665 3.5381-3.665l6.1041.365s.36 3.31-2.196 5.836c-2.552 2.5241-5.6901 2.9371-7.8762 2.9201-2.19-.017-5.2261.034-8.1602-2.97-2.938-3.0101-3.436-5.9302-3.436-8.8002 0-2.8701.556-6.6702 4.047-9.5502C7.444.72 9.849 0 12.254 0c10.0422 0 10.7172 9.2602 10.7172 9.2602z" /></svg><g><g data-text="C" data-family="sans" data-size="14.5" data-weight="450.0" data-spacing="0.0" data-x="318.0" data-y="38.0" data-anchor="start" fill="#e6edf3"><path d="M323.28 38.22Q321.71 38.22 320.63 37.53Q319.55 36.84 318.99 35.61Q318.44 34.39 318.44 32.78Q318.44 31.17 318.99 29.95Q319.55 28.72 320.63 28.03Q321.71 27.34 323.28 27.34Q325.09 27.34 326.25 28.27Q327.41 29.2 327.85 30.76L326.65 31.07Q326.32 29.87 325.48 29.17Q324.64 28.47 323.28 28.47Q322.08 28.47 321.28 29.01Q320.49 29.56 320.09 30.53Q319.69 31.5 319.68 32.78Q319.67 34.06 320.07 35.03Q320.47 36.0 321.28 36.54Q322.08 37.09 323.28 37.09Q324.64 37.09 325.48 36.39Q326.32 35.68 326.65 34.49L327.85 34.8Q327.41 36.36 326.25 37.29Q325.09 38.22 323.28 38.22Z" /></g></g><svg x="436" y="24" width="18" height="18" viewBox="0 0 24 24" fill="#a7b2bc"><path d="M22.394 6c-.167-.29-.398-.543-.652-.69L12.926.22c-.509-.294-1.34-.294-1.848 0L2.26 5.31c-.508.293-.923 1.013-.923 1.6v10.18c0 .294.104.62.271.91.167.29.398.543.652.69l8.816 5.09c.508.293 1.34.293 1.848 0l8.816-5.09c.254-.147.485-.4.652-.69.167-.29.27-.616.27-.91V6.91c.003-.294-.1-.62-.268-.91zM12 19.11c-3.92 0-7.109-3.19-7.109-7.11 0-3.92 3.19-7.11 7.11-7.11a7.133 7.133 0 016.156 3.553l-3.076 1.78a3.567 3.567 0 00-3.08-1.78A3.56 3.56 0 008.444 12 3.56 3.56 0 0012 15.555a3.57 3.57 0 003.08-1.778l3.078 1.78A7.135 7.135 0 0112 19.11zm7.11-6.715h-.79v.79h-.79v-.79h-.79v-.79h.79v-.79h.79v.79h.79zm2.962 0h-.79v.79h-.79v-.79h-.79v-.79h.79v-.79h.79v.79h.79z" /></svg><g><g data-text="C++" data-family="sans" data-size="14.5" data-weight="450.0" data-spacing="0.0" data-x="461.0" data-y="38.0" data-anchor="start" fill="#e6edf3"><path d="M466.28 38.22Q464.71 38.22 463.63 37.53Q462.55 36.84 461.99 35.61Q461.44 34.39 461.44 32.78Q461.44 31.17 461.99 29.95Q462.55 28.72 463.63 28.03Q464.71 27.34 466.28 27.34Q468.09 27.34 469.25 28.27Q470.41 29.2 470.85 30.76L469.65 31.07Q469.32 29.87 468.48 29.17Q467.64 28.47 466.28 28.47Q465.08 28.47 464.28 29.01Q463.49 29.56 463.09 30.53Q462.69 31.5 462.68 32.78Q462.67 34.06 463.07 35.03Q463.47 36.0 464.28 36.54Q465.08 37.09 466.28 37.09Q467.64 37.09 468.48 36.39Q469.32 35.68 469.65 34.49L470.85 34.8Q470.41 36.36 469.25 37.29Q468.09 38.22 466.28 38.22ZM475.11 36.08V33.27H472.3V32.28H475.11V29.48H476.1V32.28H478.91V33.27H476.1V36.08ZM483.46 36.08V33.27H480.65V32.28H483.46V29.48H484.45V32.28H487.26V33.27H484.45V36.08Z" /></g></g><svg x="150" y="55" width="18" height="18" viewBox="0 0 24 24" fill="#a7b2bc"><path d="M14.25.18l.9.2.73.26.59.3.45.32.34.34.25.34.16.33.1.3.04.26.02.2-.01.13V8.5l-.05.63-.13.55-.21.46-.26.38-.3.31-.33.25-.35.19-.35.14-.33.1-.3.07-.26.04-.21.02H8.77l-.69.05-.59.14-.5.22-.41.27-.33.32-.27.35-.2.36-.15.37-.1.35-.07.32-.04.27-.02.21v3.06H3.17l-.21-.03-.28-.07-.32-.12-.35-.18-.36-.26-.36-.36-.35-.46-.32-.59-.28-.73-.21-.88-.14-1.05-.05-1.23.06-1.22.16-1.04.24-.87.32-.71.36-.57.4-.44.42-.33.42-.24.4-.16.36-.1.32-.05.24-.01h.16l.06.01h8.16v-.83H6.18l-.01-2.75-.02-.37.05-.34.11-.31.17-.28.25-.26.31-.23.38-.2.44-.18.51-.15.58-.12.64-.1.71-.06.77-.04.84-.02 1.27.05zm-6.3 1.98l-.23.33-.08.41.08.41.23.34.33.22.41.09.41-.09.33-.22.23-.34.08-.41-.08-.41-.23-.33-.33-.22-.41-.09-.41.09zm13.09 3.95l.28.06.32.12.35.18.36.27.36.35.35.47.32.59.28.73.21.88.14 1.04.05 1.23-.06 1.23-.16 1.04-.24.86-.32.71-.36.57-.4.45-.42.33-.42.24-.4.16-.36.09-.32.05-.24.02-.16-.01h-8.22v.82h5.84l.01 2.76.02.36-.05.34-.11.31-.17.29-.25.25-.31.24-.38.2-.44.17-.51.15-.58.13-.64.09-.71.07-.77.04-.84.01-1.27-.04-1.07-.14-.9-.2-.73-.25-.59-.3-.45-.33-.34-.34-.25-.34-.16-.33-.1-.3-.04-.25-.02-.2.01-.13v-5.34l.05-.64.13-.54.21-.46.26-.38.3-.32.33-.24.35-.2.35-.14.33-.1.3-.06.26-.04.21-.02.13-.01h5.84l.69-.05.59-.14.5-.21.41-.28.33-.32.27-.35.2-.36.15-.36.1-.35.07-.32.04-.28.02-.21V6.07h2.09l.14.01zm-6.47 14.25l-.23.33-.08.41.08.41.23.33.33.23.41.08.41-.08.33-.23.23-.33.08-.41-.08-.41-.23-.33-.33-.23-.41-.08-.41.08z" /></svg><g><g data-text="Python" data-family="sans" data-size="14.5" data-weight="450.0" data-spacing="0.0" data-x="175.0" data-y="69.0" data-anchor="start" fill="#e6edf3"><path d="M176.01 69.0V58.56H180.09Q180.25 58.56 180.45 58.57Q180.65 58.58 180.84 58.62Q181.67 58.75 182.25 59.19Q182.82 59.64 183.11 60.32Q183.41 61.0 183.41 61.82Q183.41 62.65 183.11 63.33Q182.82 64.01 182.24 64.46Q181.67 64.9 180.84 65.03Q180.65 65.06 180.44 65.08Q180.24 65.09 180.09 65.09H177.19V69.0ZM177.19 63.97H180.06Q180.19 63.97 180.37 63.95Q180.54 63.94 180.71 63.9Q181.22 63.79 181.55 63.47Q181.88 63.15 182.04 62.72Q182.2 62.29 182.2 61.82Q182.2 61.36 182.04 60.93Q181.88 60.5 181.55 60.18Q181.22 59.86 180.71 59.75Q180.54 59.71 180.37 59.69Q180.19 59.68 180.06 59.68H177.19ZM185.96 72.48 187.47 68.37 187.5 69.58 184.07 61.17H185.31L188.06 68.07H187.6L190.15 61.17H191.35L187.12 72.48ZM196.9 69.0Q196.22 69.14 195.56 69.11Q194.9 69.09 194.38 68.84Q193.86 68.59 193.6 68.06Q193.38 67.61 193.36 67.15Q193.34 66.69 193.34 66.1V58.99H194.52V66.05Q194.52 66.54 194.53 66.87Q194.54 67.21 194.68 67.46Q194.94 67.94 195.51 68.02Q196.07 68.11 196.9 67.98ZM191.71 62.16V61.17H196.9V62.16ZM204.08 69.0V65.04Q204.08 64.44 203.97 63.91Q203.86 63.38 203.6 62.97Q203.34 62.56 202.92 62.32Q202.5 62.09 201.89 62.09Q201.36 62.09 200.95 62.27Q200.53 62.45 200.24 62.8Q199.96 63.15 199.8 63.66Q199.65 64.18 199.65 64.85L198.85 64.63Q198.85 63.47 199.27 62.65Q199.68 61.83 200.42 61.4Q201.16 60.97 202.15 60.97Q202.88 60.97 203.41 61.2Q203.94 61.43 204.3 61.81Q204.66 62.19 204.87 62.68Q205.09 63.16 205.18 63.68Q205.27 64.2 205.27 64.68V69.0ZM198.46 69.0V58.56H199.52V64.39H199.65V69.0ZM210.46 69.22Q209.29 69.22 208.46 68.69Q207.62 68.16 207.17 67.23Q206.72 66.29 206.72 65.08Q206.72 63.85 207.18 62.92Q207.64 61.99 208.47 61.47Q209.31 60.95 210.46 60.95Q211.63 60.95 212.47 61.48Q213.31 62.01 213.76 62.94Q214.21 63.87 214.21 65.08Q214.21 66.31 213.75 67.24Q213.3 68.17 212.46 68.69Q211.62 69.22 210.46 69.22ZM210.46 68.09Q211.72 68.09 212.34 67.25Q212.95 66.41 212.95 65.08Q212.95 63.71 212.33 62.89Q211.71 62.08 210.46 62.08Q209.61 62.08 209.06 62.46Q208.51 62.84 208.24 63.52Q207.97 64.19 207.97 65.08Q207.97 66.44 208.6 67.27Q209.24 68.09 210.46 68.09ZM221.42 69.0V65.04Q221.42 64.44 221.3 63.91Q221.19 63.38 220.93 62.97Q220.68 62.56 220.26 62.32Q219.84 62.09 219.22 62.09Q218.69 62.09 218.28 62.27Q217.86 62.45 217.58 62.8Q217.29 63.15 217.14 63.66Q216.98 64.18 216.98 64.85L216.18 64.63Q216.18 63.47 216.6 62.65Q217.01 61.83 217.75 61.4Q218.49 60.97 219.48 60.97Q220.21 60.97 220.74 61.2Q221.27 61.43 221.63 61.81Q221.99 62.19 222.21 62.68Q222.42 63.16 222.51 63.68Q222.6 64.2 222.6 64.68V69.0ZM215.79 69.0V61.17H216.86V63.18H216.98V69.0Z" /></g></g><svg x="293" y="55" width="18" height="18" viewBox="0 0 24 24" fill="#a7b2bc"><g fill="none" stroke="#c4d3c9" stroke-width="1.8"><ellipse cx="12" cy="5" rx="8" ry="3" /><path d="M4 5v14c0 1.7 3.6 3 8 3s8-1.3 8-3V5M4 12c0 1.7 3.6 3 8 3s8-1.3 8-3" /></g></svg><g><g data-text="SQL" data-family="sans" data-size="14.5" data-weight="450.0" data-spacing="0.0" data-x="318.0" data-y="69.0" data-anchor="start" fill="#e6edf3"><path d="M322.68 69.22Q321.58 69.22 320.7 68.85Q319.82 68.47 319.24 67.79Q318.67 67.1 318.5 66.16L319.71 65.96Q319.96 66.96 320.79 67.53Q321.61 68.09 322.73 68.09Q323.47 68.09 324.06 67.86Q324.65 67.63 324.99 67.2Q325.33 66.77 325.33 66.18Q325.33 65.8 325.2 65.53Q325.06 65.26 324.84 65.08Q324.62 64.9 324.35 64.77Q324.07 64.65 323.8 64.57L321.15 63.78Q320.69 63.64 320.28 63.44Q319.88 63.23 319.57 62.93Q319.26 62.63 319.08 62.21Q318.9 61.8 318.9 61.25Q318.9 60.34 319.37 59.69Q319.85 59.04 320.66 58.69Q321.48 58.35 322.51 58.35Q323.56 58.35 324.39 58.72Q325.21 59.09 325.76 59.77Q326.3 60.45 326.48 61.4L325.24 61.62Q325.13 60.96 324.74 60.48Q324.36 60.0 323.78 59.74Q323.2 59.48 322.5 59.47Q321.83 59.47 321.3 59.69Q320.77 59.91 320.46 60.3Q320.15 60.69 320.15 61.2Q320.15 61.7 320.43 62.01Q320.71 62.31 321.13 62.49Q321.55 62.66 321.94 62.78L323.96 63.36Q324.29 63.45 324.73 63.62Q325.17 63.78 325.58 64.09Q326.0 64.39 326.27 64.88Q326.54 65.37 326.54 66.12Q326.54 66.86 326.25 67.44Q325.95 68.02 325.42 68.41Q324.9 68.81 324.2 69.01Q323.49 69.22 322.68 69.22ZM336.25 69.21 333.43 66.41 334.22 65.62 337.02 68.42ZM332.31 69.22Q330.75 69.22 329.67 68.53Q328.59 67.84 328.03 66.61Q327.47 65.39 327.47 63.78Q327.47 62.17 328.03 60.95Q328.59 59.72 329.67 59.03Q330.75 58.34 332.31 58.34Q333.87 58.34 334.95 59.03Q336.03 59.72 336.59 60.95Q337.15 62.17 337.15 63.78Q337.15 65.39 336.59 66.61Q336.03 67.84 334.95 68.53Q333.87 69.22 332.31 69.22ZM332.31 68.09Q333.51 68.09 334.3 67.55Q335.1 67.0 335.5 66.03Q335.9 65.06 335.9 63.78Q335.9 62.5 335.5 61.53Q335.1 60.56 334.3 60.02Q333.51 59.48 332.31 59.47Q331.12 59.47 330.32 60.01Q329.53 60.55 329.13 61.53Q328.73 62.5 328.72 63.78Q328.71 65.06 329.11 66.02Q329.51 66.99 330.31 67.54Q331.12 68.08 332.31 68.09ZM338.75 69.0V58.56H339.92V67.88H344.82V69.0Z" /></g></g><svg x="436" y="55" width="18" height="18" viewBox="0 0 24 24" fill="#a7b2bc"><path d="M0 0h24v24H0V0zm22.034 18.276c-.175-1.095-.888-2.015-3.003-2.873-.736-.345-1.554-.585-1.797-1.14-.091-.33-.105-.51-.046-.705.15-.646.915-.84 1.515-.66.39.12.75.42.976.9 1.034-.676 1.034-.676 1.755-1.125-.27-.42-.404-.601-.586-.78-.63-.705-1.469-1.065-2.834-1.034l-.705.089c-.676.165-1.32.525-1.71 1.005-1.14 1.291-.811 3.541.569 4.471 1.365 1.02 3.361 1.244 3.616 2.205.24 1.17-.87 1.545-1.966 1.41-.811-.18-1.26-.586-1.755-1.336l-1.83 1.051c.21.48.45.689.81 1.109 1.74 1.756 6.09 1.666 6.871-1.004.029-.09.24-.705.074-1.65l.046.067zm-8.983-7.245h-2.248c0 1.938-.009 3.864-.009 5.805 0 1.232.063 2.363-.138 2.711-.33.689-1.18.601-1.566.48-.396-.196-.597-.466-.83-.855-.063-.105-.11-.196-.127-.196l-1.825 1.125c.305.63.75 1.172 1.324 1.517.855.51 2.004.675 3.207.405.783-.226 1.458-.691 1.811-1.411.51-.93.402-2.07.397-3.346.012-2.054 0-4.109 0-6.179l.004-.056z" /></svg><g><g data-text="JavaScript" data-family="sans" data-size="14.5" data-weight="450.0" data-spacing="0.0" data-x="461.0" data-y="69.0" data-anchor="start" fill="#e6edf3"><path d="M463.85 69.21Q462.78 69.21 462.02 68.62Q461.27 68.03 461.0 67.05L462.17 66.77Q462.3 67.32 462.76 67.7Q463.22 68.09 463.83 68.09Q464.22 68.09 464.63 67.9Q465.03 67.71 465.25 67.27Q465.4 66.97 465.43 66.61Q465.46 66.25 465.46 65.76V58.56H466.64V65.76Q466.64 66.2 466.64 66.55Q466.63 66.91 466.56 67.23Q466.49 67.55 466.3 67.88Q465.92 68.56 465.27 68.88Q464.63 69.21 463.85 69.21ZM471.06 69.22Q470.18 69.22 469.58 68.9Q468.99 68.58 468.69 68.05Q468.39 67.52 468.39 66.89Q468.39 66.26 468.64 65.81Q468.88 65.36 469.32 65.06Q469.76 64.77 470.35 64.6Q470.93 64.46 471.63 64.34Q472.34 64.23 473.04 64.14Q473.74 64.05 474.31 63.97L473.89 64.22Q473.91 63.12 473.46 62.59Q473.0 62.06 471.88 62.06Q471.13 62.06 470.58 62.4Q470.04 62.74 469.82 63.5L468.69 63.16Q468.96 62.12 469.77 61.54Q470.59 60.95 471.9 60.95Q472.97 60.95 473.72 61.34Q474.48 61.73 474.81 62.5Q474.96 62.85 475.01 63.27Q475.05 63.7 475.05 64.15V69.0H474.0V67.08L474.27 67.22Q473.85 68.21 473.03 68.71Q472.22 69.22 471.06 69.22ZM471.22 68.22Q471.94 68.22 472.48 67.96Q473.01 67.7 473.34 67.26Q473.66 66.82 473.76 66.28Q473.86 65.91 473.87 65.47Q473.88 65.02 473.88 64.78L474.31 64.99Q473.72 65.07 473.09 65.15Q472.47 65.22 471.89 65.31Q471.31 65.4 470.85 65.53Q470.53 65.63 470.23 65.8Q469.94 65.96 469.75 66.23Q469.57 66.49 469.57 66.89Q469.57 67.22 469.73 67.52Q469.9 67.83 470.26 68.02Q470.63 68.22 471.22 68.22ZM479.05 69.0 476.21 61.17H477.4L479.66 67.48L481.9 61.17H483.1L480.26 69.0ZM486.64 69.22Q485.76 69.22 485.17 68.9Q484.57 68.58 484.27 68.05Q483.97 67.52 483.97 66.89Q483.97 66.26 484.22 65.81Q484.46 65.36 484.9 65.06Q485.34 64.77 485.93 64.6Q486.51 64.46 487.21 64.34Q487.92 64.23 488.62 64.14Q489.32 64.05 489.89 63.97L489.47 64.22Q489.49 63.12 489.04 62.59Q488.59 62.06 487.46 62.06Q486.71 62.06 486.16 62.4Q485.62 62.74 485.4 63.5L484.27 63.16Q484.54 62.12 485.36 61.54Q486.17 60.95 487.48 60.95Q488.55 60.95 489.31 61.34Q490.06 61.73 490.39 62.5Q490.54 62.85 490.59 63.27Q490.63 63.7 490.63 64.15V69.0H489.58V67.08L489.85 67.22Q489.43 68.21 488.62 68.71Q487.8 69.22 486.64 69.22ZM486.8 68.22Q487.52 68.22 488.06 67.96Q488.59 67.7 488.92 67.26Q489.24 66.82 489.34 66.28Q489.44 65.91 489.45 65.47Q489.46 65.02 489.46 64.78L489.89 64.99Q489.3 65.07 488.68 65.15Q488.05 65.22 487.48 65.31Q486.9 65.4 486.44 65.53Q486.11 65.63 485.81 65.8Q485.52 65.96 485.33 66.23Q485.15 66.49 485.15 66.89Q485.15 67.22 485.32 67.52Q485.48 67.83 485.84 68.02Q486.21 68.22 486.8 68.22ZM496.18 69.22Q495.08 69.22 494.2 68.85Q493.32 68.47 492.75 67.79Q492.17 67.1 492.0 66.16L493.21 65.96Q493.46 66.96 494.29 67.53Q495.11 68.09 496.24 68.09Q496.97 68.09 497.56 67.86Q498.15 67.63 498.49 67.2Q498.83 66.77 498.83 66.18Q498.83 65.8 498.7 65.53Q498.56 65.26 498.34 65.08Q498.12 64.9 497.85 64.77Q497.57 64.65 497.3 64.57L494.65 63.78Q494.19 63.64 493.78 63.44Q493.38 63.23 493.07 62.93Q492.76 62.63 492.58 62.21Q492.4 61.8 492.4 61.25Q492.4 60.34 492.87 59.69Q493.35 59.04 494.16 58.69Q494.98 58.35 496.02 58.35Q497.06 58.35 497.89 58.72Q498.72 59.09 499.26 59.77Q499.8 60.45 499.98 61.4L498.74 61.62Q498.63 60.96 498.25 60.48Q497.86 60.0 497.28 59.74Q496.7 59.48 496.0 59.47Q495.33 59.47 494.8 59.69Q494.27 59.91 493.96 60.3Q493.65 60.69 493.65 61.2Q493.65 61.7 493.93 62.01Q494.22 62.31 494.63 62.49Q495.05 62.66 495.44 62.78L497.46 63.36Q497.79 63.45 498.23 63.62Q498.67 63.78 499.08 64.09Q499.5 64.39 499.77 64.88Q500.04 65.37 500.04 66.12Q500.04 66.86 499.75 67.44Q499.45 68.02 498.93 68.41Q498.4 68.81 497.7 69.01Q497.0 69.22 496.18 69.22ZM504.83 69.22Q503.64 69.22 502.81 68.69Q501.99 68.16 501.56 67.22Q501.13 66.29 501.12 65.08Q501.13 63.86 501.57 62.93Q502.01 62.0 502.84 61.47Q503.66 60.95 504.84 60.95Q506.05 60.95 506.94 61.55Q507.82 62.14 508.14 63.17L506.98 63.53Q506.72 62.84 506.14 62.46Q505.57 62.08 504.83 62.08Q503.99 62.08 503.45 62.46Q502.91 62.85 502.64 63.53Q502.38 64.2 502.37 65.08Q502.38 66.44 503.0 67.27Q503.61 68.09 504.83 68.09Q505.61 68.09 506.14 67.74Q506.67 67.38 506.95 66.69L508.14 67.02Q507.72 68.09 506.87 68.65Q506.01 69.22 504.83 69.22ZM509.63 69.0V61.17H510.69V63.06L510.5 62.81Q510.63 62.46 510.85 62.16Q511.07 61.86 511.33 61.67Q511.63 61.41 512.02 61.28Q512.42 61.14 512.83 61.11Q513.23 61.09 513.58 61.17V62.28Q513.16 62.17 512.66 62.22Q512.17 62.28 511.75 62.6Q511.36 62.89 511.16 63.29Q510.96 63.7 510.89 64.16Q510.82 64.62 510.82 65.08V69.0ZM515.1 59.74V58.47H516.28V59.74ZM515.1 69.0V61.17H516.28V69.0ZM522.01 69.22Q520.92 69.22 520.17 68.67Q519.42 68.12 519.03 67.18Q518.64 66.25 518.64 65.08Q518.64 63.89 519.03 62.96Q519.42 62.03 520.17 61.49Q520.93 60.95 522.03 60.95Q523.11 60.95 523.89 61.5Q524.67 62.04 525.08 62.97Q525.5 63.91 525.5 65.08Q525.5 66.25 525.08 67.19Q524.67 68.13 523.88 68.67Q523.1 69.22 522.01 69.22ZM518.45 72.48V61.17H519.5V67.0H519.63V72.48ZM521.87 68.13Q522.67 68.13 523.2 67.73Q523.72 67.32 523.99 66.63Q524.25 65.94 524.25 65.08Q524.25 64.22 523.99 63.53Q523.73 62.84 523.2 62.44Q522.66 62.04 521.84 62.04Q521.05 62.04 520.53 62.42Q520.01 62.81 519.76 63.5Q519.5 64.18 519.5 65.08Q519.5 65.96 519.76 66.65Q520.01 67.34 520.54 67.74Q521.06 68.13 521.87 68.13ZM531.41 69.0Q530.73 69.14 530.07 69.11Q529.41 69.09 528.9 68.84Q528.38 68.59 528.11 68.06Q527.89 67.61 527.87 67.15Q527.85 66.69 527.85 66.1V58.99H529.03V66.05Q529.03 66.54 529.04 66.87Q529.05 67.21 529.19 67.46Q529.45 67.94 530.02 68.02Q530.59 68.11 531.41 67.98ZM526.22 62.16V61.17H531.41V62.16Z" /></g></g><path d="M24 98h552" stroke="#28352f" /><g><g data-text="FRAMEWORKS" data-family="mono" data-size="12.0" data-weight="500.0" data-spacing="0.0" data-x="24.0" data-y="137.0" data-anchor="start" fill="#9bd8bc"><path d="M25.05 137.0V128.23H30.35V129.42H26.32V132.05H30.04V133.24H26.35V137.0ZM32.21 137.0V128.24H34.95Q35.78 128.24 36.39 128.56Q37.01 128.88 37.35 129.45Q37.69 130.03 37.69 130.8Q37.69 131.68 37.24 132.33Q36.8 132.97 36.03 133.23L37.81 137.0H36.33L34.73 133.4H33.5V137.0ZM33.5 132.25H34.95Q35.6 132.25 35.99 131.87Q36.37 131.48 36.37 130.83Q36.37 130.16 35.99 129.78Q35.6 129.39 34.95 129.39H33.5ZM38.91 137.0 41.15 128.24H42.85L45.09 137.0H43.77L43.25 134.78H40.76L40.23 137.0ZM41.0 133.71H42.99L42.4 131.18Q42.24 130.51 42.13 130.01Q42.03 129.52 42.0 129.33Q41.97 129.52 41.87 130.01Q41.77 130.5 41.61 131.17ZM46.39 137.0V128.24H47.99L48.87 131.05Q49.0 131.45 49.1 131.81Q49.19 132.17 49.23 132.35Q49.27 132.17 49.36 131.81Q49.45 131.45 49.57 131.04L50.41 128.24H52.01V137.0H50.78V134.05Q50.78 133.49 50.81 132.8Q50.85 132.11 50.9 131.4Q50.96 130.7 51.02 130.06Q51.09 129.42 51.14 128.94L49.84 133.2H48.59L47.27 128.94Q47.33 129.4 47.39 130.02Q47.45 130.64 47.5 131.34Q47.55 132.03 47.59 132.74Q47.62 133.44 47.62 134.05V137.0ZM53.93 137.0V128.24H59.08V129.39H55.2V131.88H58.66V133.02H55.2V135.85H59.08V137.0ZM61.2 137.0 60.25 128.24H61.41L62.01 134.53Q62.03 134.77 62.05 135.06Q62.07 135.35 62.09 135.62Q62.1 135.9 62.1 136.09Q62.13 135.9 62.15 135.62Q62.17 135.35 62.2 135.06Q62.23 134.77 62.26 134.53L63.03 128.24H64.22L64.93 134.53Q64.96 134.77 64.99 135.06Q65.02 135.35 65.05 135.62Q65.09 135.9 65.1 136.09Q65.12 135.9 65.13 135.62Q65.15 135.35 65.17 135.06Q65.2 134.77 65.22 134.53L65.82 128.24H66.95L65.97 137.0H64.46L63.76 130.63Q63.74 130.38 63.71 130.1Q63.68 129.81 63.66 129.54Q63.63 129.28 63.62 129.09Q63.6 129.28 63.58 129.54Q63.55 129.81 63.52 130.1Q63.5 130.38 63.47 130.63L62.71 137.0ZM70.8 137.12Q69.98 137.12 69.39 136.81Q68.8 136.5 68.48 135.92Q68.16 135.35 68.16 134.56V130.68Q68.16 129.88 68.48 129.31Q68.8 128.74 69.39 128.43Q69.98 128.12 70.8 128.12Q71.62 128.12 72.21 128.43Q72.8 128.74 73.12 129.31Q73.44 129.88 73.44 130.67V134.56Q73.44 135.35 73.12 135.92Q72.8 136.5 72.21 136.81Q71.62 137.12 70.8 137.12ZM70.8 135.97Q71.46 135.97 71.8 135.61Q72.15 135.24 72.15 134.56V130.68Q72.15 130.0 71.81 129.63Q71.46 129.27 70.8 129.27Q70.15 129.27 69.8 129.63Q69.45 130.0 69.45 130.68V134.56Q69.45 135.24 69.8 135.61Q70.15 135.97 70.8 135.97ZM75.41 137.0V128.24H78.15Q78.98 128.24 79.59 128.56Q80.21 128.88 80.55 129.45Q80.89 130.03 80.89 130.8Q80.89 131.68 80.44 132.33Q80.0 132.97 79.23 133.23L81.01 137.0H79.53L77.93 133.4H76.7V137.0ZM76.7 132.25H78.15Q78.8 132.25 79.19 131.87Q79.57 131.48 79.57 130.83Q79.57 130.16 79.19 129.78Q78.8 129.39 78.15 129.39H76.7ZM82.61 137.0V128.24H83.9V131.89H85.07L86.86 128.24H88.27L86.21 132.44L88.37 137.0H86.91L85.04 133.05H83.9V137.0ZM92.43 137.12Q91.55 137.12 90.91 136.82Q90.28 136.53 89.93 135.98Q89.58 135.44 89.57 134.68H90.87Q90.87 135.28 91.29 135.63Q91.71 135.97 92.44 135.97Q93.14 135.97 93.54 135.64Q93.93 135.3 93.93 134.7Q93.93 134.22 93.66 133.86Q93.39 133.5 92.89 133.36L91.79 133.04Q90.83 132.77 90.3 132.1Q89.78 131.43 89.78 130.51Q89.78 129.78 90.11 129.25Q90.44 128.71 91.03 128.41Q91.63 128.11 92.44 128.11Q93.65 128.11 94.38 128.76Q95.1 129.41 95.11 130.5H93.81Q93.81 129.92 93.45 129.59Q93.09 129.26 92.43 129.26Q91.79 129.26 91.43 129.57Q91.07 129.87 91.07 130.42Q91.07 130.91 91.34 131.27Q91.61 131.63 92.11 131.78L93.23 132.11Q94.19 132.38 94.71 133.05Q95.23 133.72 95.23 134.66Q95.23 135.4 94.88 135.95Q94.53 136.51 93.9 136.81Q93.27 137.12 92.43 137.12Z" /></g></g><svg x="150" y="123" width="18" height="18" viewBox="0 0 24 24" fill="#a7b2bc"><path d="m23.693 10.7058-4.73-8.1844c-.4094-.7106-1.4166-1.2942-2.2402-1.2942H7.2725c-.819 0-1.8308.5836-2.2402 1.2942L.307 10.7058c-.4095.7106-.4095 1.873 0 2.5837l4.7252 8.189c.4094.7107 1.4166 1.2943 2.2402 1.2943h9.455c.819 0 1.826-.5836 2.2402-1.2942l4.7252-8.189c.4095-.7107.4095-1.8732 0-2.5838zM10.9763 5.7547c0-.5365.4377-.9742.9742-.9742s.9742.4377.9742.9742v5.8217c0 .5366-.4377.9742-.9742.9742s-.9742-.4376-.9742-.9742zm.9742 12.4294c-3.6427 0-6.6077-2.965-6.6077-6.6077.0047-2.0896.993-4.0521 2.6685-5.304a.8657.8657 0 0 1 1.2142.1788.8657.8657 0 0 1-.1788 1.2143c-2.1602 1.6048-2.612 4.6592-1.0072 6.8194 1.6049 2.1603 4.6593 2.612 6.8195 1.0072 1.2378-.9177 1.9673-2.372 1.9673-3.9157a4.8972 4.8972 0 0 0-1.9861-3.925c-.386-.2824-.466-.8284-.1836-1.2143.2824-.386.8283-.466 1.2143-.1835 1.6895 1.2471 2.6826 3.2238 2.6873 5.3228 0 3.6474-2.965 6.6077-6.6077 6.6077z" /></svg><g><g data-text="Spring Boot" data-family="sans" data-size="14.5" data-weight="550.0" data-spacing="0.0" data-x="175.0" data-y="137.0" data-anchor="start" fill="#e6edf3"><path d="M179.76 137.22Q178.64 137.22 177.75 136.84Q176.85 136.45 176.27 135.74Q175.69 135.03 175.52 134.06L176.97 133.83Q177.22 134.8 178.0 135.35Q178.78 135.89 179.84 135.89Q180.5 135.89 181.05 135.68Q181.6 135.47 181.93 135.08Q182.26 134.69 182.26 134.14Q182.26 133.83 182.15 133.59Q182.04 133.36 181.85 133.19Q181.66 133.02 181.41 132.9Q181.16 132.78 180.87 132.69L178.2 131.9Q177.79 131.78 177.39 131.59Q176.98 131.39 176.65 131.09Q176.32 130.79 176.12 130.36Q175.93 129.92 175.93 129.31Q175.93 128.37 176.41 127.7Q176.9 127.04 177.74 126.69Q178.57 126.35 179.62 126.35Q180.68 126.36 181.51 126.72Q182.34 127.09 182.89 127.77Q183.44 128.45 183.65 129.4L182.15 129.66Q182.04 129.05 181.68 128.61Q181.31 128.16 180.77 127.93Q180.24 127.69 179.6 127.68Q178.99 127.67 178.49 127.87Q178.0 128.07 177.7 128.43Q177.41 128.78 177.41 129.25Q177.41 129.7 177.67 129.99Q177.93 130.27 178.32 130.43Q178.71 130.59 179.09 130.69L181.05 131.25Q181.4 131.35 181.85 131.52Q182.31 131.69 182.73 131.99Q183.16 132.3 183.44 132.8Q183.71 133.29 183.71 134.05Q183.71 134.83 183.4 135.42Q183.09 136.01 182.55 136.41Q182.0 136.81 181.28 137.01Q180.57 137.22 179.76 137.22ZM188.89 137.22Q187.77 137.22 187.01 136.67Q186.26 136.12 185.87 135.19Q185.48 134.25 185.48 133.08Q185.48 131.9 185.87 130.96Q186.25 130.03 187.01 129.49Q187.77 128.95 188.88 128.95Q189.97 128.95 190.76 129.49Q191.55 130.03 191.98 130.97Q192.41 131.9 192.41 133.08Q192.41 134.25 191.98 135.19Q191.56 136.13 190.77 136.67Q189.98 137.22 188.89 137.22ZM185.24 140.48V129.17H186.49V134.87H186.65V140.48ZM188.7 135.94Q189.45 135.94 189.94 135.56Q190.43 135.18 190.68 134.53Q190.92 133.88 190.92 133.08Q190.92 132.28 190.68 131.64Q190.43 130.99 189.93 130.61Q189.43 130.23 188.66 130.23Q187.92 130.23 187.44 130.59Q186.96 130.95 186.72 131.59Q186.49 132.24 186.49 133.08Q186.49 133.91 186.72 134.56Q186.95 135.21 187.44 135.57Q187.93 135.94 188.7 135.94ZM194.01 137.0V129.17H195.26V131.07L195.07 130.82Q195.21 130.45 195.44 130.14Q195.66 129.83 195.95 129.63Q196.25 129.4 196.63 129.28Q197.01 129.15 197.4 129.12Q197.79 129.1 198.14 129.17V130.49Q197.75 130.38 197.27 130.43Q196.79 130.48 196.39 130.76Q196.01 131.01 195.8 131.37Q195.59 131.73 195.51 132.17Q195.42 132.6 195.42 133.06V137.0ZM199.66 127.83V126.43H201.06V127.83ZM199.66 137.0V129.17H201.06V137.0ZM208.78 137.0V133.12Q208.78 132.61 208.69 132.11Q208.6 131.61 208.37 131.2Q208.14 130.79 207.75 130.54Q207.35 130.29 206.72 130.29Q206.28 130.29 205.9 130.44Q205.52 130.59 205.24 130.91Q204.96 131.22 204.81 131.72Q204.65 132.21 204.65 132.9L203.76 132.59Q203.76 131.49 204.16 130.68Q204.57 129.86 205.31 129.41Q206.06 128.96 207.09 128.96Q207.87 128.96 208.42 129.21Q208.96 129.46 209.31 129.88Q209.66 130.29 209.86 130.78Q210.05 131.27 210.12 131.76Q210.2 132.26 210.2 132.66V137.0ZM203.23 137.0V129.17H204.49V131.35H204.65V137.0ZM215.28 140.7Q214.66 140.7 214.07 140.51Q213.48 140.32 212.99 139.93Q212.5 139.55 212.18 138.98L213.47 138.32Q213.74 138.85 214.24 139.1Q214.75 139.35 215.29 139.35Q215.98 139.35 216.46 139.1Q216.93 138.84 217.17 138.35Q217.41 137.85 217.4 137.11V134.95H217.57V129.17H218.81V137.13Q218.81 137.45 218.79 137.74Q218.77 138.03 218.71 138.31Q218.55 139.13 218.09 139.65Q217.63 140.18 216.92 140.44Q216.2 140.7 215.28 140.7ZM215.17 137.22Q214.08 137.22 213.29 136.67Q212.5 136.13 212.07 135.19Q211.65 134.25 211.65 133.08Q211.65 131.9 212.07 130.97Q212.5 130.03 213.3 129.49Q214.09 128.95 215.18 128.95Q216.29 128.95 217.05 129.49Q217.8 130.03 218.19 130.96Q218.58 131.9 218.58 133.08Q218.58 134.25 218.19 135.19Q217.8 136.12 217.04 136.67Q216.29 137.22 215.17 137.22ZM215.36 135.94Q216.13 135.94 216.62 135.57Q217.1 135.21 217.34 134.56Q217.57 133.91 217.57 133.08Q217.57 132.24 217.33 131.59Q217.1 130.95 216.62 130.59Q216.14 130.23 215.4 130.23Q214.63 130.23 214.12 130.61Q213.62 130.99 213.38 131.64Q213.14 132.28 213.14 133.08Q213.14 133.88 213.38 134.53Q213.62 135.18 214.12 135.56Q214.61 135.94 215.36 135.94ZM223.74 137.0V126.56H227.82Q228.79 126.56 229.46 126.95Q230.13 127.35 230.47 127.98Q230.82 128.62 230.82 129.34Q230.82 130.19 230.39 130.82Q229.96 131.45 229.23 131.68L229.22 131.32Q230.22 131.58 230.77 132.3Q231.31 133.01 231.31 133.98Q231.31 134.9 230.94 135.58Q230.57 136.25 229.88 136.63Q229.18 137.0 228.2 137.0ZM225.16 135.66H227.96Q228.51 135.66 228.94 135.46Q229.38 135.25 229.63 134.87Q229.88 134.5 229.88 133.97Q229.88 133.47 229.65 133.07Q229.43 132.67 229.03 132.43Q228.62 132.19 228.08 132.19H225.16ZM225.16 130.87H227.81Q228.25 130.87 228.6 130.68Q228.96 130.5 229.17 130.16Q229.38 129.82 229.38 129.35Q229.38 128.7 228.95 128.29Q228.52 127.88 227.81 127.88H225.16ZM236.12 137.22Q234.95 137.22 234.1 136.69Q233.25 136.16 232.79 135.23Q232.32 134.29 232.32 133.08Q232.32 131.85 232.79 130.92Q233.27 129.99 234.12 129.47Q234.97 128.95 236.12 128.95Q237.3 128.95 238.16 129.48Q239.01 130.01 239.47 130.94Q239.93 131.87 239.93 133.08Q239.93 134.31 239.47 135.24Q239.0 136.17 238.15 136.69Q237.29 137.22 236.12 137.22ZM236.12 135.89Q237.3 135.89 237.87 135.11Q238.44 134.32 238.44 133.08Q238.44 131.8 237.86 131.04Q237.28 130.28 236.12 130.28Q235.33 130.28 234.82 130.64Q234.31 130.99 234.06 131.62Q233.81 132.25 233.81 133.08Q233.81 134.36 234.4 135.12Q234.99 135.89 236.12 135.89ZM244.9 137.22Q243.72 137.22 242.87 136.69Q242.02 136.16 241.56 135.23Q241.09 134.29 241.09 133.08Q241.09 131.85 241.57 130.92Q242.04 129.99 242.89 129.47Q243.75 128.95 244.9 128.95Q246.07 128.95 246.93 129.48Q247.78 130.01 248.24 130.94Q248.71 131.87 248.71 133.08Q248.71 134.31 248.24 135.24Q247.77 136.17 246.92 136.69Q246.06 137.22 244.9 137.22ZM244.9 135.89Q246.07 135.89 246.64 135.11Q247.22 134.32 247.22 133.08Q247.22 131.8 246.64 131.04Q246.05 130.28 244.9 130.28Q244.11 130.28 243.59 130.64Q243.08 130.99 242.83 131.62Q242.58 132.25 242.58 133.08Q242.58 134.36 243.17 135.12Q243.76 135.89 244.9 135.89ZM254.73 137.0Q254.01 137.14 253.32 137.12Q252.62 137.09 252.08 136.84Q251.53 136.59 251.25 136.05Q251.01 135.58 250.99 135.09Q250.98 134.6 250.98 133.98V127.0H252.38V133.91Q252.38 134.39 252.39 134.74Q252.4 135.08 252.54 135.32Q252.8 135.78 253.37 135.85Q253.94 135.92 254.73 135.8ZM249.43 130.31V129.17H254.73V130.31Z" /></g></g><svg x="289.7731111111111" y="123" width="18" height="18" viewBox="0 0 24 24" fill="#a7b2bc"><path d="M14.23 12.004a2.236 2.236 0 0 1-2.235 2.236 2.236 2.236 0 0 1-2.236-2.236 2.236 2.236 0 0 1 2.235-2.236 2.236 2.236 0 0 1 2.236 2.236zm2.648-10.69c-1.346 0-3.107.96-4.888 2.622-1.78-1.653-3.542-2.602-4.887-2.602-.41 0-.783.093-1.106.278-1.375.793-1.683 3.264-.973 6.365C1.98 8.917 0 10.42 0 12.004c0 1.59 1.99 3.097 5.043 4.03-.704 3.113-.39 5.588.988 6.38.32.187.69.275 1.102.275 1.345 0 3.107-.96 4.888-2.624 1.78 1.654 3.542 2.603 4.887 2.603.41 0 .783-.09 1.106-.275 1.374-.792 1.683-3.263.973-6.365C22.02 15.096 24 13.59 24 12.004c0-1.59-1.99-3.097-5.043-4.032.704-3.11.39-5.587-.988-6.38-.318-.184-.688-.277-1.092-.278zm-.005 1.09v.006c.225 0 .406.044.558.127.666.382.955 1.835.73 3.704-.054.46-.142.945-.25 1.44-.96-.236-2.006-.417-3.107-.534-.66-.905-1.345-1.727-2.035-2.447 1.592-1.48 3.087-2.292 4.105-2.295zm-9.77.02c1.012 0 2.514.808 4.11 2.28-.686.72-1.37 1.537-2.02 2.442-1.107.117-2.154.298-3.113.538-.112-.49-.195-.964-.254-1.42-.23-1.868.054-3.32.714-3.707.19-.09.4-.127.563-.132zm4.882 3.05c.455.468.91.992 1.36 1.564-.44-.02-.89-.034-1.345-.034-.46 0-.915.01-1.36.034.44-.572.895-1.096 1.345-1.565zM12 8.1c.74 0 1.477.034 2.202.093.406.582.802 1.203 1.183 1.86.372.64.71 1.29 1.018 1.946-.308.655-.646 1.31-1.013 1.95-.38.66-.773 1.288-1.18 1.87-.728.063-1.466.098-2.21.098-.74 0-1.477-.035-2.202-.093-.406-.582-.802-1.204-1.183-1.86-.372-.64-.71-1.29-1.018-1.946.303-.657.646-1.313 1.013-1.954.38-.66.773-1.286 1.18-1.868.728-.064 1.466-.098 2.21-.098zm-3.635.254c-.24.377-.48.763-.704 1.16-.225.39-.435.782-.635 1.174-.265-.656-.49-1.31-.676-1.947.64-.15 1.315-.283 2.015-.386zm7.26 0c.695.103 1.365.23 2.006.387-.18.632-.405 1.282-.66 1.933-.2-.39-.41-.783-.64-1.174-.225-.392-.465-.774-.705-1.146zm3.063.675c.484.15.944.317 1.375.498 1.732.74 2.852 1.708 2.852 2.476-.005.768-1.125 1.74-2.857 2.475-.42.18-.88.342-1.355.493-.28-.958-.646-1.956-1.1-2.98.45-1.017.81-2.01 1.085-2.964zm-13.395.004c.278.96.645 1.957 1.1 2.98-.45 1.017-.812 2.01-1.086 2.964-.484-.15-.944-.318-1.37-.5-1.732-.737-2.852-1.706-2.852-2.474 0-.768 1.12-1.742 2.852-2.476.42-.18.88-.342 1.356-.494zm11.678 4.28c.265.657.49 1.312.676 1.948-.64.157-1.316.29-2.016.39.24-.375.48-.762.705-1.158.225-.39.435-.788.636-1.18zm-9.945.02c.2.392.41.783.64 1.175.23.39.465.772.705 1.143-.695-.102-1.365-.23-2.006-.386.18-.63.406-1.282.66-1.933zM17.92 16.32c.112.493.2.968.254 1.423.23 1.868-.054 3.32-.714 3.708-.147.09-.338.128-.563.128-1.012 0-2.514-.807-4.11-2.28.686-.72 1.37-1.536 2.02-2.44 1.107-.118 2.154-.3 3.113-.54zm-11.83.01c.96.234 2.006.415 3.107.532.66.905 1.345 1.727 2.035 2.446-1.595 1.483-3.092 2.295-4.11 2.295-.22-.005-.406-.05-.553-.132-.666-.38-.955-1.834-.73-3.703.054-.46.142-.944.25-1.438zm4.56.64c.44.02.89.034 1.345.034.46 0 .915-.01 1.36-.034-.44.572-.895 1.095-1.345 1.565-.455-.47-.91-.993-1.36-1.565z" /></svg><g><g data-text="React" data-family="sans" data-size="14.5" data-weight="550.0" data-spacing="0.0" data-x="314.7731111111111" data-y="137.0" data-anchor="start" fill="#e6edf3"><path d="M315.79 137.0V126.56H319.96Q320.11 126.56 320.33 126.57Q320.55 126.58 320.75 126.62Q321.61 126.75 322.19 127.21Q322.77 127.66 323.06 128.35Q323.35 129.04 323.35 129.88Q323.35 131.11 322.71 132.0Q322.08 132.9 320.83 133.12L320.27 133.2H317.19V137.0ZM321.95 137.0 319.89 132.75 321.29 132.36 323.55 137.0ZM317.19 131.87H319.91Q320.05 131.87 320.23 131.85Q320.4 131.84 320.56 131.8Q321.05 131.69 321.35 131.39Q321.64 131.09 321.78 130.69Q321.92 130.29 321.92 129.88Q321.92 129.47 321.78 129.07Q321.64 128.67 321.35 128.37Q321.05 128.07 320.56 127.95Q320.4 127.91 320.23 127.9Q320.05 127.89 319.91 127.89H317.19ZM328.58 137.22Q327.42 137.22 326.55 136.71Q325.68 136.2 325.2 135.28Q324.71 134.36 324.71 133.14Q324.71 131.86 325.19 130.92Q325.66 129.98 326.52 129.47Q327.37 128.95 328.51 128.95Q329.7 128.95 330.54 129.5Q331.37 130.05 331.79 131.07Q332.21 132.08 332.14 133.48H330.73V132.97Q330.71 131.57 330.17 130.89Q329.64 130.2 328.56 130.2Q327.4 130.2 326.8 130.95Q326.2 131.69 326.2 133.09Q326.2 134.42 326.8 135.16Q327.4 135.89 328.51 135.89Q329.26 135.89 329.8 135.55Q330.35 135.21 330.66 134.58L332.02 135.03Q331.56 136.07 330.64 136.64Q329.72 137.22 328.58 137.22ZM325.74 133.48V132.37H331.42V133.48ZM335.97 137.22Q335.1 137.22 334.51 136.9Q333.91 136.58 333.62 136.04Q333.32 135.51 333.32 134.88Q333.32 134.27 333.54 133.82Q333.76 133.37 334.18 133.06Q334.6 132.75 335.2 132.57Q335.74 132.42 336.42 132.3Q337.09 132.18 337.81 132.09Q338.53 131.99 339.2 131.89L338.69 132.18Q338.71 131.2 338.29 130.73Q337.87 130.26 336.84 130.26Q336.18 130.26 335.66 130.56Q335.13 130.87 334.92 131.56L333.6 131.15Q333.89 130.13 334.7 129.54Q335.52 128.95 336.86 128.95Q337.91 128.95 338.69 129.32Q339.46 129.69 339.81 130.46Q339.98 130.84 340.03 131.26Q340.07 131.69 340.07 132.17V137.0H338.83V135.17L339.09 135.37Q338.63 136.29 337.86 136.76Q337.08 137.22 335.97 137.22ZM336.2 136.06Q336.87 136.06 337.36 135.82Q337.85 135.58 338.15 135.2Q338.44 134.81 338.53 134.38Q338.65 134.03 338.66 133.58Q338.68 133.14 338.68 132.89L339.15 133.08Q338.48 133.18 337.88 133.26Q337.28 133.35 336.77 133.43Q336.26 133.52 335.86 133.64Q335.54 133.74 335.28 133.9Q335.02 134.06 334.86 134.29Q334.71 134.53 334.71 134.86Q334.71 135.18 334.86 135.45Q335.02 135.72 335.35 135.89Q335.68 136.06 336.2 136.06ZM345.28 137.22Q344.08 137.22 343.25 136.68Q342.41 136.15 341.97 135.21Q341.53 134.28 341.52 133.09Q341.53 131.87 341.98 130.94Q342.43 130.0 343.28 129.48Q344.12 128.95 345.3 128.95Q346.56 128.95 347.46 129.58Q348.36 130.2 348.66 131.28L347.27 131.69Q347.04 131.02 346.5 130.65Q345.97 130.28 345.28 130.28Q344.51 130.28 344.01 130.64Q343.5 131.0 343.26 131.64Q343.02 132.27 343.01 133.09Q343.02 134.35 343.59 135.12Q344.16 135.89 345.28 135.89Q346.03 135.89 346.51 135.55Q346.99 135.2 347.24 134.55L348.66 134.91Q348.27 136.03 347.39 136.62Q346.52 137.22 345.28 137.22ZM354.57 137.0Q353.85 137.14 353.16 137.12Q352.47 137.09 351.92 136.84Q351.38 136.59 351.1 136.05Q350.86 135.58 350.84 135.09Q350.82 134.6 350.82 133.98V127.0H352.22V133.91Q352.22 134.39 352.24 134.74Q352.25 135.08 352.38 135.32Q352.64 135.78 353.21 135.85Q353.78 135.92 354.57 135.8ZM349.27 130.31V129.17H354.57V130.31Z" /></g></g><svg x="389.61684722222225" y="123" width="18" height="18" viewBox="0 0 24 24" fill="#a7b2bc"><path d="M18.665 21.978C16.758 23.255 14.465 24 12 24 5.377 24 0 18.623 0 12S5.377 0 12 0s12 5.377 12 12c0 3.583-1.574 6.801-4.067 9.001L9.219 7.2H7.2v9.596h1.615V9.251l9.85 12.727Zm-3.332-8.533 1.6 2.061V7.2h-1.6v6.245Z" /></svg><g><g data-text="Next.js" data-family="sans" data-size="14.5" data-weight="550.0" data-spacing="0.0" data-x="414.61684722222225" data-y="137.0" data-anchor="start" fill="#e6edf3"><path d="M415.63 137.0V126.56H417.05L422.35 134.52V126.56H423.77V137.0H422.35L417.05 129.04V137.0ZM429.23 137.22Q428.07 137.22 427.2 136.71Q426.33 136.2 425.85 135.28Q425.36 134.36 425.36 133.14Q425.36 131.86 425.84 130.92Q426.31 129.98 427.17 129.47Q428.02 128.95 429.16 128.95Q430.35 128.95 431.19 129.5Q432.02 130.05 432.44 131.07Q432.86 132.08 432.79 133.48H431.38V132.97Q431.36 131.57 430.82 130.89Q430.29 130.2 429.21 130.2Q428.05 130.2 427.45 130.95Q426.85 131.69 426.85 133.09Q426.85 134.42 427.45 135.16Q428.05 135.89 429.16 135.89Q429.91 135.89 430.45 135.55Q431.0 135.21 431.31 134.58L432.67 135.03Q432.21 136.07 431.29 136.64Q430.37 137.22 429.23 137.22ZM426.39 133.48V132.37H432.07V133.48ZM433.53 137.0 436.49 133.04 433.6 129.17H435.26L437.31 131.95L439.34 129.17H441.01L438.11 133.04L441.08 137.0H439.41L437.31 134.13L435.21 137.0ZM446.67 137.0Q445.95 137.14 445.25 137.12Q444.56 137.09 444.02 136.84Q443.47 136.59 443.19 136.05Q442.95 135.58 442.93 135.09Q442.91 134.6 442.91 133.98V127.0H444.32V133.91Q444.32 134.39 444.33 134.74Q444.34 135.08 444.48 135.32Q444.74 135.78 445.31 135.85Q445.88 135.92 446.67 135.8ZM441.37 130.31V129.17H446.67V130.31ZM448.53 137.0V135.49H450.04V137.0ZM451.16 140.48V139.15H451.57Q452.15 139.15 452.44 138.86Q452.73 138.58 452.73 137.97V129.17H454.14V138.49Q454.14 139.46 453.62 139.97Q453.11 140.48 452.14 140.48ZM452.73 127.83V126.43H454.14V127.83ZM459.2 137.21Q457.79 137.21 456.89 136.59Q455.99 135.97 455.79 134.84L457.23 134.62Q457.38 135.24 457.93 135.6Q458.48 135.97 459.29 135.97Q460.05 135.97 460.48 135.66Q460.91 135.35 460.91 134.8Q460.91 134.49 460.76 134.3Q460.62 134.1 460.15 133.93Q459.69 133.75 458.75 133.5Q457.73 133.23 457.14 132.93Q456.54 132.63 456.29 132.24Q456.04 131.84 456.04 131.27Q456.04 130.57 456.42 130.05Q456.8 129.53 457.48 129.24Q458.16 128.95 459.07 128.95Q459.96 128.95 460.67 129.24Q461.37 129.52 461.8 130.04Q462.23 130.56 462.32 131.25L460.89 131.51Q460.8 130.91 460.32 130.57Q459.83 130.22 459.07 130.2Q458.35 130.17 457.9 130.45Q457.45 130.72 457.45 131.2Q457.45 131.47 457.62 131.66Q457.79 131.85 458.27 132.03Q458.74 132.21 459.66 132.44Q460.67 132.7 461.26 133.0Q461.85 133.31 462.1 133.73Q462.36 134.15 462.36 134.76Q462.36 135.9 461.52 136.56Q460.68 137.21 459.2 137.21Z" /></g></g><svg x="497.3848333333334" y="123" width="18" height="18" viewBox="0 0 24 24" fill="#a7b2bc"><path d="M12 .0387C5.3729.0384.0003 5.3931 0 11.9988c-.001 6.6066 5.372 11.9628 12 11.9625 6.628.0003 12.001-5.3559 12-11.9625-.0003-6.6057-5.3729-11.9604-12-11.96m-.829 5.4153h7.55l-7.5805 5.3284h5.1828L5.279 18.5436q2.9466-6.5444 5.892-13.0896" /></svg><g><g data-text="FastAPI" data-family="sans" data-size="14.5" data-weight="550.0" data-spacing="0.0" data-x="522.3848333333334" data-y="137.0" data-anchor="start" fill="#e6edf3"><path d="M523.4 137.0V126.56H529.54V127.96H524.8V131.08H528.67V132.48H524.8V137.0ZM533.06 137.22Q532.19 137.22 531.6 136.9Q531.01 136.58 530.71 136.04Q530.41 135.51 530.41 134.88Q530.41 134.27 530.63 133.82Q530.85 133.37 531.27 133.06Q531.69 132.75 532.29 132.57Q532.83 132.42 533.51 132.3Q534.18 132.18 534.9 132.09Q535.62 131.99 536.29 131.89L535.79 132.18Q535.8 131.2 535.38 130.73Q534.96 130.26 533.94 130.26Q533.27 130.26 532.75 130.56Q532.22 130.87 532.01 131.56L530.7 131.15Q530.98 130.13 531.79 129.54Q532.61 128.95 533.95 128.95Q535.01 128.95 535.78 129.32Q536.55 129.69 536.9 130.46Q537.08 130.84 537.12 131.26Q537.16 131.69 537.16 132.17V137.0H535.92V135.17L536.19 135.37Q535.72 136.29 534.95 136.76Q534.18 137.22 533.06 137.22ZM533.29 136.06Q533.96 136.06 534.45 135.82Q534.94 135.58 535.24 135.2Q535.53 134.81 535.63 134.38Q535.74 134.03 535.75 133.58Q535.77 133.14 535.77 132.89L536.24 133.08Q535.57 133.18 534.97 133.26Q534.37 133.35 533.86 133.43Q533.35 133.52 532.95 133.64Q532.63 133.74 532.37 133.9Q532.11 134.06 531.95 134.29Q531.8 134.53 531.8 134.86Q531.8 135.18 531.96 135.45Q532.11 135.72 532.44 135.89Q532.77 136.06 533.29 136.06ZM542.02 137.21Q540.61 137.21 539.71 136.59Q538.82 135.97 538.61 134.84L540.05 134.62Q540.2 135.24 540.75 135.6Q541.3 135.97 542.11 135.97Q542.87 135.97 543.3 135.66Q543.73 135.35 543.73 134.8Q543.73 134.49 543.59 134.3Q543.44 134.1 542.98 133.93Q542.51 133.75 541.58 133.5Q540.55 133.23 539.96 132.93Q539.37 132.63 539.12 132.24Q538.86 131.84 538.86 131.27Q538.86 130.57 539.24 130.05Q539.62 129.53 540.3 129.24Q540.98 128.95 541.89 128.95Q542.79 128.95 543.49 129.24Q544.19 129.52 544.62 130.04Q545.06 130.56 545.14 131.25L543.71 131.51Q543.62 130.91 543.14 130.57Q542.66 130.22 541.9 130.2Q541.17 130.17 540.72 130.45Q540.27 130.72 540.27 131.2Q540.27 131.47 540.44 131.66Q540.61 131.85 541.09 132.03Q541.57 132.21 542.49 132.44Q543.5 132.7 544.08 133.0Q544.67 133.31 544.93 133.73Q545.18 134.15 545.18 134.76Q545.18 135.9 544.34 136.56Q543.5 137.21 542.02 137.21ZM551.21 137.0Q550.49 137.14 549.8 137.12Q549.1 137.09 548.56 136.84Q548.01 136.59 547.73 136.05Q547.49 135.58 547.47 135.09Q547.46 134.6 547.46 133.98V127.0H548.86V133.91Q548.86 134.39 548.87 134.74Q548.88 135.08 549.02 135.32Q549.28 135.78 549.85 135.85Q550.42 135.92 551.21 135.8ZM545.91 130.31V129.17H551.21V130.31ZM552.1 137.0 555.55 126.56H557.53L560.98 137.0H559.52L556.32 127.39H556.72L553.56 137.0ZM553.82 134.6V133.29H559.26V134.6ZM562.28 137.0V126.56H566.46Q566.61 126.56 566.82 126.57Q567.04 126.58 567.24 126.62Q568.1 126.75 568.68 127.21Q569.26 127.66 569.55 128.35Q569.84 129.04 569.84 129.88Q569.84 130.72 569.55 131.41Q569.26 132.1 568.68 132.55Q568.1 133.01 567.24 133.14Q567.04 133.17 566.82 133.18Q566.6 133.2 566.46 133.2H563.69V137.0ZM563.69 131.87H566.4Q566.54 131.87 566.72 131.85Q566.9 131.84 567.06 131.8Q567.54 131.69 567.84 131.39Q568.14 131.09 568.27 130.69Q568.41 130.29 568.41 129.88Q568.41 129.47 568.27 129.07Q568.14 128.67 567.84 128.37Q567.54 128.07 567.06 127.95Q566.9 127.91 566.72 127.9Q566.54 127.89 566.4 127.89H563.69ZM571.44 137.0V126.56H572.84V137.0Z" /></g></g><path d="M24 166h552" stroke="#28352f" /><g><g data-text="TOOLS &amp; DATA" data-family="mono" data-size="12.0" data-weight="500.0" data-spacing="0.0" data-x="24.0" data-y="218.0" data-anchor="start" fill="#a7b2bc"><path d="M26.95 218.0V210.42H24.61V209.23H30.59V210.42H28.25V218.0ZM34.8 218.12Q33.98 218.12 33.39 217.81Q32.8 217.5 32.48 216.92Q32.16 216.35 32.16 215.56V211.68Q32.16 210.88 32.48 210.31Q32.8 209.74 33.39 209.43Q33.98 209.12 34.8 209.12Q35.62 209.12 36.21 209.43Q36.8 209.74 37.12 210.31Q37.44 210.88 37.44 211.67V215.56Q37.44 216.35 37.12 216.92Q36.8 217.5 36.21 217.81Q35.62 218.12 34.8 218.12ZM34.8 216.97Q35.46 216.97 35.8 216.61Q36.15 216.24 36.15 215.56V211.68Q36.15 211.0 35.81 210.63Q35.46 210.27 34.8 210.27Q34.15 210.27 33.8 210.63Q33.45 211.0 33.45 211.68V215.56Q33.45 216.24 33.8 216.61Q34.15 216.97 34.8 216.97ZM42.0 218.12Q41.18 218.12 40.59 217.81Q40.0 217.5 39.68 216.92Q39.36 216.35 39.36 215.56V211.68Q39.36 210.88 39.68 210.31Q40.0 209.74 40.59 209.43Q41.18 209.12 42.0 209.12Q42.82 209.12 43.41 209.43Q44.0 209.74 44.32 210.31Q44.64 210.88 44.64 211.67V215.56Q44.64 216.35 44.32 216.92Q44.0 217.5 43.41 217.81Q42.82 218.12 42.0 218.12ZM42.0 216.97Q42.66 216.97 43.0 216.61Q43.35 216.24 43.35 215.56V211.68Q43.35 211.0 43.01 210.63Q42.66 210.27 42.0 210.27Q41.35 210.27 41.0 210.63Q40.65 211.0 40.65 211.68V215.56Q40.65 216.24 41.0 216.61Q41.35 216.97 42.0 216.97ZM46.91 218.0V209.24H48.2V216.81H52.04V218.0ZM56.43 218.12Q55.55 218.12 54.91 217.82Q54.28 217.53 53.93 216.98Q53.58 216.44 53.57 215.68H54.87Q54.87 216.28 55.29 216.63Q55.71 216.97 56.44 216.97Q57.14 216.97 57.54 216.64Q57.93 216.3 57.93 215.7Q57.93 215.22 57.66 214.86Q57.39 214.5 56.89 214.36L55.79 214.04Q54.83 213.77 54.3 213.1Q53.78 212.43 53.78 211.51Q53.78 210.78 54.11 210.25Q54.44 209.71 55.03 209.41Q55.63 209.11 56.44 209.11Q57.65 209.11 58.38 209.76Q59.1 210.41 59.11 211.5H57.81Q57.81 210.92 57.45 210.59Q57.09 210.26 56.43 210.26Q55.79 210.26 55.43 210.57Q55.07 210.87 55.07 211.42Q55.07 211.91 55.34 212.27Q55.61 212.63 56.11 212.78L57.23 213.11Q58.19 213.38 58.71 214.05Q59.23 214.72 59.23 215.66Q59.23 216.4 58.88 216.95Q58.53 217.51 57.9 217.81Q57.27 218.12 56.43 218.12ZM69.98 218.12Q68.94 218.12 68.36 217.56Q67.78 216.99 67.78 216.0V214.69Q67.78 213.97 68.15 213.5Q68.52 213.02 69.2 212.87L69.08 212.98Q68.7 212.46 68.52 212.0Q68.34 211.54 68.34 211.09Q68.34 210.5 68.62 210.05Q68.9 209.61 69.4 209.36Q69.9 209.12 70.57 209.12Q71.28 209.12 71.8 209.38Q72.33 209.65 72.61 210.12Q72.9 210.59 72.9 211.24H71.66Q71.66 210.92 71.52 210.69Q71.39 210.46 71.15 210.33Q70.91 210.21 70.57 210.21Q70.27 210.21 70.04 210.32Q69.81 210.44 69.69 210.65Q69.56 210.86 69.56 211.16Q69.56 211.45 69.7 211.8Q69.84 212.15 70.08 212.48L71.94 215.07L72.69 213.68H73.99L72.67 216.09L74.04 218.0H72.7L72.04 217.09Q71.17 218.12 69.98 218.12ZM70.07 217.02Q70.45 217.02 70.78 216.79Q71.12 216.56 71.36 216.15L69.66 213.79Q69.35 213.86 69.2 214.1Q69.04 214.33 69.04 214.69V216.0Q69.04 216.48 69.32 216.75Q69.59 217.02 70.07 217.02ZM82.6 218.0V209.24H85.04Q85.91 209.24 86.55 209.57Q87.18 209.9 87.54 210.5Q87.89 211.1 87.89 211.92V215.31Q87.89 216.12 87.54 216.73Q87.18 217.33 86.55 217.67Q85.91 218.0 85.04 218.0ZM83.9 216.82H85.04Q85.76 216.82 86.18 216.42Q86.59 216.02 86.59 215.31V211.92Q86.59 211.22 86.18 210.82Q85.76 210.42 85.04 210.42H83.9ZM89.31 218.0 91.55 209.24H93.25L95.49 218.0H94.17L93.65 215.78H91.16L90.63 218.0ZM91.4 214.71H93.39L92.8 212.18Q92.64 211.51 92.53 211.01Q92.43 210.52 92.4 210.33Q92.37 210.52 92.27 211.01Q92.17 211.5 92.01 212.17ZM98.95 218.0V210.42H96.61V209.23H102.59V210.42H100.25V218.0ZM103.71 218.0 105.95 209.24H107.65L109.89 218.0H108.57L108.05 215.78H105.56L105.03 218.0ZM105.8 214.71H107.79L107.2 212.18Q107.04 211.51 106.93 211.01Q106.83 210.52 106.8 210.33Q106.77 210.52 106.67 211.01Q106.57 211.5 106.41 212.17Z" /></g></g><svg x="150" y="190" width="18" height="18" viewBox="0 0 24 24" fill="#a7b2bc"><path d="M13.983 11.078h2.119a.186.186 0 00.186-.185V9.006a.186.186 0 00-.186-.186h-2.119a.185.185 0 00-.185.185v1.888c0 .102.083.185.185.185m-2.954-5.43h2.118a.186.186 0 00.186-.186V3.574a.186.186 0 00-.186-.185h-2.118a.185.185 0 00-.185.185v1.888c0 .102.082.185.185.185m0 2.716h2.118a.187.187 0 00.186-.186V6.29a.186.186 0 00-.186-.185h-2.118a.185.185 0 00-.185.185v1.887c0 .102.082.185.185.186m-2.93 0h2.12a.186.186 0 00.184-.186V6.29a.185.185 0 00-.185-.185H8.1a.185.185 0 00-.185.185v1.887c0 .102.083.185.185.186m-2.964 0h2.119a.186.186 0 00.185-.186V6.29a.185.185 0 00-.185-.185H5.136a.186.186 0 00-.186.185v1.887c0 .102.084.185.186.186m5.893 2.715h2.118a.186.186 0 00.186-.185V9.006a.186.186 0 00-.186-.186h-2.118a.185.185 0 00-.185.185v1.888c0 .102.082.185.185.185m-2.93 0h2.12a.185.185 0 00.184-.185V9.006a.185.185 0 00-.184-.186h-2.12a.185.185 0 00-.184.185v1.888c0 .102.083.185.185.185m-2.964 0h2.119a.185.185 0 00.185-.185V9.006a.185.185 0 00-.184-.186h-2.12a.186.186 0 00-.186.186v1.887c0 .102.084.185.186.185m-2.92 0h2.12a.185.185 0 00.184-.185V9.006a.185.185 0 00-.184-.186h-2.12a.185.185 0 00-.184.185v1.888c0 .102.082.185.185.185M23.763 9.89c-.065-.051-.672-.51-1.954-.51-.338.001-.676.03-1.01.087-.248-1.7-1.653-2.53-1.716-2.566l-.344-.199-.226.327c-.284.438-.49.922-.612 1.43-.23.97-.09 1.882.403 2.661-.595.332-1.55.413-1.744.42H.751a.751.751 0 00-.75.748 11.376 11.376 0 00.692 4.062c.545 1.428 1.355 2.48 2.41 3.124 1.18.723 3.1 1.137 5.275 1.137.983.003 1.963-.086 2.93-.266a12.248 12.248 0 003.823-1.389c.98-.567 1.86-1.288 2.61-2.136 1.252-1.418 1.998-2.997 2.553-4.4h.221c1.372 0 2.215-.549 2.68-1.009.309-.293.55-.65.707-1.046l.098-.288Z" /></svg><g><g data-text="Docker" data-family="sans" data-size="14.5" data-weight="450.0" data-spacing="0.0" data-x="175.0" data-y="204.0" data-anchor="start" fill="#e6edf3"><path d="M176.01 204.0V193.56H179.21Q179.37 193.56 179.77 193.57Q180.17 193.57 180.54 193.63Q181.74 193.79 182.54 194.51Q183.35 195.23 183.76 196.34Q184.16 197.45 184.16 198.78Q184.16 200.12 183.76 201.23Q183.35 202.34 182.54 203.05Q181.74 203.77 180.54 203.93Q180.18 203.98 179.77 203.99Q179.36 204.0 179.21 204.0ZM177.23 202.87H179.21Q179.49 202.87 179.84 202.85Q180.18 202.84 180.43 202.79Q181.32 202.63 181.86 202.06Q182.41 201.49 182.66 200.64Q182.91 199.78 182.91 198.78Q182.91 197.76 182.66 196.91Q182.4 196.05 181.85 195.49Q181.31 194.93 180.43 194.77Q180.18 194.72 179.83 194.7Q179.48 194.69 179.21 194.69H177.23ZM189.12 204.22Q187.95 204.22 187.12 203.69Q186.28 203.16 185.83 202.23Q185.38 201.29 185.38 200.08Q185.38 198.85 185.84 197.92Q186.3 196.99 187.14 196.47Q187.98 195.95 189.12 195.95Q190.3 195.95 191.13 196.48Q191.97 197.01 192.42 197.94Q192.87 198.87 192.87 200.08Q192.87 201.31 192.42 202.24Q191.97 203.17 191.13 203.69Q190.28 204.22 189.12 204.22ZM189.12 203.09Q190.38 203.09 191.0 202.25Q191.62 201.41 191.62 200.08Q191.62 198.71 190.99 197.89Q190.37 197.08 189.12 197.08Q188.27 197.08 187.72 197.46Q187.17 197.84 186.9 198.52Q186.64 199.19 186.64 200.08Q186.64 201.44 187.27 202.27Q187.9 203.09 189.12 203.09ZM197.74 204.22Q196.55 204.22 195.72 203.69Q194.9 203.16 194.47 202.22Q194.04 201.29 194.03 200.09Q194.04 198.86 194.48 197.93Q194.92 197.0 195.75 196.47Q196.57 195.95 197.75 195.95Q198.96 195.95 199.85 196.55Q200.74 197.14 201.05 198.17L199.89 198.53Q199.63 197.84 199.05 197.46Q198.48 197.08 197.74 197.08Q196.9 197.08 196.36 197.46Q195.82 197.85 195.55 198.53Q195.29 199.2 195.28 200.09Q195.29 201.44 195.91 202.27Q196.52 203.09 197.74 203.09Q198.52 203.09 199.05 202.74Q199.59 202.38 199.87 201.69L201.05 202.02Q200.63 203.09 199.78 203.65Q198.93 204.22 197.74 204.22ZM202.54 204.0 202.54 193.56H203.73V199.94L207.12 196.17H208.67L205.11 200.09L209.11 204.0H207.43L203.73 200.23V204.0ZM213.19 204.22Q212.04 204.22 211.19 203.71Q210.34 203.2 209.87 202.28Q209.4 201.36 209.4 200.13Q209.4 198.84 209.87 197.91Q210.33 196.97 211.17 196.46Q212.01 195.95 213.14 195.95Q214.31 195.95 215.13 196.49Q215.96 197.03 216.38 198.03Q216.8 199.03 216.75 200.42H215.55V200.0Q215.53 198.51 214.93 197.77Q214.34 197.02 213.18 197.02Q211.95 197.02 211.3 197.82Q210.65 198.61 210.65 200.09Q210.65 201.52 211.3 202.31Q211.95 203.09 213.14 203.09Q213.95 203.09 214.55 202.72Q215.15 202.35 215.49 201.65L216.61 202.06Q216.15 203.09 215.24 203.65Q214.33 204.22 213.19 204.22ZM210.25 200.42V199.45H216.13V200.42ZM218.36 204.0V196.17H219.41V198.06L219.22 197.81Q219.36 197.46 219.57 197.16Q219.79 196.86 220.05 196.67Q220.35 196.41 220.75 196.28Q221.14 196.14 221.55 196.11Q221.96 196.09 222.3 196.17V197.28Q221.88 197.17 221.39 197.22Q220.89 197.28 220.47 197.6Q220.08 197.89 219.88 198.29Q219.69 198.7 219.61 199.16Q219.54 199.62 219.54 200.08V204.0Z" /></g></g><svg x="293" y="190" width="18" height="18" viewBox="0 0 24 24" fill="#a7b2bc"><path d="M23.5594 14.7228a.5269.5269 0 0 0-.0563-.1191c-.139-.2632-.4768-.3418-1.0074-.2321-1.6533.3411-2.2935.1312-2.5256-.0191 1.342-2.0482 2.445-4.522 3.0411-6.8297.2714-1.0507.7982-3.5237.1222-4.7316a1.5641 1.5641 0 0 0-.1509-.235C21.6931.9086 19.8007.0248 17.5099.0005c-1.4947-.0158-2.7705.3461-3.1161.4794a9.449 9.449 0 0 0-.5159-.0816 8.044 8.044 0 0 0-1.3114-.1278c-1.1822-.0184-2.2038.2642-3.0498.8406-.8573-.3211-4.7888-1.645-7.2219.0788C.9359 2.1526.3086 3.8733.4302 6.3043c.0409.818.5069 3.334 1.2423 5.7436.4598 1.5065.9387 2.7019 1.4334 3.582.553.9942 1.1259 1.5933 1.7143 1.7895.4474.1491 1.1327.1441 1.8581-.7279.8012-.9635 1.5903-1.8258 1.9446-2.2069.4351.2355.9064.3625 1.39.3772a.0569.0569 0 0 0 .0004.0041 11.0312 11.0312 0 0 0-.2472.3054c-.3389.4302-.4094.5197-1.5002.7443-.3102.064-1.1344.2339-1.1464.8115-.0025.1224.0329.2309.0919.3268.2269.4231.9216.6097 1.015.6331 1.3345.3335 2.5044.092 3.3714-.6787-.017 2.231.0775 4.4174.3454 5.0874.2212.5529.7618 1.9045 2.4692 1.9043.2505 0 .5263-.0291.8296-.0941 1.7819-.3821 2.5557-1.1696 2.855-2.9059.1503-.8707.4016-2.8753.5388-4.1012.0169-.0703.0357-.1207.057-.1362.0007-.0005.0697-.0471.4272.0307a.3673.3673 0 0 0 .0443.0068l.2539.0223.0149.001c.8468.0384 1.9114-.1426 2.5312-.4308.6438-.2988 1.8057-1.0323 1.5951-1.6698zM2.371 11.8765c-.7435-2.4358-1.1779-4.8851-1.2123-5.5719-.1086-2.1714.4171-3.6829 1.5623-4.4927 1.8367-1.2986 4.8398-.5408 6.108-.13-.0032.0032-.0066.0061-.0098.0094-2.0238 2.044-1.9758 5.536-1.9708 5.7495-.0002.0823.0066.1989.0162.3593.0348.5873.0996 1.6804-.0735 2.9184-.1609 1.1504.1937 2.2764.9728 3.0892.0806.0841.1648.1631.2518.2374-.3468.3714-1.1004 1.1926-1.9025 2.1576-.5677.6825-.9597.5517-1.0886.5087-.3919-.1307-.813-.5871-1.2381-1.3223-.4796-.839-.9635-2.0317-1.4155-3.5126zm6.0072 5.0871c-.1711-.0428-.3271-.1132-.4322-.1772.0889-.0394.2374-.0902.4833-.1409 1.2833-.2641 1.4815-.4506 1.9143-1.0002.0992-.126.2116-.2687.3673-.4426a.3549.3549 0 0 0 .0737-.1298c.1708-.1513.2724-.1099.4369-.0417.156.0646.3078.26.3695.4752.0291.1016.0619.2945-.0452.4444-.9043 1.2658-2.2216 1.2494-3.1676 1.0128zm2.094-3.988-.0525.141c-.133.3566-.2567.6881-.3334 1.003-.6674-.0021-1.3168-.2872-1.8105-.8024-.6279-.6551-.9131-1.5664-.7825-2.5004.1828-1.3079.1153-2.4468.079-3.0586-.005-.0857-.0095-.1607-.0122-.2199.2957-.2621 1.6659-.9962 2.6429-.7724.4459.1022.7176.4057.8305.928.5846 2.7038.0774 3.8307-.3302 4.7363-.084.1866-.1633.3629-.2311.5454zm7.3637 4.5725c-.0169.1768-.0358.376-.0618.5959l-.146.4383a.3547.3547 0 0 0-.0182.1077c-.0059.4747-.054.6489-.115.8693-.0634.2292-.1353.4891-.1794 1.0575-.11 1.4143-.8782 2.2267-2.4172 2.5565-1.5155.3251-1.7843-.4968-2.0212-1.2217a6.5824 6.5824 0 0 0-.0769-.2266c-.2154-.5858-.1911-1.4119-.1574-2.5551.0165-.5612-.0249-1.9013-.3302-2.6462.0044-.2932.0106-.5909.019-.8918a.3529.3529 0 0 0-.0153-.1126 1.4927 1.4927 0 0 0-.0439-.208c-.1226-.4283-.4213-.7866-.7797-.9351-.1424-.059-.4038-.1672-.7178-.0869.067-.276.1831-.5875.309-.9249l.0529-.142c.0595-.16.134-.3257.213-.5012.4265-.9476 1.0106-2.2453.3766-5.1772-.2374-1.0981-1.0304-1.6343-2.2324-1.5098-.7207.0746-1.3799.3654-1.7088.5321a5.6716 5.6716 0 0 0-.1958.1041c.0918-1.1064.4386-3.1741 1.7357-4.4823a4.0306 4.0306 0 0 1 .3033-.276.3532.3532 0 0 0 .1447-.0644c.7524-.5706 1.6945-.8506 2.802-.8325.4091.0067.8017.0339 1.1742.081 1.939.3544 3.2439 1.4468 4.0359 2.3827.8143.9623 1.2552 1.9315 1.4312 2.4543-1.3232-.1346-2.2234.1268-2.6797.779-.9926 1.4189.543 4.1729 1.2811 5.4964.1353.2426.2522.4522.2889.5413.2403.5825.5515.9713.7787 1.2552.0696.087.1372.1714.1885.245-.4008.1155-1.1208.3825-1.0552 1.717-.0123.1563-.0423.4469-.0834.8148-.0461.2077-.0702.4603-.0994.7662zm.8905-1.6211c-.0405-.8316.2691-.9185.5967-1.0105a2.8566 2.8566 0 0 0 .135-.0406 1.202 1.202 0 0 0 .1342.103c.5703.3765 1.5823.4213 3.0068.1344-.2016.1769-.5189.3994-.9533.6011-.4098.1903-1.0957.333-1.7473.3636-.7197.0336-1.0859-.0807-1.1721-.151zm.5695-9.2712c-.0059.3508-.0542.6692-.1054 1.0017-.055.3576-.112.7274-.1264 1.1762-.0142.4368.0404.8909.0932 1.3301.1066.887.216 1.8003-.2075 2.7014a3.5272 3.5272 0 0 1-.1876-.3856c-.0527-.1276-.1669-.3326-.3251-.6162-.6156-1.1041-2.0574-3.6896-1.3193-4.7446.3795-.5427 1.3408-.5661 2.1781-.463zm.2284 7.0137a12.3762 12.3762 0 0 0-.0853-.1074l-.0355-.0444c.7262-1.1995.5842-2.3862.4578-3.4385-.0519-.4318-.1009-.8396-.0885-1.2226.0129-.4061.0666-.7543.1185-1.0911.0639-.415.1288-.8443.1109-1.3505.0134-.0531.0188-.1158.0118-.1902-.0457-.4855-.5999-1.938-1.7294-3.253-.6076-.7073-1.4896-1.4972-2.6889-2.0395.5251-.1066 1.2328-.2035 2.0244-.1859 2.0515.0456 3.6746.8135 4.8242 2.2824a.908.908 0 0 1 .0667.1002c.7231 1.3556-.2762 6.2751-2.9867 10.5405zm-8.8166-6.1162c-.025.1794-.3089.4225-.6211.4225a.5821.5821 0 0 1-.0809-.0056c-.1873-.026-.3765-.144-.5059-.3156-.0458-.0605-.1203-.178-.1055-.2844.0055-.0401.0261-.0985.0925-.1488.1182-.0894.3518-.1226.6096-.0867.3163.0441.6426.1938.6113.4186zm7.9305-.4114c.0111.0792-.049.201-.1531.3102-.0683.0717-.212.1961-.4079.2232a.5456.5456 0 0 1-.075.0052c-.2935 0-.5414-.2344-.5607-.3717-.024-.1765.2641-.3106.5611-.352.297-.0414.6111.0088.6356.1851z" /></svg><g><g data-text="PostgreSQL" data-family="sans" data-size="14.5" data-weight="450.0" data-spacing="0.0" data-x="318.0" data-y="204.0" data-anchor="start" fill="#e6edf3"><path d="M319.01 204.0V193.56H323.09Q323.25 193.56 323.45 193.57Q323.65 193.58 323.84 193.62Q324.67 193.75 325.25 194.19Q325.82 194.64 326.11 195.32Q326.41 196.0 326.41 196.82Q326.41 197.65 326.11 198.33Q325.82 199.01 325.24 199.46Q324.67 199.9 323.84 200.03Q323.65 200.06 323.44 200.08Q323.24 200.09 323.09 200.09H320.19V204.0ZM320.19 198.97H323.06Q323.19 198.97 323.37 198.95Q323.54 198.94 323.71 198.9Q324.22 198.79 324.55 198.47Q324.88 198.15 325.04 197.72Q325.2 197.29 325.2 196.82Q325.2 196.36 325.04 195.93Q324.88 195.5 324.55 195.18Q324.22 194.86 323.71 194.75Q323.54 194.71 323.37 194.69Q323.19 194.68 323.06 194.68H320.19ZM331.16 204.22Q329.99 204.22 329.15 203.69Q328.32 203.16 327.87 202.23Q327.42 201.29 327.42 200.08Q327.42 198.85 327.88 197.92Q328.33 196.99 329.17 196.47Q330.01 195.95 331.16 195.95Q332.33 195.95 333.17 196.48Q334.01 197.01 334.46 197.94Q334.9 198.87 334.9 200.08Q334.9 201.31 334.45 202.24Q334.0 203.17 333.16 203.69Q332.32 204.22 331.16 204.22ZM331.16 203.09Q332.42 203.09 333.04 202.25Q333.65 201.41 333.65 200.08Q333.65 198.71 333.03 197.89Q332.41 197.08 331.16 197.08Q330.31 197.08 329.76 197.46Q329.21 197.84 328.94 198.52Q328.67 199.19 328.67 200.08Q328.67 201.44 329.3 202.27Q329.93 203.09 331.16 203.09ZM339.44 204.21Q338.05 204.21 337.16 203.61Q336.27 203.0 336.06 201.92L337.27 201.73Q337.43 202.38 338.03 202.76Q338.63 203.15 339.51 203.15Q340.35 203.15 340.84 202.79Q341.33 202.44 341.33 201.83Q341.33 201.48 341.17 201.27Q341.01 201.05 340.52 200.86Q340.04 200.67 339.06 200.41Q338.01 200.13 337.41 199.84Q336.81 199.54 336.56 199.16Q336.31 198.77 336.31 198.21Q336.31 197.54 336.68 197.03Q337.06 196.52 337.73 196.23Q338.4 195.95 339.3 195.95Q340.19 195.95 340.89 196.24Q341.59 196.52 342.02 197.04Q342.45 197.55 342.53 198.24L341.32 198.46Q341.22 197.8 340.68 197.42Q340.13 197.03 339.29 197.01Q338.49 196.99 338.0 197.31Q337.5 197.62 337.5 198.16Q337.5 198.46 337.68 198.67Q337.86 198.88 338.35 199.07Q338.84 199.25 339.76 199.49Q340.82 199.76 341.43 200.06Q342.03 200.37 342.29 200.78Q342.55 201.2 342.55 201.81Q342.55 202.93 341.72 203.57Q340.89 204.21 339.44 204.21ZM348.47 204.0Q347.79 204.14 347.13 204.11Q346.47 204.09 345.95 203.84Q345.44 203.59 345.17 203.06Q344.95 202.61 344.93 202.15Q344.91 201.69 344.91 201.1V194.0H346.09V201.05Q346.09 201.54 346.1 201.87Q346.11 202.21 346.25 202.46Q346.51 202.94 347.08 203.02Q347.65 203.11 348.47 202.98ZM343.28 197.16V196.17H348.47V197.16ZM353.18 207.7Q352.57 207.7 351.99 207.52Q351.4 207.33 350.91 206.95Q350.42 206.57 350.09 205.98L351.16 205.4Q351.47 206.01 352.03 206.28Q352.59 206.55 353.18 206.55Q353.98 206.55 354.49 206.26Q355.0 205.97 355.24 205.39Q355.47 204.82 355.47 203.96V201.84H355.6V196.17H356.65V203.97Q356.65 204.3 356.63 204.6Q356.61 204.9 356.56 205.2Q356.42 206.05 355.98 206.6Q355.54 207.16 354.83 207.43Q354.13 207.7 353.18 207.7ZM353.1 204.22Q352.0 204.22 351.22 203.67Q350.44 203.13 350.02 202.19Q349.61 201.25 349.61 200.08Q349.61 198.91 350.02 197.97Q350.44 197.04 351.21 196.5Q351.99 195.95 353.07 195.95Q354.18 195.95 354.93 196.49Q355.69 197.03 356.07 197.96Q356.46 198.89 356.46 200.08Q356.46 201.25 356.07 202.18Q355.69 203.12 354.94 203.67Q354.19 204.22 353.1 204.22ZM353.23 203.13Q354.04 203.13 354.57 202.74Q355.09 202.34 355.35 201.65Q355.6 200.96 355.6 200.08Q355.6 199.18 355.35 198.5Q355.09 197.81 354.57 197.42Q354.05 197.04 353.26 197.04Q352.44 197.04 351.91 197.44Q351.37 197.84 351.11 198.53Q350.86 199.22 350.86 200.08Q350.86 200.94 351.12 201.63Q351.38 202.32 351.91 202.73Q352.44 203.13 353.23 203.13ZM358.68 204.0V196.17H359.74V198.06L359.55 197.81Q359.68 197.46 359.9 197.16Q360.12 196.86 360.38 196.67Q360.68 196.41 361.07 196.28Q361.47 196.14 361.87 196.11Q362.28 196.09 362.63 196.17V197.28Q362.21 197.17 361.71 197.22Q361.21 197.28 360.79 197.6Q360.41 197.89 360.21 198.29Q360.01 198.7 359.94 199.16Q359.87 199.62 359.87 200.08V204.0ZM367.36 204.22Q366.21 204.22 365.36 203.71Q364.51 203.2 364.04 202.28Q363.57 201.36 363.57 200.13Q363.57 198.84 364.03 197.91Q364.5 196.97 365.33 196.46Q366.17 195.95 367.31 195.95Q368.48 195.95 369.3 196.49Q370.13 197.03 370.55 198.03Q370.97 199.03 370.91 200.42H369.72V200.0Q369.7 198.51 369.1 197.77Q368.5 197.02 367.34 197.02Q366.11 197.02 365.47 197.82Q364.82 198.61 364.82 200.09Q364.82 201.52 365.47 202.31Q366.11 203.09 367.31 203.09Q368.12 203.09 368.72 202.72Q369.32 202.35 369.66 201.65L370.78 202.06Q370.31 203.09 369.41 203.65Q368.5 204.22 367.36 204.22ZM364.41 200.42V199.45H370.3V200.42ZM376.19 204.22Q375.09 204.22 374.21 203.85Q373.33 203.47 372.75 202.79Q372.18 202.1 372.01 201.16L373.22 200.96Q373.47 201.96 374.3 202.53Q375.12 203.09 376.24 203.09Q376.98 203.09 377.57 202.86Q378.16 202.63 378.5 202.2Q378.84 201.77 378.84 201.18Q378.84 200.8 378.71 200.53Q378.57 200.26 378.35 200.08Q378.13 199.9 377.86 199.77Q377.58 199.65 377.31 199.57L374.66 198.78Q374.2 198.64 373.79 198.44Q373.39 198.23 373.08 197.93Q372.77 197.63 372.59 197.21Q372.41 196.8 372.41 196.25Q372.41 195.34 372.88 194.69Q373.36 194.04 374.17 193.69Q374.99 193.35 376.02 193.35Q377.07 193.35 377.9 193.72Q378.72 194.09 379.27 194.77Q379.81 195.45 379.99 196.4L378.75 196.62Q378.64 195.96 378.25 195.48Q377.87 195.0 377.29 194.74Q376.71 194.48 376.01 194.47Q375.34 194.47 374.81 194.69Q374.28 194.91 373.97 195.3Q373.66 195.69 373.66 196.2Q373.66 196.7 373.94 197.01Q374.22 197.31 374.64 197.49Q375.06 197.66 375.45 197.78L377.47 198.36Q377.8 198.45 378.24 198.62Q378.68 198.78 379.09 199.09Q379.51 199.39 379.78 199.88Q380.05 200.37 380.05 201.12Q380.05 201.86 379.76 202.44Q379.46 203.02 378.93 203.41Q378.41 203.81 377.71 204.01Q377.0 204.22 376.19 204.22ZM389.76 204.21 386.94 201.41 387.73 200.62 390.53 203.42ZM385.82 204.22Q384.26 204.22 383.18 203.53Q382.1 202.84 381.54 201.61Q380.98 200.39 380.98 198.78Q380.98 197.17 381.54 195.95Q382.1 194.72 383.18 194.03Q384.26 193.34 385.82 193.34Q387.38 193.34 388.46 194.03Q389.54 194.72 390.1 195.95Q390.66 197.17 390.66 198.78Q390.66 200.39 390.1 201.61Q389.54 202.84 388.46 203.53Q387.38 204.22 385.82 204.22ZM385.82 203.09Q387.02 203.09 387.81 202.55Q388.61 202.0 389.01 201.03Q389.41 200.06 389.41 198.78Q389.41 197.5 389.01 196.53Q388.61 195.56 387.81 195.02Q387.02 194.48 385.82 194.47Q384.63 194.47 383.83 195.01Q383.04 195.55 382.64 196.53Q382.24 197.5 382.23 198.78Q382.22 200.06 382.62 201.02Q383.02 201.99 383.82 202.54Q384.63 203.08 385.82 203.09ZM392.26 204.0V193.56H393.43V202.88H398.33V204.0Z" /></g></g><svg x="436" y="190" width="18" height="18" viewBox="0 0 24 24" fill="#a7b2bc"><path d="M16.405 5.501c-.115 0-.193.014-.274.033v.013h.014c.054.104.146.18.214.273.054.107.1.214.154.32l.014-.015c.094-.066.14-.172.14-.333-.04-.047-.046-.094-.08-.14-.04-.067-.126-.1-.18-.153zM5.77 18.695h-.927a50.854 50.854 0 00-.27-4.41h-.008l-1.41 4.41H2.45l-1.4-4.41h-.01a72.892 72.892 0 00-.195 4.41H0c.055-1.966.192-3.81.41-5.53h1.15l1.335 4.064h.008l1.347-4.064h1.095c.242 2.015.384 3.86.428 5.53zm4.017-4.08c-.378 2.045-.876 3.533-1.492 4.46-.482.716-1.01 1.073-1.583 1.073-.153 0-.34-.046-.566-.138v-.494c.11.017.24.026.386.026.268 0 .483-.075.647-.222.197-.18.295-.382.295-.605 0-.155-.077-.47-.23-.944L6.23 14.615h.91l.727 2.36c.164.536.233.91.205 1.123.4-1.064.678-2.227.835-3.483zm12.325 4.08h-2.63v-5.53h.885v4.85h1.745zm-3.32.135l-1.016-.5c.09-.076.177-.158.255-.25.433-.506.648-1.258.648-2.253 0-1.83-.718-2.746-2.155-2.746-.704 0-1.254.232-1.65.697-.43.508-.646 1.256-.646 2.245 0 .972.19 1.686.574 2.14.35.41.877.615 1.583.615.264 0 .506-.033.725-.098l1.325.772.36-.622zM15.5 17.588c-.225-.36-.337-.94-.337-1.736 0-1.393.424-2.09 1.27-2.09.443 0 .77.167.977.5.224.362.336.936.336 1.723 0 1.404-.424 2.108-1.27 2.108-.445 0-.77-.167-.978-.5zm-1.658-.425c0 .47-.172.856-.516 1.156-.344.3-.803.45-1.384.45-.543 0-1.064-.172-1.573-.515l.237-.476c.438.22.833.328 1.19.328.332 0 .593-.073.783-.22a.754.754 0 00.3-.615c0-.33-.23-.61-.648-.845-.388-.213-1.163-.657-1.163-.657-.422-.307-.632-.636-.632-1.177 0-.45.157-.81.47-1.085.315-.278.72-.415 1.22-.415.512 0 .98.136 1.4.41l-.213.476a2.726 2.726 0 00-1.064-.23c-.283 0-.502.068-.654.206a.685.685 0 00-.248.524c0 .328.234.61.666.85.393.215 1.187.67 1.187.67.433.305.648.63.648 1.168zm9.382-5.852c-.535-.014-.95.04-1.297.188-.1.04-.26.04-.274.167.055.053.063.14.11.214.08.134.218.313.346.407.14.11.28.216.427.31.26.16.555.255.81.416.145.094.293.213.44.313.073.05.12.14.214.172v-.02c-.046-.06-.06-.147-.105-.214-.067-.067-.134-.127-.2-.193a3.223 3.223 0 00-.695-.675c-.214-.146-.682-.35-.77-.595l-.013-.014c.146-.013.32-.066.46-.106.227-.06.435-.047.67-.106.106-.027.213-.06.32-.094v-.06c-.12-.12-.21-.283-.334-.395a8.867 8.867 0 00-1.104-.823c-.21-.134-.476-.22-.697-.334-.08-.04-.214-.06-.26-.127-.12-.146-.19-.34-.275-.514a17.69 17.69 0 01-.547-1.163c-.12-.262-.193-.523-.34-.763-.69-1.137-1.437-1.826-2.586-2.5-.247-.14-.543-.2-.856-.274-.167-.008-.334-.02-.5-.027-.11-.047-.216-.174-.31-.235-.38-.24-1.364-.76-1.644-.072-.18.434.267.862.422 1.082.115.153.26.328.34.5.047.116.06.235.107.356.106.294.207.622.347.897.073.14.153.287.247.413.054.073.146.107.167.227-.094.136-.1.334-.154.5-.24.757-.146 1.693.194 2.25.107.166.362.534.703.393.3-.12.234-.5.32-.835.02-.08.007-.133.048-.187v.015c.094.188.188.367.274.555.206.328.566.668.867.895.16.12.287.328.487.402v-.02h-.015c-.043-.058-.1-.086-.154-.133a3.445 3.445 0 01-.35-.4 8.76 8.76 0 01-.747-1.218c-.11-.21-.202-.436-.29-.643-.04-.08-.04-.2-.107-.24-.1.146-.247.273-.32.453-.127.288-.14.642-.188 1.01-.027.007-.014 0-.027.014-.214-.052-.287-.274-.367-.46-.2-.475-.233-1.238-.06-1.785.047-.14.247-.582.167-.716-.042-.127-.174-.2-.247-.303a2.478 2.478 0 01-.24-.427c-.16-.374-.24-.788-.414-1.162-.08-.173-.22-.354-.334-.513-.127-.18-.267-.307-.368-.52-.033-.073-.08-.194-.027-.274.014-.054.042-.075.094-.09.088-.072.335.022.422.062.247.1.455.194.662.334.094.066.195.193.315.226h.14c.214.047.455.014.655.073.355.114.675.28.962.46a5.953 5.953 0 012.085 2.286c.08.154.115.295.188.455.14.33.313.663.455.982.14.315.275.636.476.897.1.14.502.213.682.286.133.06.34.115.46.188.23.14.454.3.67.454.11.076.443.243.463.378z" /></svg><g><g data-text="MySQL" data-family="sans" data-size="14.5" data-weight="450.0" data-spacing="0.0" data-x="461.0" data-y="204.0" data-anchor="start" fill="#e6edf3"><path d="M462.01 204.0V193.56H463.09L467.12 202.11L471.12 193.56H472.21V203.99H471.09V196.17L467.46 204.0H466.77L463.14 196.17V204.0ZM475.34 207.48 476.86 203.37 476.88 204.58 473.45 196.17H474.7L477.44 203.07H476.98L479.53 196.17H480.74L476.5 207.48ZM485.63 204.22Q484.53 204.22 483.65 203.85Q482.77 203.47 482.19 202.79Q481.62 202.1 481.44 201.16L482.66 200.96Q482.91 201.96 483.73 202.53Q484.55 203.09 485.68 203.09Q486.42 203.09 487.01 202.86Q487.59 202.63 487.94 202.2Q488.28 201.77 488.28 201.18Q488.28 200.8 488.14 200.53Q488.01 200.26 487.79 200.08Q487.57 199.9 487.3 199.77Q487.02 199.65 486.75 199.57L484.09 198.78Q483.64 198.64 483.23 198.44Q482.82 198.23 482.52 197.93Q482.21 197.63 482.03 197.21Q481.85 196.8 481.85 196.25Q481.85 195.34 482.32 194.69Q482.79 194.04 483.61 193.69Q484.43 193.35 485.46 193.35Q486.51 193.35 487.34 193.72Q488.16 194.09 488.7 194.77Q489.25 195.45 489.43 196.4L488.18 196.62Q488.08 195.96 487.69 195.48Q487.31 195.0 486.73 194.74Q486.15 194.48 485.45 194.47Q484.78 194.47 484.25 194.69Q483.71 194.91 483.4 195.3Q483.09 195.69 483.09 196.2Q483.09 196.7 483.38 197.01Q483.66 197.31 484.08 197.49Q484.5 197.66 484.89 197.78L486.91 198.36Q487.24 198.45 487.68 198.62Q488.11 198.78 488.53 199.09Q488.94 199.39 489.22 199.88Q489.49 200.37 489.49 201.12Q489.49 201.86 489.19 202.44Q488.9 203.02 488.37 203.41Q487.85 203.81 487.14 204.01Q486.44 204.22 485.63 204.22ZM499.2 204.21 496.38 201.41 497.17 200.62 499.97 203.42ZM495.26 204.22Q493.7 204.22 492.62 203.53Q491.54 202.84 490.98 201.61Q490.42 200.39 490.42 198.78Q490.42 197.17 490.98 195.95Q491.54 194.72 492.62 194.03Q493.7 193.34 495.26 193.34Q496.82 193.34 497.9 194.03Q498.98 194.72 499.54 195.95Q500.1 197.17 500.1 198.78Q500.1 200.39 499.54 201.61Q498.98 202.84 497.9 203.53Q496.82 204.22 495.26 204.22ZM495.26 203.09Q496.46 203.09 497.25 202.55Q498.05 202.0 498.45 201.03Q498.85 200.06 498.85 198.78Q498.85 197.5 498.45 196.53Q498.05 195.56 497.25 195.02Q496.46 194.48 495.26 194.47Q494.06 194.47 493.27 195.01Q492.48 195.55 492.08 196.53Q491.68 197.5 491.67 198.78Q491.66 200.06 492.06 201.02Q492.46 201.99 493.26 202.54Q494.06 203.08 495.26 203.09ZM501.7 204.0V193.56H502.87V202.88H507.77V204.0Z" /></g></g><svg x="150" y="221" width="18" height="18" viewBox="0 0 24 24" fill="#a7b2bc"><path d="M13.09 23.549a1.54 1.54 0 0 1-2.18 0L.451 13.089a1.54 1.54 0 0 1 0-2.179l7.191-7.19 2.733 2.733a1.85 1.85 0 0 0 .964 2.326v6.66a1.849 1.849 0 1 0 1.54 0V8.957l2.508 2.508a1.85 1.85 0 1 0 1.09-1.09l-2.634-2.634a1.85 1.85 0 0 0-2.378-2.377L8.73 2.63 10.91.451a1.54 1.54 0 0 1 2.179 0l10.459 10.46a1.54 1.54 0 0 1 0 2.179z" /></svg><g><g data-text="Git" data-family="sans" data-size="14.5" data-weight="450.0" data-spacing="0.0" data-x="175.0" data-y="235.0" data-anchor="start" fill="#e6edf3"><path d="M180.22 235.22Q179.13 235.22 178.25 234.84Q177.36 234.46 176.73 233.75Q176.11 233.04 175.77 232.04Q175.44 231.03 175.44 229.78Q175.44 228.13 176.02 226.91Q176.6 225.69 177.67 225.02Q178.74 224.35 180.22 224.35Q181.93 224.35 182.99 225.15Q184.05 225.95 184.46 227.31L183.27 227.57Q182.94 226.62 182.17 226.05Q181.41 225.48 180.28 225.48Q179.08 225.47 178.29 226.02Q177.49 226.56 177.09 227.53Q176.69 228.5 176.69 229.78Q176.68 231.06 177.08 232.02Q177.48 232.99 178.28 233.54Q179.08 234.08 180.28 234.09Q181.34 234.09 182.05 233.68Q182.76 233.27 183.14 232.49Q183.52 231.72 183.58 230.64H181.27V229.65H184.82Q184.84 229.81 184.85 230.0Q184.85 230.2 184.85 230.27Q184.85 231.69 184.33 232.81Q183.81 233.93 182.78 234.57Q181.75 235.22 180.22 235.22ZM186.45 225.74V224.47H187.62V225.74ZM186.45 235.0V227.17H187.62V235.0ZM194.12 235.0Q193.44 235.14 192.78 235.11Q192.12 235.09 191.6 234.84Q191.08 234.59 190.82 234.06Q190.6 233.61 190.58 233.15Q190.56 232.69 190.56 232.1V225.0H191.74V232.05Q191.74 232.54 191.75 232.87Q191.76 233.21 191.9 233.46Q192.16 233.94 192.73 234.02Q193.29 234.11 194.12 233.98ZM188.93 228.16V227.17H194.12V228.16Z" /></g></g><svg x="293" y="221" width="18" height="18" viewBox="0 0 24 24" fill="#a7b2bc"><path d="M12.504 0c-.155 0-.315.008-.48.021-4.226.333-3.105 4.807-3.17 6.298-.076 1.092-.3 1.953-1.05 3.02-.885 1.051-2.127 2.75-2.716 4.521-.278.832-.41 1.684-.287 2.489a.424.424 0 00-.11.135c-.26.268-.45.6-.663.839-.199.199-.485.267-.797.4-.313.136-.658.269-.864.68-.09.189-.136.394-.132.602 0 .199.027.4.055.536.058.399.116.728.04.97-.249.68-.28 1.145-.106 1.484.174.334.535.47.94.601.81.2 1.91.135 2.774.6.926.466 1.866.67 2.616.47.526-.116.97-.464 1.208-.946.587-.003 1.23-.269 2.26-.334.699-.058 1.574.267 2.577.2.025.134.063.198.114.333l.003.003c.391.778 1.113 1.132 1.884 1.071.771-.06 1.592-.536 2.257-1.306.631-.765 1.683-1.084 2.378-1.503.348-.199.629-.469.649-.853.023-.4-.2-.811-.714-1.376v-.097l-.003-.003c-.17-.2-.25-.535-.338-.926-.085-.401-.182-.786-.492-1.046h-.003c-.059-.054-.123-.067-.188-.135a.357.357 0 00-.19-.064c.431-1.278.264-2.55-.173-3.694-.533-1.41-1.465-2.638-2.175-3.483-.796-1.005-1.576-1.957-1.56-3.368.026-2.152.236-6.133-3.544-6.139zm.529 3.405h.013c.213 0 .396.062.584.198.19.135.33.332.438.533.105.259.158.459.166.724 0-.02.006-.04.006-.06v.105a.086.086 0 01-.004-.021l-.004-.024a1.807 1.807 0 01-.15.706.953.953 0 01-.213.335.71.71 0 00-.088-.042c-.104-.045-.198-.064-.284-.133a1.312 1.312 0 00-.22-.066c.05-.06.146-.133.183-.198.053-.128.082-.264.088-.402v-.02a1.21 1.21 0 00-.061-.4c-.045-.134-.101-.2-.183-.333-.084-.066-.167-.132-.267-.132h-.016c-.093 0-.176.03-.262.132a.8.8 0 00-.205.334 1.18 1.18 0 00-.09.4v.019c.002.089.008.179.02.267-.193-.067-.438-.135-.607-.202a1.635 1.635 0 01-.018-.2v-.02a1.772 1.772 0 01.15-.768c.082-.22.232-.406.43-.533a.985.985 0 01.594-.2zm-2.962.059h.036c.142 0 .27.048.399.135.146.129.264.288.344.465.09.199.14.4.153.667v.004c.007.134.006.2-.002.266v.08c-.03.007-.056.018-.083.024-.152.055-.274.135-.393.2.012-.09.013-.18.003-.267v-.015c-.012-.133-.04-.2-.082-.333a.613.613 0 00-.166-.267.248.248 0 00-.183-.064h-.021c-.071.006-.13.04-.186.132a.552.552 0 00-.12.27.944.944 0 00-.023.33v.015c.012.135.037.2.08.334.046.134.098.2.166.268.01.009.02.018.034.024-.07.057-.117.07-.176.136a.304.304 0 01-.131.068 2.62 2.62 0 01-.275-.402 1.772 1.772 0 01-.155-.667 1.759 1.759 0 01.08-.668 1.43 1.43 0 01.283-.535c.128-.133.26-.2.418-.2zm1.37 1.706c.332 0 .733.065 1.216.399.293.2.523.269 1.052.468h.003c.255.136.405.266.478.399v-.131a.571.571 0 01.016.47c-.123.31-.516.643-1.063.842v.002c-.268.135-.501.333-.775.465-.276.135-.588.292-1.012.267a1.139 1.139 0 01-.448-.067 3.566 3.566 0 01-.322-.198c-.195-.135-.363-.332-.612-.465v-.005h-.005c-.4-.246-.616-.512-.686-.71-.07-.268-.005-.47.193-.6.224-.135.38-.271.483-.336.104-.074.143-.102.176-.131h.002v-.003c.169-.202.436-.47.839-.601.139-.036.294-.065.466-.065zm2.8 2.142c.358 1.417 1.196 3.475 1.735 4.473.286.534.855 1.659 1.102 3.024.156-.005.33.018.513.064.646-1.671-.546-3.467-1.089-3.966-.22-.2-.232-.335-.123-.335.59.534 1.365 1.572 1.646 2.757.13.535.16 1.104.021 1.67.067.028.135.06.205.067 1.032.534 1.413.938 1.23 1.537v-.043c-.06-.003-.12 0-.18 0h-.016c.151-.467-.182-.825-1.065-1.224-.915-.4-1.646-.336-1.77.465-.008.043-.013.066-.018.135-.068.023-.139.053-.209.064-.43.268-.662.669-.793 1.187-.13.533-.17 1.156-.205 1.869v.003c-.02.334-.17.838-.319 1.35-1.5 1.072-3.58 1.538-5.348.334a2.645 2.645 0 00-.402-.533 1.45 1.45 0 00-.275-.333c.182 0 .338-.03.465-.067a.615.615 0 00.314-.334c.108-.267 0-.697-.345-1.163-.345-.467-.931-.995-1.788-1.521-.63-.4-.986-.87-1.15-1.396-.165-.534-.143-1.085-.015-1.645.245-1.07.873-2.11 1.274-2.763.107-.065.037.135-.408.974-.396.751-1.14 2.497-.122 3.854a8.123 8.123 0 01.647-2.876c.564-1.278 1.743-3.504 1.836-5.268.048.036.217.135.289.202.218.133.38.333.59.465.21.201.477.335.876.335.039.003.075.006.11.006.412 0 .73-.134.997-.268.29-.134.52-.334.74-.4h.005c.467-.135.835-.402 1.044-.7zm2.185 8.958c.037.6.343 1.245.882 1.377.588.134 1.434-.333 1.791-.765l.211-.01c.315-.007.577.01.847.268l.003.003c.208.199.305.53.391.876.085.4.154.78.409 1.066.486.527.645.906.636 1.14l.003-.007v.018l-.003-.012c-.015.262-.185.396-.498.595-.63.401-1.746.712-2.457 1.57-.618.737-1.37 1.14-2.036 1.191-.664.053-1.237-.2-1.574-.898l-.005-.003c-.21-.4-.12-1.025.056-1.69.176-.668.428-1.344.463-1.897.037-.714.076-1.335.195-1.814.12-.465.308-.797.641-.984l.045-.022zm-10.814.049h.01c.053 0 .105.005.157.014.376.055.706.333 1.023.752l.91 1.664.003.003c.243.533.754 1.064 1.189 1.637.434.598.77 1.131.729 1.57v.006c-.057.744-.48 1.148-1.125 1.294-.645.135-1.52.002-2.395-.464-.968-.536-2.118-.469-2.857-.602-.369-.066-.61-.2-.723-.4-.11-.2-.113-.602.123-1.23v-.004l.002-.003c.117-.334.03-.752-.027-1.118-.055-.401-.083-.71.043-.94.16-.334.396-.4.69-.533.294-.135.64-.202.915-.47h.002v-.002c.256-.268.445-.601.668-.838.19-.201.38-.336.663-.336zm7.159-9.074c-.435.201-.945.535-1.488.535-.542 0-.97-.267-1.28-.466-.154-.134-.28-.268-.373-.335-.164-.134-.144-.333-.074-.333.109.016.129.134.199.2.096.066.215.2.36.333.292.2.68.467 1.167.467.485 0 1.053-.267 1.398-.466.195-.135.445-.334.648-.467.156-.136.149-.267.279-.267.128.016.034.134-.147.332a8.097 8.097 0 01-.69.468zm-1.082-1.583V5.64c-.006-.02.013-.042.029-.05.074-.043.18-.027.26.004.063 0 .16.067.15.135-.006.049-.085.066-.135.066-.055 0-.092-.043-.141-.068-.052-.018-.146-.008-.163-.065zm-.551 0c-.02.058-.113.049-.166.066-.047.025-.086.068-.14.068-.05 0-.13-.02-.136-.068-.01-.066.088-.133.15-.133.08-.031.184-.047.259-.005.019.009.036.03.03.05v.02h.003z" /></svg><g><g data-text="Linux" data-family="sans" data-size="14.5" data-weight="450.0" data-spacing="0.0" data-x="318.0" data-y="235.0" data-anchor="start" fill="#e6edf3"><path d="M319.16 235.0V224.56H320.34V233.88H325.24V235.0ZM326.62 225.74V224.47H327.79V225.74ZM326.62 235.0V227.17H327.79V235.0ZM335.58 235.0V231.04Q335.58 230.44 335.47 229.91Q335.36 229.38 335.1 228.97Q334.84 228.56 334.42 228.32Q334.0 228.09 333.38 228.09Q332.86 228.09 332.45 228.27Q332.03 228.45 331.74 228.8Q331.46 229.15 331.3 229.66Q331.15 230.18 331.15 230.85L330.35 230.63Q330.35 229.47 330.76 228.65Q331.18 227.83 331.92 227.4Q332.66 226.97 333.64 226.97Q334.37 226.97 334.91 227.2Q335.44 227.43 335.8 227.81Q336.16 228.19 336.37 228.68Q336.59 229.16 336.68 229.68Q336.77 230.2 336.77 230.68V235.0ZM329.96 235.0V227.17H331.02V229.18H331.15V235.0ZM341.64 235.2Q340.91 235.2 340.38 234.97Q339.85 234.74 339.48 234.36Q339.12 233.98 338.91 233.49Q338.7 233.01 338.6 232.49Q338.51 231.97 338.51 231.49V227.17H339.7V231.13Q339.7 231.73 339.81 232.26Q339.92 232.79 340.18 233.2Q340.44 233.61 340.86 233.85Q341.28 234.08 341.9 234.08Q342.42 234.08 342.84 233.9Q343.25 233.72 343.54 233.37Q343.83 233.02 343.98 232.51Q344.13 231.99 344.13 231.32L344.93 231.54Q344.93 232.7 344.52 233.52Q344.1 234.34 343.36 234.77Q342.62 235.2 341.64 235.2ZM344.26 235.0V232.99H344.13V227.17H345.32V235.0ZM346.48 235.0 349.5 231.04 346.54 227.17H347.95L350.19 230.13L352.41 227.17H353.82L350.86 231.04L353.89 235.0H352.48L350.19 231.95L347.89 235.0Z" /></g></g><svg x="436" y="221" width="18" height="18" viewBox="0 0 24 24" fill="#a7b2bc"><path d="M13.527.099C6.955-.744.942 3.9.099 10.473c-.843 6.572 3.8 12.584 10.373 13.428 6.573.843 12.587-3.801 13.428-10.374C24.744 6.955 20.101.943 13.527.099zm2.471 7.485a.855.855 0 0 0-.593.25l-4.453 4.453-.307-.307-.643-.643c4.389-4.376 5.18-4.418 5.996-3.753zm-4.863 4.861l4.44-4.44a.62.62 0 1 1 .847.903l-4.699 4.125-.588-.588zm.33.694l-1.1.238a.06.06 0 0 1-.067-.032.06.06 0 0 1 .01-.073l.645-.645.512.512zm-2.803-.459l1.172-1.172.879.878-1.979.426a.074.074 0 0 1-.085-.039.072.072 0 0 1 .013-.093zm-3.646 6.058a.076.076 0 0 1-.069-.083.077.077 0 0 1 .022-.046h.002l.946-.946 1.222 1.222-2.123-.147zm2.425-1.256a.228.228 0 0 0-.117.256l.203.865a.125.125 0 0 1-.211.117h-.003l-.934-.934-.294-.295 3.762-3.758 1.82-.393.874.874c-1.255 1.102-2.971 2.201-5.1 3.268zm5.279-3.428h-.002l-.839-.839 4.699-4.125a.952.952 0 0 0 .119-.127c-.148 1.345-2.029 3.245-3.977 5.091zm3.657-6.46l-.003-.002a1.822 1.822 0 0 1 2.459-2.684l-1.61 1.613a.119.119 0 0 0 0 .169l1.247 1.247a1.817 1.817 0 0 1-2.093-.343zm2.578 0a1.714 1.714 0 0 1-.271.218h-.001l-1.207-1.207 1.533-1.533c.661.72.637 1.832-.054 2.522zM18.855 6.05a.143.143 0 0 0-.053.157.416.416 0 0 1-.053.45.14.14 0 0 0 .023.197.141.141 0 0 0 .084.03.14.14 0 0 0 .106-.05.691.691 0 0 0 .087-.751.138.138 0 0 0-.194-.033z" /></svg><g><g data-text="Postman" data-family="sans" data-size="14.5" data-weight="450.0" data-spacing="0.0" data-x="461.0" data-y="235.0" data-anchor="start" fill="#e6edf3"><path d="M462.01 235.0V224.56H466.09Q466.25 224.56 466.45 224.57Q466.65 224.58 466.84 224.62Q467.67 224.75 468.25 225.19Q468.82 225.64 469.11 226.32Q469.41 227.0 469.41 227.82Q469.41 228.65 469.11 229.33Q468.82 230.01 468.24 230.46Q467.67 230.9 466.84 231.03Q466.65 231.06 466.44 231.08Q466.24 231.09 466.09 231.09H463.19V235.0ZM463.19 229.97H466.06Q466.19 229.97 466.37 229.95Q466.54 229.94 466.71 229.9Q467.22 229.79 467.55 229.47Q467.88 229.15 468.04 228.72Q468.2 228.29 468.2 227.82Q468.2 227.36 468.04 226.93Q467.88 226.5 467.55 226.18Q467.22 225.86 466.71 225.75Q466.54 225.71 466.37 225.69Q466.19 225.68 466.06 225.68H463.19ZM474.16 235.22Q472.99 235.22 472.15 234.69Q471.32 234.16 470.87 233.23Q470.42 232.29 470.42 231.08Q470.42 229.85 470.88 228.92Q471.33 227.99 472.17 227.47Q473.01 226.95 474.16 226.95Q475.33 226.95 476.17 227.48Q477.01 228.01 477.46 228.94Q477.9 229.87 477.9 231.08Q477.9 232.31 477.45 233.24Q477.0 234.17 476.16 234.69Q475.32 235.22 474.16 235.22ZM474.16 234.09Q475.42 234.09 476.04 233.25Q476.65 232.41 476.65 231.08Q476.65 229.71 476.03 228.89Q475.41 228.08 474.16 228.08Q473.31 228.08 472.76 228.46Q472.21 228.84 471.94 229.52Q471.67 230.19 471.67 231.08Q471.67 232.44 472.3 233.27Q472.93 234.09 474.16 234.09ZM482.44 235.21Q481.05 235.21 480.16 234.61Q479.27 234.0 479.06 232.92L480.27 232.73Q480.43 233.38 481.03 233.76Q481.63 234.15 482.51 234.15Q483.35 234.15 483.84 233.79Q484.33 233.44 484.33 232.83Q484.33 232.48 484.17 232.27Q484.01 232.05 483.52 231.86Q483.04 231.67 482.06 231.41Q481.01 231.13 480.41 230.84Q479.81 230.54 479.56 230.16Q479.31 229.77 479.31 229.21Q479.31 228.54 479.68 228.03Q480.06 227.52 480.73 227.23Q481.4 226.95 482.3 226.95Q483.19 226.95 483.89 227.24Q484.59 227.52 485.02 228.04Q485.45 228.55 485.53 229.24L484.32 229.46Q484.22 228.8 483.68 228.42Q483.13 228.03 482.29 228.01Q481.49 227.99 481.0 228.31Q480.5 228.62 480.5 229.16Q480.5 229.46 480.68 229.67Q480.86 229.88 481.35 230.07Q481.84 230.25 482.76 230.49Q483.82 230.76 484.43 231.06Q485.03 231.37 485.29 231.78Q485.55 232.2 485.55 232.81Q485.55 233.93 484.72 234.57Q483.89 235.21 482.44 235.21ZM491.47 235.0Q490.79 235.14 490.13 235.11Q489.47 235.09 488.95 234.84Q488.44 234.59 488.17 234.06Q487.95 233.61 487.93 233.15Q487.91 232.69 487.91 232.1V225.0H489.09V232.05Q489.09 232.54 489.1 232.87Q489.11 233.21 489.25 233.46Q489.51 233.94 490.08 234.02Q490.65 234.11 491.47 233.98ZM486.28 228.16V227.17H491.47V228.16ZM502.39 235.0 502.4 229.93Q502.4 229.03 501.91 228.52Q501.42 228.02 500.66 228.02Q500.22 228.02 499.82 228.22Q499.41 228.42 499.15 228.86Q498.9 229.29 498.9 229.99L498.24 229.76Q498.22 228.92 498.57 228.29Q498.93 227.66 499.55 227.31Q500.17 226.96 500.96 226.96Q502.16 226.96 502.87 227.7Q503.57 228.44 503.57 229.68L503.57 235.0ZM493.03 235.0V227.17H494.09V229.18H494.22V235.0ZM497.72 235.0 497.73 229.99Q497.73 229.07 497.25 228.54Q496.77 228.02 495.98 228.02Q495.19 228.02 494.7 228.56Q494.22 229.1 494.22 229.99L493.56 229.61Q493.56 228.85 493.92 228.25Q494.28 227.65 494.9 227.31Q495.52 226.96 496.3 226.96Q497.07 226.96 497.66 227.29Q498.24 227.62 498.57 228.23Q498.9 228.85 498.9 229.71L498.89 235.0ZM507.69 235.22Q506.81 235.22 506.22 234.9Q505.62 234.58 505.32 234.05Q505.02 233.52 505.02 232.89Q505.02 232.26 505.27 231.81Q505.51 231.36 505.95 231.06Q506.39 230.77 506.98 230.6Q507.56 230.46 508.26 230.34Q508.97 230.23 509.67 230.14Q510.37 230.05 510.95 229.97L510.52 230.22Q510.54 229.12 510.09 228.59Q509.64 228.06 508.51 228.06Q507.76 228.06 507.21 228.4Q506.67 228.74 506.45 229.5L505.32 229.16Q505.59 228.12 506.41 227.54Q507.22 226.95 508.53 226.95Q509.6 226.95 510.36 227.34Q511.11 227.73 511.44 228.5Q511.59 228.85 511.64 229.27Q511.68 229.7 511.68 230.15V235.0H510.63V233.08L510.9 233.22Q510.48 234.21 509.67 234.71Q508.85 235.22 507.69 235.22ZM507.85 234.22Q508.57 234.22 509.11 233.96Q509.64 233.7 509.97 233.26Q510.3 232.82 510.39 232.28Q510.49 231.91 510.5 231.47Q510.51 231.02 510.51 230.78L510.94 230.99Q510.35 231.07 509.73 231.15Q509.1 231.22 508.53 231.31Q507.95 231.4 507.49 231.53Q507.16 231.63 506.86 231.8Q506.57 231.96 506.39 232.23Q506.2 232.49 506.2 232.89Q506.2 233.22 506.37 233.52Q506.53 233.83 506.89 234.02Q507.26 234.22 507.85 234.22ZM519.18 235.0V231.04Q519.18 230.44 519.07 229.91Q518.96 229.38 518.7 228.97Q518.44 228.56 518.02 228.32Q517.6 228.09 516.98 228.09Q516.46 228.09 516.04 228.27Q515.63 228.45 515.34 228.8Q515.05 229.15 514.9 229.66Q514.75 230.18 514.75 230.85L513.95 230.63Q513.95 229.47 514.36 228.65Q514.78 227.83 515.52 227.4Q516.26 226.97 517.24 226.97Q517.97 226.97 518.5 227.2Q519.04 227.43 519.4 227.81Q519.76 228.19 519.97 228.68Q520.19 229.16 520.28 229.68Q520.37 230.2 520.37 230.68V235.0ZM513.56 235.0V227.17H514.62V229.18H514.75V235.0Z" /></g></g></svg>
