<svg xmlns="http://www.w3.org/2000/svg" width="260" height="120" viewBox="0 0 260 120" role="img" aria-labelledby="title desc"><title id="title">Novo Nordisk GBS</title><desc id="desc">Pre-finalist. Hackathon 2025</desc><rect x=".5" y=".5" width="259" height="119" rx="10" fill="#111814" stroke="#28352f" stroke-opacity="1" /><g transform="translate(20 19) scale(0.9166666666666666)" fill="none" stroke="#a7b2bc" stroke-width="1.5" stroke-linecap="round" stroke-linejoin="round"><path d="M6 3h12v7a6 6 0 0 1-12 0zm0 3H2v3a5 5 0 0 0 5 5m11-8h4v3a5 5 0 0 1-5 5m-5 2v5m-5 0h10" /></g><g><g data-text="Novo Nordisk GBS" data-family="sans" data-size="13.4" data-weight="600.0" data-spacing="0.0" data-x="50.0" data-y="35.0" data-anchor="start" fill="#e6edf3"><path d="M50.94 35.0V25.35H52.36L57.11 32.52V25.35H58.53V35.0H57.11L52.36 27.83V35.0ZM63.55 35.2Q62.46 35.2 61.67 34.71Q60.87 34.22 60.44 33.36Q60.01 32.5 60.01 31.38Q60.01 30.24 60.45 29.38Q60.89 28.52 61.69 28.04Q62.48 27.56 63.55 27.56Q64.64 27.56 65.43 28.05Q66.23 28.54 66.66 29.4Q67.1 30.26 67.1 31.38Q67.1 32.51 66.66 33.37Q66.22 34.23 65.42 34.72Q64.63 35.2 63.55 35.2ZM63.55 33.88Q64.59 33.88 65.1 33.18Q65.61 32.48 65.61 31.38Q65.61 30.24 65.09 29.56Q64.58 28.89 63.55 28.89Q62.84 28.89 62.39 29.2Q61.93 29.52 61.71 30.08Q61.49 30.64 61.49 31.38Q61.49 32.52 62.01 33.2Q62.54 33.88 63.55 33.88ZM70.53 35.0 67.9 27.76H69.31L71.24 33.24L73.16 27.76H74.58L71.95 35.0ZM78.92 35.2Q77.84 35.2 77.04 34.71Q76.25 34.22 75.81 33.36Q75.38 32.5 75.38 31.38Q75.38 30.24 75.82 29.38Q76.26 28.52 77.06 28.04Q77.86 27.56 78.92 27.56Q80.01 27.56 80.81 28.05Q81.6 28.54 82.04 29.4Q82.47 30.26 82.47 31.38Q82.47 32.51 82.03 33.37Q81.6 34.23 80.8 34.72Q80.0 35.2 78.92 35.2ZM78.92 33.88Q79.96 33.88 80.47 33.18Q80.99 32.48 80.99 31.38Q80.99 30.24 80.47 29.56Q79.95 28.89 78.92 28.89Q78.22 28.89 77.76 29.2Q77.31 29.52 77.09 30.08Q76.87 30.64 76.87 31.38Q76.87 32.52 77.39 33.2Q77.91 33.88 78.92 33.88ZM86.63 35.0V25.35H88.05L92.8 32.52V25.35H94.22V35.0H92.8L88.05 27.83V35.0ZM99.24 35.2Q98.15 35.2 97.36 34.71Q96.56 34.22 96.13 33.36Q95.69 32.5 95.69 31.38Q95.69 30.24 96.14 29.38Q96.58 28.52 97.37 28.04Q98.17 27.56 99.24 27.56Q100.32 27.56 101.12 28.05Q101.92 28.54 102.35 29.4Q102.79 30.26 102.79 31.38Q102.79 32.51 102.35 33.37Q101.91 34.23 101.11 34.72Q100.31 35.2 99.24 35.2ZM99.24 33.88Q100.28 33.88 100.79 33.18Q101.3 32.48 101.3 31.38Q101.3 30.24 100.78 29.56Q100.27 28.89 99.24 28.89Q98.53 28.89 98.08 29.2Q97.62 29.52 97.4 30.08Q97.18 30.64 97.18 31.38Q97.18 32.52 97.7 33.2Q98.22 33.88 99.24 33.88ZM104.26 35.0V27.76H105.51V29.52L105.33 29.29Q105.46 28.94 105.68 28.65Q105.89 28.36 106.18 28.17Q106.45 27.97 106.79 27.86Q107.13 27.75 107.49 27.73Q107.84 27.7 108.16 27.76V29.08Q107.81 28.98 107.38 29.02Q106.95 29.06 106.59 29.3Q106.25 29.52 106.05 29.83Q105.85 30.15 105.76 30.54Q105.67 30.92 105.67 31.35V35.0ZM112.31 35.2Q111.3 35.2 110.57 34.7Q109.84 34.19 109.44 33.33Q109.04 32.46 109.04 31.38Q109.04 30.29 109.44 29.42Q109.84 28.56 110.58 28.06Q111.32 27.56 112.34 27.56Q113.36 27.56 114.06 28.06Q114.76 28.56 115.12 29.42Q115.48 30.29 115.48 31.38Q115.48 32.46 115.12 33.33Q114.76 34.19 114.05 34.7Q113.35 35.2 112.31 35.2ZM112.51 33.93Q113.2 33.93 113.63 33.61Q114.07 33.28 114.27 32.7Q114.47 32.13 114.47 31.38Q114.47 30.62 114.27 30.05Q114.06 29.47 113.64 29.15Q113.21 28.83 112.55 28.83Q111.86 28.83 111.41 29.17Q110.96 29.51 110.74 30.09Q110.52 30.67 110.52 31.38Q110.52 32.09 110.74 32.67Q110.96 33.25 111.4 33.59Q111.83 33.93 112.51 33.93ZM114.47 35.0V29.8H114.31V25.35H115.72V35.0ZM117.73 26.58V25.22H119.13V26.58ZM117.73 35.0V27.76H119.13V35.0ZM123.91 35.2Q122.59 35.2 121.75 34.61Q120.92 34.03 120.74 32.97L122.17 32.75Q122.31 33.31 122.79 33.64Q123.28 33.96 124.0 33.96Q124.66 33.96 125.03 33.7Q125.4 33.43 125.4 32.96Q125.4 32.68 125.27 32.51Q125.14 32.34 124.73 32.19Q124.31 32.03 123.46 31.81Q122.53 31.56 121.98 31.28Q121.44 31.01 121.2 30.64Q120.97 30.27 120.97 29.73Q120.97 29.08 121.32 28.59Q121.67 28.1 122.3 27.83Q122.94 27.56 123.78 27.56Q124.62 27.56 125.27 27.83Q125.92 28.09 126.32 28.57Q126.72 29.05 126.8 29.69L125.37 29.95Q125.3 29.43 124.88 29.13Q124.46 28.82 123.8 28.8Q123.16 28.77 122.77 29.01Q122.37 29.25 122.37 29.66Q122.37 29.9 122.53 30.07Q122.68 30.23 123.11 30.39Q123.55 30.55 124.4 30.76Q125.31 31.0 125.84 31.28Q126.38 31.56 126.61 31.95Q126.84 32.34 126.84 32.91Q126.84 33.97 126.06 34.59Q125.28 35.2 123.91 35.2ZM128.31 35.0 128.32 25.35H129.74V31.25L132.58 27.76H134.37L131.36 31.38L134.67 35.0H132.77L129.74 31.52V35.0ZM141.97 35.2Q141.0 35.2 140.18 34.86Q139.36 34.52 138.76 33.87Q138.16 33.23 137.82 32.29Q137.49 31.36 137.49 30.18Q137.49 28.62 138.06 27.49Q138.63 26.37 139.64 25.76Q140.65 25.16 141.97 25.16Q143.67 25.16 144.69 25.95Q145.7 26.74 146.07 28.13L144.65 28.39Q144.36 27.53 143.7 27.01Q143.05 26.49 142.05 26.49Q141.02 26.48 140.34 26.94Q139.66 27.4 139.32 28.24Q138.98 29.07 138.98 30.18Q138.97 31.28 139.31 32.11Q139.65 32.93 140.34 33.4Q141.02 33.86 142.05 33.87Q142.88 33.88 143.47 33.56Q144.06 33.25 144.41 32.63Q144.76 32.01 144.86 31.11H142.98V29.99H146.35Q146.36 30.11 146.37 30.31Q146.37 30.5 146.37 30.56Q146.37 31.9 145.86 32.95Q145.34 34.0 144.36 34.6Q143.37 35.2 141.97 35.2ZM147.71 35.0V25.35H151.5Q152.43 25.35 153.05 25.73Q153.67 26.1 153.98 26.69Q154.3 27.29 154.3 27.95Q154.3 28.74 153.91 29.31Q153.51 29.88 152.85 30.09L152.84 29.76Q153.76 29.99 154.26 30.65Q154.75 31.31 154.75 32.19Q154.75 33.04 154.42 33.67Q154.08 34.3 153.43 34.65Q152.78 35.0 151.87 35.0ZM149.13 33.67H151.65Q152.13 33.67 152.51 33.49Q152.89 33.3 153.11 32.97Q153.32 32.63 153.32 32.16Q153.32 31.72 153.13 31.37Q152.94 31.02 152.58 30.82Q152.22 30.61 151.74 30.61H149.13ZM149.13 29.29H151.49Q151.87 29.29 152.19 29.13Q152.5 28.97 152.68 28.68Q152.86 28.38 152.86 27.96Q152.86 27.4 152.49 27.03Q152.11 26.67 151.49 26.67H149.13ZM159.59 35.2Q158.54 35.2 157.71 34.84Q156.88 34.48 156.34 33.82Q155.8 33.15 155.64 32.24L157.1 32.01Q157.32 32.9 158.02 33.39Q158.73 33.88 159.67 33.88Q160.25 33.88 160.74 33.7Q161.23 33.51 161.53 33.17Q161.82 32.82 161.82 32.34Q161.82 32.08 161.73 31.88Q161.64 31.67 161.48 31.53Q161.32 31.38 161.1 31.27Q160.88 31.15 160.61 31.07L158.14 30.34Q157.78 30.24 157.4 30.06Q157.03 29.89 156.72 29.62Q156.4 29.34 156.21 28.93Q156.02 28.51 156.02 27.92Q156.02 27.03 156.48 26.41Q156.93 25.79 157.72 25.47Q158.5 25.16 159.47 25.16Q160.45 25.17 161.22 25.5Q161.99 25.84 162.51 26.47Q163.02 27.1 163.22 27.98L161.72 28.24Q161.61 27.69 161.29 27.3Q160.96 26.91 160.48 26.7Q160.01 26.49 159.45 26.48Q158.91 26.47 158.47 26.65Q158.03 26.82 157.76 27.13Q157.49 27.45 157.49 27.86Q157.49 28.26 157.73 28.51Q157.96 28.75 158.31 28.9Q158.65 29.04 159.0 29.14L160.78 29.64Q161.11 29.73 161.54 29.89Q161.97 30.05 162.36 30.33Q162.76 30.61 163.02 31.08Q163.28 31.54 163.28 32.25Q163.28 32.97 162.99 33.53Q162.69 34.08 162.18 34.45Q161.67 34.82 161.0 35.01Q160.33 35.2 159.59 35.2Z" /></g></g><g><g data-text="Pre-finalist" data-family="sans" data-size="24.0" data-weight="650.0" data-spacing="-0.7" data-x="20.0" data-y="77.0" data-anchor="start" fill="#e6edf3"><path d="M21.68 77.0V59.72H28.74Q28.99 59.72 29.38 59.74Q29.77 59.76 30.1 59.82Q31.57 60.04 32.54 60.81Q33.52 61.57 33.99 62.73Q34.47 63.89 34.47 65.3Q34.47 66.71 33.99 67.87Q33.51 69.03 32.53 69.79Q31.56 70.56 30.1 70.78Q29.77 70.83 29.38 70.86Q28.98 70.88 28.74 70.88H24.38V77.0ZM24.38 68.34H28.63Q28.87 68.34 29.17 68.32Q29.46 68.29 29.73 68.23Q30.47 68.05 30.91 67.58Q31.35 67.11 31.54 66.5Q31.73 65.89 31.73 65.3Q31.73 64.71 31.54 64.1Q31.35 63.49 30.91 63.02Q30.47 62.55 29.73 62.37Q29.46 62.3 29.17 62.28Q28.87 62.26 28.63 62.26H24.38ZM36.17 77.0V64.04H38.56V67.19L38.25 66.78Q38.49 66.15 38.88 65.62Q39.27 65.09 39.81 64.75Q40.29 64.4 40.89 64.21Q41.48 64.03 42.11 63.98Q42.73 63.94 43.31 64.04V66.57Q42.71 66.39 41.95 66.46Q41.19 66.53 40.56 66.92Q39.96 67.28 39.59 67.81Q39.22 68.35 39.05 69.01Q38.88 69.68 38.88 70.44V77.0ZM50.71 77.36Q48.76 77.36 47.29 76.51Q45.82 75.66 45.0 74.15Q44.17 72.63 44.17 70.65Q44.17 68.52 44.98 66.96Q45.79 65.4 47.23 64.54Q48.67 63.68 50.57 63.68Q52.56 63.68 53.96 64.61Q55.37 65.54 56.05 67.24Q56.74 68.95 56.59 71.28H53.9V70.29Q53.88 68.11 53.1 67.08Q52.31 66.06 50.68 66.06Q48.85 66.06 47.94 67.2Q47.03 68.34 47.03 70.52Q47.03 72.57 47.94 73.7Q48.85 74.82 50.57 74.82Q51.69 74.82 52.51 74.32Q53.32 73.81 53.77 72.87L56.43 73.69Q55.68 75.43 54.14 76.4Q52.59 77.36 50.71 77.36ZM46.17 71.28V69.21H55.25V71.28ZM58.33 70.5V68.36H65.53V70.5ZM69.11 77.0V63.71Q69.11 63.22 69.15 62.64Q69.18 62.07 69.35 61.5Q69.53 60.93 69.95 60.46Q70.47 59.88 71.09 59.66Q71.7 59.43 72.31 59.39Q72.91 59.36 73.39 59.36H75.02V61.57H73.51Q72.65 61.57 72.23 62.0Q71.81 62.42 71.81 63.16V77.0ZM66.99 66.18V64.04H75.02V66.18ZM76.48 61.99V59.45H79.18V61.99ZM76.48 77.0V64.04H79.18V77.0ZM91.11 77.0V70.69Q91.11 70.01 91.0 69.24Q90.89 68.47 90.57 67.78Q90.24 67.09 89.62 66.66Q88.99 66.23 87.96 66.23Q87.34 66.23 86.78 66.43Q86.21 66.64 85.76 67.1Q85.32 67.56 85.06 68.34Q84.79 69.13 84.79 70.3L83.16 69.64Q83.16 67.93 83.81 66.58Q84.46 65.23 85.7 64.46Q86.94 63.68 88.73 63.68Q90.12 63.68 91.04 64.14Q91.97 64.59 92.53 65.32Q93.09 66.04 93.37 66.87Q93.66 67.71 93.75 68.48Q93.84 69.25 93.84 69.78V77.0ZM82.06 77.0V64.04H84.47V67.92H84.79V77.0ZM99.9 77.36Q98.48 77.36 97.51 76.83Q96.54 76.3 96.04 75.41Q95.54 74.52 95.54 73.46Q95.54 72.5 95.87 71.75Q96.21 71.01 96.87 70.47Q97.53 69.94 98.55 69.6Q99.37 69.35 100.44 69.15Q101.51 68.95 102.73 68.78Q103.95 68.61 105.21 68.43L104.24 68.97Q104.26 67.53 103.62 66.85Q102.98 66.16 101.45 66.16Q100.5 66.16 99.67 66.61Q98.83 67.05 98.5 68.09L96.01 67.32Q96.49 65.66 97.84 64.67Q99.19 63.68 101.46 63.68Q103.2 63.68 104.49 64.26Q105.79 64.84 106.41 66.12Q106.74 66.78 106.82 67.49Q106.89 68.2 106.89 69.03V77.0H104.51V74.11L104.94 74.53Q104.1 75.98 102.89 76.67Q101.68 77.36 99.9 77.36ZM100.41 75.18Q101.44 75.18 102.17 74.82Q102.9 74.45 103.34 73.91Q103.79 73.36 103.93 72.82Q104.14 72.26 104.17 71.54Q104.21 70.82 104.21 70.39L105.06 70.67Q103.81 70.86 102.85 71.01Q101.9 71.16 101.17 71.3Q100.45 71.44 99.88 71.62Q99.37 71.8 99.0 72.04Q98.62 72.29 98.41 72.63Q98.2 72.97 98.2 73.43Q98.2 73.92 98.44 74.32Q98.69 74.71 99.18 74.95Q99.67 75.18 100.41 75.18ZM109.55 77.0V59.36H112.25V77.0ZM115.39 61.99V59.45H118.09V61.99ZM115.39 77.0V64.04H118.09V77.0ZM125.97 77.35Q123.58 77.35 122.09 76.29Q120.6 75.23 120.27 73.3L123.03 72.88Q123.26 73.86 124.09 74.43Q124.91 75.0 126.15 75.0Q127.26 75.0 127.88 74.55Q128.5 74.11 128.5 73.32Q128.5 72.86 128.28 72.57Q128.06 72.28 127.33 72.02Q126.6 71.75 125.11 71.35Q123.46 70.92 122.49 70.43Q121.53 69.93 121.11 69.25Q120.69 68.58 120.69 67.62Q120.69 66.42 121.32 65.54Q121.95 64.65 123.09 64.16Q124.23 63.68 125.76 63.68Q127.26 63.68 128.43 64.15Q129.6 64.62 130.32 65.48Q131.04 66.34 131.19 67.5L128.43 67.99Q128.31 67.11 127.61 66.6Q126.92 66.09 125.79 66.04Q124.71 65.99 124.05 66.38Q123.38 66.78 123.38 67.48Q123.38 67.88 123.64 68.16Q123.91 68.44 124.68 68.71Q125.45 68.98 126.96 69.37Q128.56 69.78 129.5 70.29Q130.44 70.8 130.86 71.5Q131.27 72.2 131.27 73.21Q131.27 75.14 129.86 76.25Q128.45 77.35 125.97 77.35ZM140.72 77.0Q139.47 77.24 138.27 77.21Q137.06 77.17 136.12 76.75Q135.17 76.33 134.68 75.42Q134.25 74.59 134.22 73.74Q134.2 72.89 134.2 71.8V60.44H136.9V71.66Q136.9 72.44 136.91 73.02Q136.93 73.6 137.16 73.99Q137.59 74.72 138.54 74.81Q139.48 74.91 140.72 74.73ZM131.78 66.18V64.04H140.72V66.18Z" /></g></g><g><g data-text="Hackathon 2025" data-family="sans" data-size="12.5" data-weight="450.0" data-spacing="0.0" data-x="20.0" data-y="104.0" data-anchor="start" fill="#a7b2bc"><path d="M20.88 104.0V95.0H21.89V99.01H26.75V95.0H27.76V104.0H26.75V99.98H21.89V104.0ZM31.44 104.19Q30.68 104.19 30.16 103.91Q29.65 103.63 29.39 103.18Q29.14 102.72 29.14 102.18Q29.14 101.64 29.35 101.25Q29.56 100.86 29.94 100.61Q30.31 100.35 30.82 100.21Q31.32 100.08 31.93 99.99Q32.54 99.89 33.14 99.81Q33.75 99.73 34.24 99.66L33.88 99.88Q33.89 98.93 33.5 98.47Q33.11 98.01 32.14 98.01Q31.49 98.01 31.02 98.31Q30.55 98.61 30.36 99.26L29.39 98.96Q29.63 98.07 30.33 97.57Q31.03 97.06 32.16 97.06Q33.08 97.06 33.73 97.4Q34.38 97.74 34.66 98.4Q34.8 98.7 34.84 99.06Q34.87 99.43 34.87 99.82V104.0H33.97V102.34L34.2 102.47Q33.84 103.32 33.14 103.75Q32.43 104.19 31.44 104.19ZM31.57 103.32Q32.19 103.32 32.66 103.1Q33.12 102.88 33.4 102.5Q33.68 102.12 33.76 101.66Q33.85 101.34 33.86 100.95Q33.86 100.57 33.86 100.36L34.23 100.54Q33.73 100.61 33.19 100.68Q32.65 100.74 32.15 100.82Q31.65 100.9 31.26 101.01Q30.97 101.09 30.72 101.24Q30.47 101.38 30.31 101.61Q30.15 101.84 30.15 102.18Q30.15 102.46 30.29 102.73Q30.43 102.99 30.75 103.16Q31.06 103.32 31.57 103.32ZM39.32 104.19Q38.3 104.19 37.59 103.73Q36.88 103.27 36.51 102.47Q36.13 101.66 36.12 100.62Q36.13 99.57 36.51 98.76Q36.89 97.96 37.61 97.51Q38.32 97.06 39.33 97.06Q40.38 97.06 41.14 97.57Q41.91 98.09 42.18 98.98L41.18 99.29Q40.95 98.69 40.46 98.36Q39.96 98.03 39.32 98.03Q38.6 98.03 38.13 98.36Q37.67 98.69 37.44 99.28Q37.21 99.87 37.2 100.62Q37.21 101.79 37.74 102.51Q38.27 103.22 39.32 103.22Q39.99 103.22 40.45 102.91Q40.92 102.6 41.16 102.01L42.18 102.29Q41.82 103.21 41.08 103.7Q40.35 104.19 39.32 104.19ZM43.46 104.0 43.47 95.0H44.49V100.5L47.41 97.25H48.75L45.68 100.62L49.13 104.0H47.68L44.49 100.75V104.0ZM51.68 104.19Q50.92 104.19 50.41 103.91Q49.89 103.63 49.64 103.18Q49.38 102.72 49.38 102.18Q49.38 101.64 49.59 101.25Q49.8 100.86 50.18 100.61Q50.56 100.35 51.06 100.21Q51.56 100.08 52.17 99.99Q52.78 99.89 53.38 99.81Q53.99 99.73 54.48 99.66L54.12 99.88Q54.14 98.93 53.74 98.47Q53.35 98.01 52.39 98.01Q51.73 98.01 51.26 98.31Q50.79 98.61 50.61 99.26L49.63 98.96Q49.87 98.07 50.57 97.57Q51.27 97.06 52.4 97.06Q53.32 97.06 53.97 97.4Q54.63 97.74 54.91 98.4Q55.04 98.7 55.08 99.06Q55.12 99.43 55.12 99.82V104.0H54.21V102.34L54.45 102.47Q54.08 103.32 53.38 103.75Q52.67 104.19 51.68 104.19ZM51.82 103.32Q52.44 103.32 52.9 103.1Q53.36 102.88 53.64 102.5Q53.92 102.12 54.01 101.66Q54.09 101.34 54.1 100.95Q54.11 100.57 54.11 100.36L54.48 100.54Q53.97 100.61 53.43 100.68Q52.9 100.74 52.4 100.82Q51.9 100.9 51.5 101.01Q51.22 101.09 50.96 101.24Q50.71 101.38 50.55 101.61Q50.39 101.84 50.39 102.18Q50.39 102.46 50.53 102.73Q50.68 102.99 50.99 103.16Q51.3 103.32 51.82 103.32ZM60.46 104.0Q59.88 104.12 59.31 104.1Q58.74 104.07 58.29 103.86Q57.85 103.65 57.62 103.19Q57.43 102.81 57.41 102.41Q57.4 102.01 57.4 101.5V95.38H58.41V101.46Q58.41 101.88 58.42 102.17Q58.43 102.46 58.55 102.67Q58.77 103.08 59.26 103.16Q59.75 103.23 60.46 103.12ZM55.99 98.1V97.25H60.46V98.1ZM66.66 104.0V100.59Q66.66 100.07 66.56 99.61Q66.47 99.15 66.24 98.8Q66.02 98.44 65.66 98.24Q65.3 98.04 64.76 98.04Q64.31 98.04 63.95 98.2Q63.6 98.35 63.35 98.65Q63.1 98.96 62.97 99.4Q62.84 99.84 62.84 100.42L62.15 100.24Q62.15 99.23 62.5 98.52Q62.86 97.82 63.5 97.45Q64.14 97.08 64.99 97.08Q65.62 97.08 66.08 97.28Q66.53 97.47 66.84 97.8Q67.16 98.13 67.34 98.55Q67.52 98.96 67.6 99.41Q67.68 99.86 67.68 100.28V104.0ZM61.81 104.0V95.0H62.73V100.03H62.84V104.0ZM72.16 104.19Q71.15 104.19 70.43 103.73Q69.71 103.28 69.32 102.47Q68.93 101.67 68.93 100.62Q68.93 99.56 69.33 98.76Q69.72 97.96 70.44 97.51Q71.17 97.06 72.16 97.06Q73.17 97.06 73.89 97.52Q74.61 97.97 75.0 98.77Q75.38 99.57 75.38 100.62Q75.38 101.68 75.0 102.48Q74.61 103.28 73.88 103.74Q73.16 104.19 72.16 104.19ZM72.16 103.22Q73.24 103.22 73.77 102.5Q74.31 101.77 74.31 100.62Q74.31 99.44 73.77 98.73Q73.23 98.03 72.16 98.03Q71.43 98.03 70.95 98.36Q70.48 98.69 70.24 99.27Q70.01 99.86 70.01 100.62Q70.01 101.8 70.56 102.51Q71.1 103.22 72.16 103.22ZM81.6 104.0V100.59Q81.6 100.07 81.5 99.61Q81.41 99.15 81.19 98.8Q80.96 98.44 80.6 98.24Q80.24 98.04 79.71 98.04Q79.25 98.04 78.9 98.2Q78.54 98.35 78.29 98.65Q78.04 98.96 77.91 99.4Q77.78 99.84 77.78 100.42L77.09 100.24Q77.09 99.23 77.45 98.52Q77.8 97.82 78.44 97.45Q79.08 97.08 79.93 97.08Q80.56 97.08 81.02 97.28Q81.48 97.47 81.79 97.8Q82.1 98.13 82.28 98.55Q82.47 98.96 82.55 99.41Q82.62 99.86 82.62 100.28V104.0ZM76.75 104.0V97.25H77.67V98.98H77.78V104.0ZM86.5 103.99 86.51 103.07 90.54 99.44Q91.05 98.98 91.22 98.56Q91.39 98.15 91.39 97.7Q91.39 97.16 91.14 96.73Q90.89 96.3 90.47 96.04Q90.04 95.79 89.51 95.79Q88.95 95.79 88.51 96.05Q88.08 96.31 87.83 96.75Q87.58 97.18 87.59 97.69H86.55Q86.55 96.86 86.94 96.21Q87.33 95.56 88.0 95.18Q88.67 94.81 89.52 94.81Q90.35 94.81 91.01 95.2Q91.66 95.58 92.05 96.24Q92.43 96.89 92.43 97.71Q92.43 98.29 92.29 98.71Q92.14 99.14 91.85 99.51Q91.56 99.88 91.11 100.28L87.64 103.4L87.5 103.02H92.43V103.99ZM96.92 104.19Q96.06 104.19 95.39 103.8Q94.71 103.4 94.32 102.73Q93.93 102.05 93.93 101.2V97.8Q93.93 96.95 94.32 96.27Q94.71 95.6 95.39 95.2Q96.06 94.81 96.92 94.81Q97.77 94.81 98.45 95.2Q99.12 95.6 99.51 96.27Q99.9 96.95 99.9 97.8V101.2Q99.9 102.05 99.51 102.73Q99.12 103.4 98.45 103.8Q97.77 104.19 96.92 104.19ZM96.92 103.21Q97.46 103.21 97.9 102.95Q98.35 102.68 98.61 102.24Q98.87 101.79 98.87 101.25V97.74Q98.87 97.2 98.61 96.76Q98.35 96.31 97.9 96.05Q97.46 95.79 96.92 95.79Q96.37 95.79 95.93 96.05Q95.49 96.31 95.22 96.76Q94.96 97.2 94.96 97.74V101.25Q94.96 101.79 95.22 102.24Q95.49 102.68 95.93 102.95Q96.37 103.21 96.92 103.21ZM101.4 103.99 101.41 103.07 105.44 99.44Q105.95 98.98 106.12 98.56Q106.3 98.15 106.3 97.7Q106.3 97.16 106.05 96.73Q105.8 96.3 105.37 96.04Q104.94 95.79 104.41 95.79Q103.85 95.79 103.42 96.05Q102.98 96.31 102.73 96.75Q102.48 97.18 102.49 97.69H101.45Q101.45 96.86 101.84 96.21Q102.23 95.56 102.9 95.18Q103.57 94.81 104.42 94.81Q105.25 94.81 105.91 95.2Q106.57 95.58 106.95 96.24Q107.33 96.89 107.33 97.71Q107.33 98.29 107.19 98.71Q107.05 99.14 106.75 99.51Q106.46 99.88 106.01 100.28L102.54 103.4L102.4 103.02H107.33V103.99ZM111.49 104.19Q110.79 104.19 110.2 103.9Q109.6 103.61 109.18 103.11Q108.76 102.6 108.58 101.95L109.56 101.69Q109.67 102.15 109.97 102.49Q110.27 102.83 110.67 103.01Q111.08 103.2 111.52 103.2Q112.09 103.2 112.55 102.92Q113.01 102.64 113.28 102.18Q113.55 101.72 113.55 101.17Q113.55 100.6 113.27 100.14Q112.99 99.68 112.53 99.41Q112.07 99.14 111.52 99.14Q110.9 99.14 110.46 99.41Q110.02 99.67 109.76 100.06L108.85 99.69L109.12 95.0H113.94V95.97H109.59L110.07 95.52L109.83 99.4L109.59 99.09Q109.97 98.67 110.51 98.44Q111.05 98.2 111.62 98.2Q112.45 98.2 113.12 98.6Q113.79 98.99 114.18 99.66Q114.57 100.33 114.57 101.17Q114.57 102.0 114.15 102.68Q113.73 103.37 113.03 103.78Q112.33 104.19 111.49 104.19Z" /></g></g></svg>
